<svg id="Layer_1" data-name="Layer 1" xmlns="http://www.w3.org/2000/svg" viewBox="0 0 25 25"><defs><style>.cls-1{fill:none;stroke:#000;stroke-linecap:round;stroke-linejoin:round;stroke-width:1.5px;}</style></defs><title>NZF_Personal-Liabilities_Icon_RGB</title><g id="Building-Construction_Houses_house" data-name="Building-Construction / Houses / house"><g id="Group_14" data-name="Group 14"><g id="house"><path id="Shape_78" data-name="Shape 78" class="cls-1" d="M20.75,22.69V16.44"/><path id="Shape_78-2" data-name="Shape 78" class="cls-1" d="M4.25,16.44v6.25"/><path id="Shape_79" data-name="Shape 79" class="cls-1" d="M1.25,14.84,11.44,4.65a1.5,1.5,0,0,1,2.12,0L23.75,14.84"/><path id="Shape_81" data-name="Shape 81" class="cls-1" d="M2,22.69H23"/></g></g></g><g id="Money-Payments-Finance_Currencies_currency-pound-bill" data-name="Money-Payments-Finance / Currencies / currency-pound-bill"><g id="Group_79" data-name="Group 79"><g id="currency-pound-bill"><path id="Shape_525" data-name="Shape 525" class="cls-1" d="M14,12.56a1.5,1.5,0,0,0-3,0v4.5a1.5,1.5,0,0,1-1.5,1.5H14"/><path id="Shape_526" data-name="Shape 526" class="cls-1" d="M9.49,15.56H14"/></g></g></g><line class="cls-1" x1="2.64" y1="2.67" x2="5.71" y2="5.73"/><polyline class="cls-1" points="2.64 5.74 2.64 2.67 5.71 2.67"/><line class="cls-1" x1="22.3" y1="2.67" x2="19.23" y2="5.73"/><polyline class="cls-1" points="19.23 2.67 22.3 2.67 22.3 5.74"/></svg>