<?xml version="1.0" standalone="no"?>
<!DOCTYPE svg PUBLIC "-//W3C//DTD SVG 1.1//EN" "http://www.w3.org/Graphics/SVG/1.1/DTD/svg11.dtd" >
<svg xmlns="http://www.w3.org/2000/svg" xmlns:xlink="http://www.w3.org/1999/xlink" version="1.1">
<metadata>
Created by FontForge 20170731 at Thu May 18 11:34:17 2017
 By Aleksey,,,
Copyright (c) 2016 by Pin~ata. Designer Ivan Gladkikh, technical designer Maria Misernitskaya. All rights reserved.
</metadata>
<defs>
<font id="Pines-Black" horiz-adv-x="723" >
  <font-face 
    font-family="Pines"
    font-weight="900"
    font-stretch="normal"
    units-per-em="1000"
    panose-1="2 0 5 3 4 0 0 2 0 4"
    ascent="800"
    descent="-200"
    x-height="490"
    cap-height="720"
    bbox="-240 -430.667 1214 1042"
    underline-thickness="50"
    underline-position="-150"
    unicode-range="U+000D-F6D4"
  />
<missing-glyph horiz-adv-x="0" 
 />
    <glyph glyph-name=".notdef" horiz-adv-x="0" 
 />
    <glyph glyph-name=".null" horiz-adv-x="0" 
 />
    <glyph glyph-name=".null" horiz-adv-x="0" 
 />
    <glyph glyph-name="nonmarkingreturn" unicode="&#xd;" horiz-adv-x="0" 
 />
    <glyph glyph-name="space" unicode=" " horiz-adv-x="210" 
 />
    <glyph glyph-name="exclam" unicode="!" horiz-adv-x="375" 
d="M315 719l-60 -490h-155l-40 480zM78 72q0 20 8 38t21.5 31.5t32 21.5t38.5 8q21 0 39 -8t31.5 -21.5t21.5 -31.5t8 -38q0 -21 -8 -39t-21.5 -32t-31.5 -22t-39 -8q-20 0 -38.5 8t-32 22t-21.5 32t-8 39z" />
    <glyph glyph-name="quotedbl" unicode="&#x22;" horiz-adv-x="460" 
d="M40 710l180 -5l-20 -245h-120zM247 707l173 3l-20 -245l-126 -5z" />
    <glyph glyph-name="numbersign" unicode="#" horiz-adv-x="790" 
d="M352 145l-65 1l-47 -161l-201 15l45 149l-84 1l60 180l79 -1l9 28h-86l30 199l117 -1l51 165l200 10l-52 -177l69 -1l52 170l200 10l-52 -182l93 -1l-50 -189l-97 -1l-11 -38l88 -1l-20 -180l-119 2l-41 -146l-212 6zM340 326l67 -1l10 34l-67 -1z" />
    <glyph glyph-name="dollar" unicode="$" horiz-adv-x="688" 
d="M258 -23q-38 7 -68 20t-53 29.5t-40 35t-29 36.5q-28 43 -38 93l208 79q12 -26 27 -45q13 -17 31.5 -31t41.5 -14q32 0 46 13t13 31q-1 23 -26.5 35.5t-63 23t-81 23.5t-80.5 36t-62 60.5t-25 97.5q0 53 16.5 91.5t44 65t64 42.5t75.5 23v152l199 -34l-6 -126
q48 -14 83.5 -36.5t58.5 -44.5q27 -26 46 -53l-140 -120l-8 12.5t-24 27.5t-38.5 27.5t-51.5 12.5q-38 0 -54.5 -15t-15.5 -35q1 -22 27 -34t65 -22.5t84 -24t83.5 -38.5t64.5 -65.5t26 -105.5q0 -30 -12.5 -63t-38 -62.5t-64.5 -53.5t-91 -37l5 -114l-199 -20v127z" />
    <glyph glyph-name="percent" unicode="%" horiz-adv-x="869" 
d="M518 707l230 -7l-380 -710h-243zM194 738q22 0 50.5 -9.5t53.5 -30.5t42.5 -55t17.5 -83q0 -44 -14 -75t-37.5 -51t-54 -29.5t-62.5 -9.5q-37 0 -68 10t-53.5 31.5t-35.5 55t-13 81.5q0 52 19 84.5t46 50.5t57 24t52 6zM186 610q-15 0 -19.5 -16.5t-4.5 -33.5
q0 -25 4.5 -37.5t19.5 -12.5q13 0 19.5 11t6.5 39q0 30 -7 40t-19 10zM705 318q22 0 50.5 -9.5t53.5 -30.5t42.5 -55t17.5 -83q0 -44 -14 -75t-37.5 -51t-54 -29.5t-62.5 -9.5q-37 0 -68 10t-53.5 31.5t-35.5 55t-13 81.5q0 52 19 84.5t46 50.5t57 24t52 6zM697 190
q-15 0 -19.5 -16.5t-4.5 -33.5q0 -25 4.5 -37.5t19.5 -12.5q13 0 19.5 11t6.5 39q0 30 -7 40t-19 10z" />
    <glyph glyph-name="ampersand" unicode="&#x26;" horiz-adv-x="811" 
d="M491 60q-6 -10 -26.5 -25.5t-50 -29.5t-64.5 -24.5t-69 -10.5q-30 0 -71.5 4t-80 22t-66.5 54t-32 100q-3 49 11 84t38 60.5t53.5 43t57.5 32.5q-25 24 -44 50q-17 23 -31 51.5t-14 59.5q-1 105 58.5 152t180.5 47q60 0 100.5 -14.5t66.5 -36t39 -46.5t19 -47t6.5 -37
t0.5 -16q0 -6 -2.5 -22t-10.5 -36.5t-23.5 -43t-41.5 -41.5l36 -40l50 40l160 -100l-105 -100l145 -180l-230 -20zM313 262q-13 -14 -21 -28q-7 -12 -9.5 -26.5t8.5 -25.5q11 -13 32 -10.5t38 28.5q-7 12 -15 23q-7 10 -15.5 20.5t-17.5 18.5zM361 513q6 7 9.5 19t3 23.5
t-7 18.5t-20.5 6q-15 -2 -17 -12t3 -21.5t14 -22t15 -11.5z" />
    <glyph glyph-name="quotesingle" unicode="'" horiz-adv-x="256" 
d="M40 710l176 3l-20 -245l-129 -5z" />
    <glyph glyph-name="parenleft" unicode="(" horiz-adv-x="514" 
d="M514 560q-74 5 -132 -21q-25 -11 -49 -30t-43.5 -48.5t-32 -71.5t-13.5 -99q-2 -66 8 -114.5t28 -83t41.5 -57.5t48.5 -36q58 -32 134 -29l-5 -186q-126 -5 -225 44q-42 21 -83 55.5t-74 87.5t-53.5 127.5t-22.5 175.5q-2 100 17.5 174.5t52.5 127.5t75.5 87t87.5 55
q105 48 240 42v-200z" />
    <glyph glyph-name="parenright" unicode=")" horiz-adv-x="514" 
d="M0 -12q74 -5 132 21q25 11 49 29.5t43 48.5t31.5 72t14.5 99q2 66 -8 114.5t-28 83t-41.5 57t-48.5 36.5q-58 32 -134 29l5 186q126 4 225 -44q42 -21 83 -55.5t74 -88t53.5 -128t22.5 -174.5q2 -101 -17.5 -175t-52.5 -127t-75.5 -87.5t-87.5 -54.5q-106 -48 -240 -42
v200z" />
    <glyph glyph-name="asterisk" unicode="*" horiz-adv-x="470" 
d="M174 616l2 93l111 1l1 -84l81 58l61 -104l-94 -64l94 -57l-78 -104l-62 40l1 -58l-121 -2l1 67l-70 -47l-61 95l81 58l-81 55l52 104z" />
    <glyph glyph-name="plus" unicode="+" horiz-adv-x="500" 
d="M336 528v-128h124v-180l-124 3v-115h-180l3 119l-119 3v170h123l3 128h170z" />
    <glyph glyph-name="comma" unicode="," horiz-adv-x="277" 
d="M40 82q0 20 7.5 37.5t21 31t31.5 21t38 7.5q41 0 68.5 -28.5t29.5 -68.5q2 -75 -23.5 -131.5t-67.5 -91.5h-17q-6 0 -11.5 -0.5t-5.5 0.5q7 9 18.5 28.5t18.5 39.5t6 36.5t-17 19.5q-40 1 -68.5 29t-28.5 70z" />
    <glyph glyph-name="hyphen" unicode="-" horiz-adv-x="500" 
d="M40 400h420v-180l-420 10v170z" />
    <glyph glyph-name="period" unicode="." horiz-adv-x="280" 
d="M40 72q0 20 8 38t21.5 31.5t32 21.5t38.5 8q21 0 39 -8t31.5 -21.5t21.5 -31.5t8 -38q0 -21 -8 -39t-21.5 -32t-31.5 -22t-39 -8q-20 0 -38.5 8t-32 22t-21.5 32t-8 39z" />
    <glyph glyph-name="slash" unicode="/" horiz-adv-x="477" 
d="M247 708l230 -7l-267 -708l-210 -3z" />
    <glyph glyph-name="zero" unicode="0" horiz-adv-x="750" 
d="M380 729q64 0 123.5 -21t105.5 -68t73.5 -121t27.5 -179q0 -98 -27 -168t-72 -115t-104 -66t-123 -21t-125.5 21.5t-110 68.5t-78.5 121t-30 179q0 94 30.5 163t79.5 115t109.5 68.5t120.5 22.5zM384 530q-24 0 -41.5 -17t-29.5 -44t-17.5 -61t-5.5 -68q0 -38 6.5 -70
t19 -55t31 -36.5t43.5 -13.5q42 0 66 46t24 129q0 91 -23 140.5t-73 49.5z" />
    <glyph glyph-name="one" unicode="1" horiz-adv-x="470" 
d="M410 714l-7 -709l-233 -18l10 423q-8 -11 -24.5 -22t-33.5 -19q-20 -10 -42 -19l-60 160q40 19 74 49q29 26 56.5 64.5t38.5 95.5z" />
    <glyph glyph-name="two" unicode="2" horiz-adv-x="661" 
d="M30 590q22 39 59 71q32 27 82 51t124 29q49 3 105 -9t103.5 -44t78 -85.5t29.5 -132.5q-1 -36 -12.5 -66.5t-30 -56t-42 -45.5t-47.5 -35q-57 -36 -129 -57l270 -2l11 -217l-578 9l7 210q80 42 142 86q27 19 52.5 40t45.5 43.5t32.5 45.5t12.5 45q0 30 -15 50t-45 20
q-25 0 -44 -11t-33 -24q-16 -16 -28 -35q-42 34 -75 60q-14 11 -27 22t-24 19q-12 10 -24 19z" />
    <glyph glyph-name="three" unicode="3" horiz-adv-x="680" 
d="M250 262l6 145q31 1 56 6q21 5 39 15t18 30q0 14 -4.5 22t-11.5 12t-16.5 5t-18.5 1q-30 0 -51.5 -9t-35.5 -19.5t-20.5 -19l-6.5 -8.5l-154 139q31 38 76 69q38 26 96.5 48t137.5 22q64 0 112.5 -18.5t81.5 -47.5t49.5 -64t16.5 -69q0 -53 -18.5 -83t-41.5 -45
q-26 -18 -60 -22v-11q42 -6 75 -26q14 -9 27.5 -22t24 -31.5t17 -43t6.5 -56.5q0 -41 -21.5 -80.5t-62 -69.5t-98 -47t-128.5 -13q-83 0 -141.5 23t-96.5 52q-44 33 -72 75l180 120q19 -30 42 -45t68 -15q11 0 23.5 1.5t23 6.5t17 14t6.5 23q-1 20 -15.5 27.5t-31.5 7.5z
" />
    <glyph glyph-name="four" unicode="4" horiz-adv-x="690" 
d="M560 700v-400h90l10 -190h-90v-130h-230v130l-314 -2l-6 97l314 495h226zM300 310h53v97z" />
    <glyph glyph-name="five" unicode="5" horiz-adv-x="680" 
d="M595 700l-25 -190h-230l-5 -30q84 0 142 -21t94.5 -55.5t52.5 -79.5t16 -94q0 -53 -20.5 -100t-61 -82.5t-100 -57t-138.5 -21.5q-35 0 -66 6.5t-58 18t-50 26t-41 29.5q-43 35 -75 81l183 111q13 -20 30 -36q14 -14 32.5 -24.5t39.5 -10.5q41 0 61.5 22t19.5 48
q-1 13 -4 25.5t-16 22.5t-40 16t-76 6h-140l41 390h434z" />
    <glyph glyph-name="six" unicode="6" horiz-adv-x="691" 
d="M545 540q-50 5 -89.5 -2t-68 -22.5t-45.5 -39.5t-21 -52q17 10 36 18q17 7 38 12.5t46 5.5q47 0 85.5 -18t66.5 -49.5t43 -76t15 -96.5q0 -49 -19 -95.5t-56.5 -83t-93.5 -59t-131 -22.5q-70 0 -120 17t-84.5 43.5t-55 59t-32 62.5t-15 54t-3.5 34q-4 105 26 199
t91.5 162.5t155 104t217.5 24.5zM361 304q-27 -2 -42.5 -23t-17.5 -51q-2 -35 15 -57.5t45 -22.5t45 21t15 58q-2 38 -19.5 57.5t-40.5 17.5z" />
    <glyph glyph-name="seven" unicode="7" horiz-adv-x="599" 
d="M40 706l528 4l1 -120l-227 -583l-250 -7l207 500l-249 -3z" />
    <glyph glyph-name="eight" unicode="8" horiz-adv-x="701" 
d="M349 747q39 1 90.5 -10t97.5 -36t75.5 -65t25.5 -97q-5 -58 -25 -89.5t-42 -46.5q-26 -18 -57 -22q43 -12 77 -35q15 -10 28.5 -23.5t24.5 -30.5t18 -39t8 -48q1 -51 -18.5 -96t-58.5 -78t-97 -52t-134 -19q-84 0 -147 19.5t-104 52t-61.5 74t-18.5 86.5q1 26 8 48
t18.5 39.5t25.5 31t29 23.5q34 24 77 37q-42 16 -73 43q-26 22 -44.5 59.5t-8.5 90.5q9 53 37 88t67 55.5t86 29t96 10.5zM354 585q-15 0 -24 -11t-9 -34q0 -17 8.5 -34t25.5 -17q23 0 30 17.5t7 33.5q0 15 -9.5 30t-28.5 15zM355 259q-23 1 -33.5 -15.5t-10.5 -39.5
q0 -16 11.5 -33.5t31.5 -17.5q21 0 32 15.5t11 35.5t-9.5 37t-32.5 18z" />
    <glyph glyph-name="nine" unicode="9" horiz-adv-x="671" 
d="M136 170q49 -5 89 2t68.5 22.5t45.5 39t21 52.5q-17 -10 -36 -18q-17 -7 -38.5 -12.5t-45.5 -5.5q-47 0 -85.5 18t-66.5 49.5t-43 75.5t-15 97q0 49 18.5 95.5t56 83t94 59t131.5 22.5q70 0 120 -17t84.5 -43.5t55 -59t32 -62.5t15 -54t3.5 -34q4 -105 -26 -199
t-91.5 -162.5t-155 -104t-217.5 -24.5zM320 406q27 2 42.5 23t17.5 51q2 35 -15 57.5t-45 22.5t-45 -21t-15 -58q2 -38 19.5 -57.5t40.5 -17.5z" />
    <glyph glyph-name="colon" unicode=":" horiz-adv-x="281" 
d="M41 81q0 20 8 38t21.5 31.5t32 21.5t38.5 8q21 0 39 -8t31.5 -21.5t21.5 -31.5t8 -38q0 -21 -8 -39t-21.5 -32t-31.5 -22t-39 -8q-20 0 -38.5 8t-32 22t-21.5 32t-8 39zM40 433q0 20 8 38t21.5 31.5t32 21.5t38.5 8q21 0 39 -8t31.5 -21.5t21.5 -31.5t8 -38q0 -21 -8 -39
t-21.5 -32t-31.5 -22t-39 -8q-20 0 -38.5 8t-32 22t-21.5 32t-8 39z" />
    <glyph glyph-name="semicolon" unicode=";" horiz-adv-x="283" 
d="M46 82q0 20 7.5 37.5t21 31t31.5 21t38 7.5q41 0 68.5 -28.5t29.5 -68.5q2 -75 -23.5 -131.5t-67.5 -91.5h-17q-6 0 -11.5 -0.5t-5.5 0.5q7 9 18.5 28.5t18.5 39.5t6 36.5t-17 19.5q-40 1 -68.5 29t-28.5 70zM40 433q0 20 8 38t21.5 31.5t32 21.5t38.5 8q21 0 39 -8
t31.5 -21.5t21.5 -31.5t8 -38q0 -21 -8 -39t-21.5 -32t-31.5 -22t-39 -8q-20 0 -38.5 8t-32 22t-21.5 32t-8 39z" />
    <glyph glyph-name="less" unicode="&#x3c;" horiz-adv-x="493" 
d="M453 300l-133 -60l133 -50l-16 -197l-397 192l3 105l404 190z" />
    <glyph glyph-name="equal" unicode="=" horiz-adv-x="505" 
d="M40 500h420v-180l-420 10v170zM45 273h420v-180l-420 10v170z" />
    <glyph glyph-name="greater" unicode="&#x3e;" horiz-adv-x="493" 
d="M46 480l404 -190l3 -105l-397 -192l-16 197l133 50l-133 60z" />
    <glyph glyph-name="question" unicode="?" horiz-adv-x="635" 
d="M605 511q0 -45 -15 -74.5t-37 -50.5t-48 -37t-48 -34.5t-37 -43t-15 -61.5l-210 10q0 57 11.5 92.5t28.5 57.5t37.5 34t38.5 23t30.5 24.5t15.5 38.5q0 30 -26 44.5t-56 14.5q-25 0 -44 -11t-33 -24q-16 -16 -28 -35q-42 34 -75 60q-14 11 -27 22t-24 19q-12 10 -24 19
q22 39 59 71q32 27 82 51t124 29q49 3 105 -7t104 -38t79.5 -75.5t31.5 -118.5zM195 71q0 20 8 38t21.5 31.5t32 21.5t38.5 8q21 0 39 -8t31.5 -21.5t21.5 -31.5t8 -38q0 -21 -8 -39t-21.5 -32t-31.5 -22t-39 -8q-20 0 -38.5 8t-32 22t-21.5 32t-8 39z" />
    <glyph glyph-name="at" unicode="@" horiz-adv-x="874" 
d="M484 447q0 -2 3 3.5t7 12.5l10 18l98 7l1 -208q15 8 28 23q11 13 20.5 34t11.5 53q1 18 -2.5 46.5t-23 57t-62.5 50.5t-122 26q-53 3 -92.5 -10t-68 -36t-47.5 -53t-29.5 -62t-14.5 -64t-2 -57q2 -29 10.5 -64.5t33.5 -68t70 -56t120 -29.5q34 -3 68.5 3.5t62.5 14.5
q33 10 62 24l-7 -132q-11 -9 -36 -17q-21 -7 -59 -13.5t-101 -8.5q-62 -3 -126.5 14.5t-118.5 56.5t-91 100.5t-44 148.5q-9 102 14.5 181t69.5 135.5t110 92t136 50.5q48 10 101.5 8.5t105.5 -15t99 -39.5t82 -65t54.5 -91t17.5 -118q-2 -53 -16.5 -91t-37.5 -64.5
t-51.5 -43.5t-58.5 -26q-70 -22 -156 -15l-19 23q-8 -10 -19 -17q-10 -6 -26 -11t-40 -5q-28 0 -55.5 8.5t-50 27t-36.5 49t-14 74.5q0 49 14 83.5t35.5 56t48 31.5t52.5 10q25 0 41 -6.5t24.5 -14t12 -14.5t3.5 -8zM453 370q-20 0 -35 -11.5t-15 -31.5q0 -23 13.5 -36.5
t36.5 -13.5h20v93h-20z" />
    <glyph glyph-name="A" unicode="A" horiz-adv-x="726" 
d="M0 0l292 710h141l293 -710l-241 -10l-42 110h-158l-40 -110zM332 260h61l-31 90z" />
    <glyph glyph-name="B" unicode="B" horiz-adv-x="670" 
d="M420 700q98 -8 144 -51.5t46 -118.5q0 -53 -20.5 -83t-44.5 -45q-29 -18 -65 -22v-10q53 -6 95 -28q18 -9 35 -23t30.5 -33.5t21.5 -45.5t8 -60q0 -38 -13.5 -70.5t-40.5 -58t-68.5 -41.5t-97.5 -20l-390 -5v727zM290 544v-61h38q14 0 25 3q9 2 17 7t8 16q0 10 -5.5 16.5
t-13.5 10t-17.5 5t-18.5 1.5zM290 250v-56l80 -5q11 -1 20 2q8 2 14 8.5t7 19.5q1 20 -15 25t-33 5z" />
    <glyph glyph-name="C" unicode="C" 
d="M526 490q-15 17 -38 28.5t-72 11.5q-60 0 -100 -50t-40 -141q0 -37 10.5 -66.5t29.5 -50t44.5 -31.5t55.5 -11t54 8.5t43 21.5t34.5 29t28.5 31l147 -133q-25 -33 -55.5 -63t-69.5 -53t-88.5 -36.5t-113.5 -13.5t-126.5 21.5t-113 66t-82 113.5t-33.5 166
q-2 106 29.5 180.5t84.5 121.5t121.5 68t139.5 21q72 -1 121 -20.5t81 -42.5q36 -27 59 -62z" />
    <glyph glyph-name="D" unicode="D" horiz-adv-x="749" 
d="M390 714q79 -1 140 -29.5t101.5 -79.5t60.5 -122t16 -157q-3 -62 -24 -124t-64.5 -110.5t-111 -77.5t-163.5 -26l-285 2l10 729zM300 200l64 1q32 0 54.5 13t36.5 35.5t20 52.5t5 63q-2 72 -36.5 111.5t-87.5 38.5h-56v-315z" />
    <glyph glyph-name="E" unicode="E" horiz-adv-x="651" 
d="M601 720l-10 -200l-291 -20l1 -60l260 6l-4 -186l-267 -4v-56l331 10l-6 -221l-555 1v710z" />
    <glyph glyph-name="F" unicode="F" horiz-adv-x="637" 
d="M637 710l-15 -212l-315 2v-80h180l-10 -200h-180v-220l-230 -10l-7 727z" />
    <glyph glyph-name="G" unicode="G" horiz-adv-x="796" 
d="M436 380l320 -10l1 -17t1.5 -45.5t1.5 -64.5t2 -73l4 -200l-180 10v80q-19 -26 -46 -45q-23 -17 -59 -31t-85 -13q-64 0 -126.5 21.5t-113 66t-82 113.5t-33.5 166q-2 106 29.5 180.5t84.5 121.5t121.5 68t139.5 21q72 -1 121 -20.5t81 -42.5q36 -27 59 -62l-151 -114
q-15 17 -38 28.5t-72 11.5q-60 0 -100 -50t-40 -141q0 -37 10.5 -66.5t29.5 -50t44.5 -31.5t55.5 -11t49.5 7t30.5 15.5t15.5 15l4.5 6.5l-90 6z" />
    <glyph glyph-name="H" unicode="H" horiz-adv-x="727" 
d="M300 700l3 -260h132l2 260h230v-700l-230 -10l-10 260l-116 -10l-1 -240l-250 -20l10 730z" />
    <glyph glyph-name="I" unicode="I" horiz-adv-x="350" 
d="M290 697v-687l-230 -10v714z" />
    <glyph glyph-name="J" unicode="J" horiz-adv-x="367" 
d="M307 729l-3 -739q0 -64 -17 -117t-53 -91.5t-91 -60t-130 -21.5q-68 0 -115.5 21t-78.5 47q-36 30 -59 69l144 126q10 -14 21.5 -28.5t24.5 -26.5t28 -20t33 -8q40 0 56.5 25t16.5 85l-8 719z" />
    <glyph glyph-name="K" unicode="K" horiz-adv-x="720" 
d="M293 697v-687l-230 -10l-3 730zM460 703l237 -1l-179 -352l202 -350l-260 20l-167 330z" />
    <glyph glyph-name="L" unicode="L" horiz-adv-x="616" 
d="M299 690l14 -480l281 10l2 -214l-518 -14l-18 728z" />
    <glyph glyph-name="M" unicode="M" horiz-adv-x="880" 
d="M60 -15v720l180 11l210 -256l170 240l200 6l-10 -711l-240 5v340l-140 -170l-140 150v-320z" />
    <glyph glyph-name="N" unicode="N" 
d="M264 0h-200l-4 703l154 -13l219 -320l10 330l220 10l-20 -710h-160l-209 280z" />
    <glyph glyph-name="O" unicode="O" horiz-adv-x="779" 
d="M408 730q49 0 107 -20t107.5 -66t83 -120.5t33.5 -183.5q0 -98 -29 -168t-77 -115t-109 -66t-125 -21t-128 21.5t-115.5 68.5t-83.5 121t-32 179q0 77 18.5 134.5t48.5 98.5t68.5 67.5t79.5 42t81 21.5t72 6zM389 520q-23 0 -41 -15.5t-31 -41t-20 -57.5t-7 -66
q0 -38 8.5 -70.5t24.5 -56.5t38 -37.5t48 -11.5q42 2 66 47.5t24 128.5q0 52 -9 86.5t-24 55.5t-35 29.5t-42 8.5z" />
    <glyph glyph-name="P" unicode="P" horiz-adv-x="672" 
d="M353 700q90 4 148 -12t91.5 -47t46.5 -75t13 -96q0 -45 -13.5 -85t-42.5 -70t-74.5 -47.5t-109.5 -17.5l-113 3l-1 -253l-238 -14l6 704zM297 447q15 -2 31 -3q14 -1 30 -1.5t31 -0.5q20 0 31.5 7.5t11.5 22.5q0 23 -15 27t-28 4l-93 -3z" />
    <glyph glyph-name="Q" unicode="Q" horiz-adv-x="779" 
d="M85 152q-21 42 -33 93.5t-12 114.5q0 77 18.5 134.5t48.5 98.5t68.5 67.5t79.5 42t81 21.5t72 6q49 0 107 -20t107.5 -66t83 -120.5t33.5 -183.5t-36 -183.5t-94 -118.5q43 -22 80.5 -38.5t65.5 -27.5t45 -16.5t19 -6.5q-2 -1 -15 -10t-32 -21.5t-40 -26.5l-39 -26
t-29.5 -20l-11.5 -8q-124 28 -214.5 62t-153 68.5t-101.5 67.5t-60.5 59t-29.5 41.5t-8 16.5zM389 520q-24 0 -42.5 -15.5t-31 -41t-19 -57.5t-6.5 -66q0 -38 8.5 -70.5t24.5 -56.5t38 -37.5t48 -11.5q42 2 66 47.5t24 128.5q0 52 -9 86.5t-24 55.5t-35 29.5t-42 8.5z" />
    <glyph glyph-name="R" unicode="R" horiz-adv-x="701" 
d="M332 713q90 4 151 -12.5t98.5 -48t54 -76t16.5 -96.5q0 -57 -14 -91.5t-31 -54.5q-20 -23 -45 -34v-10l139 -290h-259l-117 260l-30 2l-1 -262l-234 -3l2 705zM293 456q11 -2 23 -3q11 -1 24.5 -1.5t28.5 -0.5t24.5 6.5t9.5 21.5q0 17 -11.5 22t-24.5 4l-75 -5z" />
    <glyph glyph-name="S" unicode="S" horiz-adv-x="688" 
d="M500 460l-8 12.5t-24 27.5t-38.5 27.5t-51.5 12.5q-38 0 -54.5 -15t-15.5 -35q1 -22 27 -34t65 -22.5t84 -24t83.5 -38.5t64.5 -65.5t26 -105.5q0 -38 -19 -78.5t-58.5 -74t-99.5 -55.5t-142 -22q-52 0 -92.5 9.5t-72 25t-54.5 35t-39 40.5q-38 48 -51 111l208 79
q12 -26 27 -45q13 -17 31.5 -31t41.5 -14q32 0 46 13t13 31q-1 23 -26.5 35.5t-63 23t-81 23.5t-80.5 36t-62 60.5t-25 97.5q0 67 26 111.5t67.5 71t92 37t99.5 10.5q77 0 132 -23.5t92 -51.5q42 -33 72 -75z" />
    <glyph glyph-name="T" unicode="T" horiz-adv-x="655" 
d="M635 700v-194l-200 4l6 -510l-239 11l7 499l-189 -12l5 212z" />
    <glyph glyph-name="U" unicode="U" horiz-adv-x="740" 
d="M290 680l5 -400q0 -28 9 -50q8 -19 25 -34.5t51 -14.5q22 0 36 8t21.5 20.5t10 28t2.5 32.5l-1 420l226 6l5 -426q0 -60 -15 -114.5t-49.5 -95.5t-92 -65.5t-143.5 -24.5t-147 24.5t-99.5 66.5t-56 98.5t-17.5 120.5v420z" />
    <glyph glyph-name="V" unicode="V" horiz-adv-x="717" 
d="M240 730l127 -340l117 320l233 -10l-290 -710h-130l-297 710z" />
    <glyph glyph-name="W" unicode="W" horiz-adv-x="882" 
d="M0 700l232 10l100 -290l110 190l110 -190l90 290l240 -10l-190 -710h-160l-100 290l-120 -290h-140z" />
    <glyph glyph-name="X" unicode="X" horiz-adv-x="716" 
d="M258 697l95 -147l96 152l231 -12l-202 -333l238 -367l-265 -10l-104 161l-98 -171l-239 40l209 330l-219 340z" />
    <glyph glyph-name="Y" unicode="Y" horiz-adv-x="705" 
d="M0 690l249 20l117 -212l89 212l250 -10l-233 -397l-10 -303h-221l1 303z" />
    <glyph glyph-name="Z" unicode="Z" horiz-adv-x="662" 
d="M612 704l-5 -160l-257 -334l282 10l-10 -220h-562v170l232 313l-222 -13l-20 220z" />
    <glyph glyph-name="bracketleft" unicode="[" horiz-adv-x="423" 
d="M60 727l343 5v-208l-149 2v-472l145 -9q0 -55 -1 -97q0 -18 -0.5 -35.5t-1 -31t-1 -22t-1.5 -8.5t-16 -0.5t-38 -1t-52.5 -1t-60.5 -0.5q-72 -1 -163 -2z" />
    <glyph glyph-name="backslash" unicode="\" horiz-adv-x="477" 
d="M477 -10l-210 3l-267 708l230 7z" />
    <glyph glyph-name="bracketright" unicode="]" horiz-adv-x="423" 
d="M359 -154q-91 1 -163 2q-31 0 -60.5 0.5t-53 1t-38 1t-15.5 0.5t-1.5 8.5t-1 22t-1 31t-0.5 35.5q-1 42 -1 97l145 9v472l-149 -2v208l343 -5z" />
    <glyph glyph-name="asciicircum" unicode="^" horiz-adv-x="520" 
d="M310 350l-50 120l-50 -123l-170 3l175 353l105 -3l160 -350h-170z" />
    <glyph glyph-name="underscore" unicode="_" horiz-adv-x="420" 
d="M0 -40h420v-180l-420 10v170z" />
    <glyph glyph-name="grave" unicode="`" horiz-adv-x="342" 
d="M302 600q-2 -1 -13.5 -15t-24.5 -31q-16 -19 -34 -44l-190 130l113 115l149 -155v0z" />
    <glyph glyph-name="a" unicode="a" horiz-adv-x="589" 
d="M62 456q28 23 63 40q30 14 72.5 25t93.5 8q55 -4 93 -20.5t62 -42t37 -57t18 -64.5t4.5 -66t-1.5 -61q-2 -31 1 -48t10 -25t18 -9.5t26 -1.5l10 -131q-48 -15 -91 -18q-18 -1 -37.5 0.5t-38 8.5t-35 19t-28.5 32q-10 -14 -24.5 -28t-33.5 -24.5t-43.5 -16t-53.5 -3.5
q-25 1 -54 8.5t-53 25t-40 47t-16 75.5q0 58 27 92t68.5 53t90.5 26.5t94 12.5q1 4 1 12t-3 16t-10 15t-20 10q-25 3 -48 -2.5t-42 -15t-32 -19t-17 -13.5zM304 214q-45 -12 -60.5 -31t-12.5 -35q3 -14 14 -20t28 -2q13 3 22 5.5t9 3.5q-1 4 -2 9t-1 11v16z" />
    <glyph glyph-name="b" unicode="b" horiz-adv-x="580" 
d="M30 700l210 10l-2 -300q11 25 30 45q17 17 44 31t69 14q45 0 78.5 -21t56 -56.5t33.5 -83t11 -99.5q0 -60 -20 -108t-56.5 -82t-88 -52t-115.5 -18q-60 0 -106.5 4.5t-78.5 10.5q-38 6 -65 15v690zM239 297q0 -1 0.5 -21t0.5 -45v-65q4 -2 9 -3q9 -3 31 -3q15 0 26 6.5
t18.5 17t11 23t3.5 23.5q0 6 -0.5 21t-6 30t-17 27t-32.5 12q-11 0 -19.5 -3.5t-13.5 -8t-8 -8z" />
    <glyph glyph-name="c" unicode="c" horiz-adv-x="523" 
d="M382 302q-9 7 -15.5 12t-13.5 8.5t-17 5.5t-25 2q-24 0 -47 -23t-23 -66q0 -45 25 -62.5t55 -17.5q19 0 33.5 5.5t26 14t21 19t18.5 21.5l103 -131q-21 -27 -43 -49t-49 -37.5t-61.5 -24t-79.5 -8.5t-92.5 14.5t-86 46t-64 80.5t-26.5 118q-1 75 24 128.5t65.5 87.5
t91.5 49.5t101 15.5q51 0 86 -14t58 -31q26 -19 43 -44z" />
    <glyph glyph-name="d" unicode="d" horiz-adv-x="573" 
d="M357 36q-21 -26 -54.5 -41.5t-79.5 -14.5q-22 0 -55.5 8t-65.5 33.5t-55.5 73.5t-25.5 129t16 133.5t47.5 83.5t66 43.5t71.5 13.5q24 0 44 -5.5t35.5 -13.5t26 -16.5t15.5 -14.5v262l200 -10v-700l-166 -10zM313 150q18 0 30 3v169q-16 8 -40 8q-27 0 -43.5 -27.5
t-16.5 -72.5q0 -34 18 -57t52 -23z" />
    <glyph glyph-name="e" unicode="e" horiz-adv-x="563" 
d="M294 516q64 -1 107.5 -22t71.5 -53.5t42 -71.5t20 -77t6.5 -70t0.5 -50l-32 -1.5t-78.5 -3t-98 -3t-91.5 -1.5q24 -44 84 -44q31 0 58 5t47 12q23 8 42 18v-146q-19 -13 -45 -23q-22 -8 -53 -15t-70 -7q-59 0 -111 16t-90.5 49t-61 84t-22.5 122q0 74 19.5 128t55.5 88.5
t86.5 50.5t112.5 15zM302 359q-17 0 -29 -7t-20 -17t-12 -21.5t-5 -21.5l128 -6q0 12 -4 25t-11.5 23.5t-19.5 17.5t-27 7z" />
    <glyph glyph-name="f" unicode="f" horiz-adv-x="425" 
d="M20 480h55v31q0 45 10.5 86.5t34.5 73.5t64.5 51t100.5 19q38 0 67 -6t50 -14q24 -9 43 -20l-40 -180q-12 8 -26 15q-12 5 -28.5 10t-35.5 5q-15 0 -23 -8t-12 -17q-4 -11 -5 -25v-21h115l-10 -180h-105v-309l-200 5v304h-55v180z" />
    <glyph glyph-name="g" unicode="g" horiz-adv-x="573" 
d="M231 -70q4 -22 12 -40q7 -15 19 -27.5t32 -12.5q21 0 31 13t13.5 33t3 45t-0.5 49v40q-5 -6 -15.5 -14t-25.5 -16t-34.5 -13t-43.5 -5q-35 1 -71.5 13.5t-66 43.5t-47.5 83.5t-16 133.5t25.5 129t55.5 73.5t65.5 33.5t55.5 8q46 1 79.5 -14.5t54.5 -41.5l20 46l166 -10
l-3 -422q0 -42 -1 -87t-8 -88t-22 -82t-42.5 -68t-70.5 -46t-105 -17q-60 0 -104.5 20t-74.5 51.5t-47 71t-22 78.5zM313 330q-34 0 -52 -23t-18 -57q0 -45 16.5 -72.5t43.5 -27.5q24 0 40 8v169q-12 3 -30 3z" />
    <glyph glyph-name="h" unicode="h" horiz-adv-x="584" 
d="M553 0l-220 10v233q0 6 -0.5 21t-6 30t-17 27t-32.5 12q-11 0 -18 -3.5t-11 -8t-6 -8l-2 -3.5l1 -303l-210 -10l-1 713l210 -10v-274q2 4 9 18.5t22 29.5t40.5 27t63.5 12q45 0 78.5 -21t56 -56.5t33.5 -83t11 -99.5z" />
    <glyph glyph-name="i" unicode="i" horiz-adv-x="273" 
d="M33 490l200 -5v-499l-200 10v494zM30 687q0 22 8.5 41t23 33.5t33.5 23t41 8.5t41.5 -8.5t34 -23t23 -33.5t8.5 -41t-8.5 -41.5t-23 -34t-34 -23t-41.5 -8.5t-41 8.5t-33.5 23t-23 34t-8.5 41.5z" />
    <glyph glyph-name="j" unicode="j" horiz-adv-x="290" 
d="M47 687q0 22 8.5 41t23 33.5t33.5 23t41 8.5t41.5 -8.5t34 -23t23 -33.5t8.5 -41t-8.5 -41.5t-23 -34t-34 -23t-41.5 -8.5t-41 8.5t-33.5 23t-23 34t-8.5 41.5zM250 -100q0 -45 -10.5 -86.5t-34.5 -73.5t-64.5 -51t-100.5 -19q-38 0 -68 6t-50 14q-25 9 -42 20l40 180
q12 -9 26 -15q12 -6 28.5 -10.5t35.5 -4.5q15 0 23 7.5t12 17.5q4 11 5 25v580l200 -5v-585z" />
    <glyph glyph-name="k" unicode="k" horiz-adv-x="580" 
d="M30 700l210 10l-10 -722l-200 10v702zM346 481l209 -1l-114 -240l139 -250l-230 10l-110 240z" />
    <glyph glyph-name="l" unicode="l" horiz-adv-x="320" 
d="M0 709l290 -19v-700l-199 10v527l-91 12v170z" />
    <glyph glyph-name="m" unicode="m" horiz-adv-x="820" 
d="M508 10l-211 -10v243q0 6 0.5 20.5t-1.5 28.5t-9.5 24.5t-23.5 8.5q-12 -2 -17 -9t-6 -6l1 -313h-210l-1 513h210v-84q2 4 8.5 18t20 28.5t35.5 26t56 11.5q43 0 66.5 -19t41.5 -51q7 10 20 21t31 20.5t40.5 15.5t49.5 6q45 0 79 -20t56.5 -54t34 -80.5t11.5 -98.5
l-4 -250l-219 -10l3 240q0 9 1 27t-1.5 35.5t-10.5 30.5t-26 13q-15 0 -22.5 -6t-8.5 -7q2 -17 3 -34.5t1 -35.5z" />
    <glyph glyph-name="n" unicode="n" horiz-adv-x="571" 
d="M540 -10l-220 10v243v20.5t-3 29.5t-11.5 27t-25.5 13q-11 1 -18.5 -3t-12 -8.5t-7 -8l-2.5 -3.5l1 -313h-210l-1 513h210v-84q2 4 8 18t20.5 28.5t39 26t62.5 11.5q49 0 81.5 -20.5t52.5 -55.5t28.5 -82t8.5 -99z" />
    <glyph glyph-name="o" unicode="o" horiz-adv-x="591" 
d="M304 520q36 0 82 -15t87.5 -49t69.5 -89.5t28 -135.5q0 -72 -23 -123t-61 -83.5t-87.5 -48t-102.5 -15.5q-60 0 -110.5 16.5t-87.5 51.5t-58 90t-21 132q0 57 14.5 99t38 72t54 49t62 30t61.5 15t54 4zM292 343q-17 -1 -27 -11.5t-15.5 -26.5t-7.5 -35.5t-2 -38.5
q0 -21 2.5 -40.5t8.5 -35t17.5 -25t29.5 -9.5q30 0 41.5 32t11.5 78q0 58 -16 86t-43 26z" />
    <glyph glyph-name="p" unicode="p" horiz-adv-x="574" 
d="M217 434q21 26 54.5 41.5t79.5 14.5q22 0 55.5 -8t65.5 -33.5t55.5 -73.5t25.5 -129t-16 -133.5t-47.5 -83.5t-66 -43.5t-71.5 -13.5q-48 -1 -79.5 8t-41.5 20l-1 -328l-200 10v808l185 -10zM261 320q-18 0 -30 -3v-169q16 -8 40 -8q27 0 43.5 27.5t16.5 72.5
q0 34 -18 57t-52 23z" />
    <glyph glyph-name="q" unicode="q" horiz-adv-x="590" 
d="M340 161q-1 0 -0.5 22t0.5 48v69l-9 3q-5 1 -12.5 2t-18.5 1q-15 0 -26 -6.5t-18.5 -17t-11 -23t-3.5 -23.5q0 -6 0.5 -22t6 -33.5t17 -30.5t32.5 -13q11 0 19 4t13.5 8.5t8 8zM590 -340q-64 -4 -111 14t-78 53.5t-46 87t-15 115.5v90q-10 -18 -27 -30
q-14 -11 -37.5 -19.5t-58.5 -6.5q-45 2 -81.5 23.5t-62 57t-39.5 82t-14 99.5q0 60 20 108t56.5 82t88 52t115.5 18q60 0 106.5 -5t78.5 -10q37 -7 65 -15l-10 -538q0 -45 20 -61.5t50 -16.5h20l20 -175z" />
    <glyph glyph-name="r" unicode="r" horiz-adv-x="499" 
d="M30 510h210v-150q8 31 21 58q11 23 28 45.5t40 32.5q32 14 62.5 15t54.5 -2q28 -4 53 -13l-20 -200h-19q-10 5 -26 13.5t-46 7.5q-48 0 -77.5 -21.5t-45 -47t-20.5 -46.5t-5 -20v-192h-210v520z" />
    <glyph glyph-name="s" unicode="s" horiz-adv-x="561" 
d="M425 316l-7.5 8.5t-19 19.5t-25.5 20.5t-27 9.5q-17 1 -26 -6t-10 -18q-1 -16 16 -26.5t43.5 -20t57.5 -22t57 -32.5t42 -51t14 -78q-2 -39 -20 -70t-49.5 -53.5t-75 -34.5t-95.5 -12q-45 0 -81 8t-64 21.5t-49 30.5t-36 35q-35 41 -50 95l190 50q2 -13 7 -24
q4 -9 11.5 -17t18.5 -9q29 -3 31 20q1 17 -15 25.5t-41 15.5t-54.5 15.5t-55 25t-42.5 44.5t-17 73q0 51 21 85.5t56.5 55.5t81 30.5t94.5 9.5q57 0 101 -18.5t73 -41.5q34 -26 60 -60z" />
    <glyph glyph-name="t" unicode="t" horiz-adv-x="465" 
d="M20 482h55v88l201 30l-1 -118l105 -2l10 -180l-115 2v-94q1 -14 5 -25q4 -10 12 -17.5t23 -7.5q19 0 35.5 4.5t28.5 10.5q14 6 26 15l40 -180q-19 -11 -43 -20q-21 -8 -50 -14t-67 -6q-60 0 -100.5 19t-64.5 51t-34.5 73.5t-10.5 86.5v104h-55v180z" />
    <glyph glyph-name="u" unicode="u" horiz-adv-x="570" 
d="M275 -50q-121 0 -183 69t-62 212l1 263l210 -10v-243q0 -15 1 -31.5t5.5 -29.5t13.5 -21.5t24 -8.5t23.5 8.5t13 21.5t6 29.5t1.5 31.5v243l210 10l1 -263q0 -71 -20.5 -124t-56 -88t-84 -52t-104.5 -17z" />
    <glyph glyph-name="v" unicode="v" horiz-adv-x="581" 
d="M241 490l58 -180l58 170l224 3l-196 -494l-186 1l-199 494z" />
    <glyph glyph-name="w" unicode="w" horiz-adv-x="724" 
d="M0 482l219 18l64 -212l80 132l75 -132l64 201l222 -7l-168 -492h-110l-87 170l-90 -170h-132z" />
    <glyph glyph-name="x" unicode="x" horiz-adv-x="586" 
d="M420 246l156 -246l-237 -10l-51 79l-43 -69h-245l165 236l-151 234l235 20l55 -90l65 100l217 -20z" />
    <glyph glyph-name="y" unicode="y" horiz-adv-x="546" 
d="M225 10q-29 -11 -58.5 -8t-55.5 19t-45 43.5t-27 65.5l-39 350h220l24 -280q0 -17 5 -27t10 -15q6 -6 15 -8l61 340l211 -29q-33 -159 -59 -264t-43 -169q-20 -75 -35 -118q-17 -64 -47.5 -112t-73 -77t-96 -37.5t-115.5 8.5l-57 17l55 167l19 -4q35 -7 63.5 3t43.5 55z
" />
    <glyph glyph-name="z" unicode="z" horiz-adv-x="542" 
d="M30 470q12 25 33 45q18 17 48.5 31t75.5 14q35 0 58 -7.5t38.5 -18.5t26 -24t20 -24t20.5 -18.5t29 -7.5q22 0 38.5 6.5t28.5 16t19.5 19.5t11.5 18h22l2 -190l-182 -140l183 -20l10 -190h-460v160l267 220q-11 -13 -23 -22q-11 -8 -24 -14t-28 -4q-17 1 -27.5 9
t-20.5 17t-22 16.5t-31 7.5q-26 0 -43.5 -11t-28.5 -24q-12 -16 -19 -35h-20z" />
    <glyph glyph-name="braceleft" unicode="{" horiz-adv-x="449" 
d="M449 -144h-160q-34 0 -64.5 12t-53.5 36t-36 59.5t-11 82.5q2 33 2.5 51.5t1.5 26.5q1 10 1 12q0 38 -15 51t-44 13h-40l-10 190l20 -2q8 -1 14 -1.5t7 -0.5q29 0 44 13t15 51q0 2 -1 12q-1 8 -1.5 26t-2.5 52q-2 47 13 84t41.5 61.5t63 36t77.5 8.5l130 -10v-190
q-11 0 -22 1q-10 0 -22.5 0.5t-25.5 0.5q-35 0 -44 -23.5t-6 -58.5v-50q0 -38 -14 -58.5t-31 -31.5q-20 -12 -45 -15q29 -3 51 -15q19 -11 34.5 -31.5t14.5 -58.5l-1 -54q-1 -35 10 -56t30 -26q15 -5 29.5 -8t25.5 -5l25 -5v-180z" />
    <glyph glyph-name="bar" unicode="|" horiz-adv-x="380" 
d="M80 760l220 -10v-860l-220 10v860z" />
    <glyph glyph-name="braceright" unicode="}" horiz-adv-x="449" 
d="M0 738h160q34 0 64.5 -12t53.5 -36t36 -59.5t11 -82.5q-2 -34 -2.5 -52t-1.5 -26q-1 -10 -1 -12q0 -38 15 -51t44 -13h40l10 -190l-20 2q-4 0 -7.5 0.5t-6.5 0.5q-4 0 -7 1q-29 0 -44 -13t-15 -51q0 -2 1 -12q1 -8 1.5 -26.5t2.5 -51.5q2 -47 -13 -84t-41.5 -61.5
t-63 -36t-77.5 -8.5l-130 10v190q11 -1 22 -1q10 -1 22 -1h26q35 0 44 23.5t6 58.5v50q0 38 14 58.5t31 31.5q19 12 45 15q-29 3 -51 15q-19 11 -34.5 31.5t-14.5 58.5l1 54q1 35 -10 56t-30 26l-30 7.5t-25 5.5l-25 5v180z" />
    <glyph glyph-name="asciitilde" unicode="~" horiz-adv-x="542" 
d="M40 222l5 89q3 58 35 93t80 35q24 0 41 -10t30.5 -22t25 -22t23.5 -10q22 0 37 12t23 47l162 -21l-7 -95q-2 -29 -15 -52.5t-32 -40.5t-42.5 -26t-47.5 -9q-28 0 -43.5 7.5t-26 16.5t-19 16.5t-20.5 7.5q-24 0 -36.5 -10.5t-18.5 -37.5z" />
    <glyph glyph-name="nonbreakingspace" unicode="&#xa0;" horiz-adv-x="210" 
 />
    <glyph glyph-name="exclamdown" unicode="&#xa1;" horiz-adv-x="375" 
d="M60 -298l40 520h155l60 -530zM78 379q0 21 8 39t21.5 32t32 22t38.5 8q21 0 39 -8t31.5 -22t21.5 -32t8 -39q0 -20 -8 -38t-21.5 -31.5t-31.5 -21.5t-39 -8q-20 0 -38.5 8t-32 21.5t-21.5 31.5t-8 38z" />
    <glyph glyph-name="cent" unicode="&#xa2;" horiz-adv-x="523" 
d="M382 302q-9 7 -15.5 12t-13.5 8.5t-17 5.5t-25 2q-24 0 -47 -23t-23 -67q0 -45 25 -62.5t55 -17.5q19 0 33.5 5.5t26 14t21 19t18.5 21.5l103 -131q-29 -37 -61.5 -64.5t-80.5 -41.5v-113l-203 17l1 106q-32 12 -60 33t-49.5 50t-34.5 67.5t-14 86.5q-1 52 11.5 94
t34 73.5t51 54t63.5 36.5v112l203 -17l-2 -84q29 -9 49.5 -22.5t33.5 -25.5q15 -14 25 -29z" />
    <glyph glyph-name="sterling" unicode="&#xa3;" horiz-adv-x="560" 
d="M30 190h80q14 11 21 25t11 26q4 14 5 29h-71v180h64v31q0 45 10.5 86.5t34.5 73.5t64.5 51t100.5 19q38 0 67 -6t50 -14q24 -9 43 -20l-40 -180q-12 8 -26 15q-12 5 -28.5 10t-35.5 5q-15 0 -23 -8t-12 -17q-4 -11 -5 -25v-21h126l-10 -180h-116q-1 -18 -5 -33
q-4 -14 -12 -26.5t-23 -20.5h230v-190h-500v190z" />
    <glyph glyph-name="currency" unicode="&#xa4;" horiz-adv-x="664" 
d="M30 220l61 1v29h-66v200l70 -4v244l270 10q90 4 148 -12t91.5 -47t46.5 -75t13 -96q0 -45 -13.5 -85t-42.5 -70t-74.5 -47.5t-109.5 -17.5l-96 3v-26l123 3l-1 -160h-123v-70l-238 -14v84h-69zM326 445q10 -2 22 -3q11 -1 24.5 -1.5t28.5 -0.5q20 0 31.5 8.5t11.5 23.5
q0 23 -15 27t-28 4l-76 -3z" />
    <glyph glyph-name="yen" unicode="&#xa5;" horiz-adv-x="705" 
d="M143 340h76l-219 350l249 20l117 -212l89 212l250 -10l-212 -360h78v-130h-102l-1 -23h102v-130h-106l-2 -57h-221v57h-99v130h99v23h-98v130z" />
    <glyph glyph-name="brokenbar" unicode="&#xa6;" horiz-adv-x="392" 
d="M88 760l220 -10l-8 -370l-220 10zM88 280l220 -10l4 -374l-220 10z" />
    <glyph glyph-name="section" unicode="&#xa7;" horiz-adv-x="605" 
d="M449 502l-7.5 8.5t-19 19.5t-25.5 20.5t-27 9.5q-17 1 -26 -6t-10 -18q-1 -17 16 -27t43.5 -19.5t57.5 -22t57 -32.5t42 -51t14 -78q-5 -77 -67 -122q25 -20 40 -50.5t13 -76.5q-2 -39 -20 -70t-49.5 -53.5t-75 -34.5t-95.5 -12q-45 0 -81 8t-64 21.5t-49 30.5t-36 35
q-35 41 -50 95l190 50q2 -13 7 -24q4 -9 11.5 -17t18.5 -9q29 -3 31 20q1 16 -14 24.5t-38.5 15.5t-51.5 14.5t-53.5 22t-44 38.5t-22.5 63q-4 32 0 55t13.5 40.5t24 31.5t30.5 29q-24 17 -39.5 43.5t-15.5 70.5q0 51 21 85.5t56.5 55.5t81 30.5t94.5 9.5q57 0 101 -18.5
t73 -41.5q34 -26 60 -60zM263 370q-8 -21 -0.5 -39.5t25.5 -32t43.5 -21t51.5 -7.5q-4 19 -16 35t-28.5 29t-36.5 22t-39 14z" />
    <glyph glyph-name="dieresis" unicode="&#xa8;" horiz-adv-x="482" 
d="M30 626q0 38 26.5 64t63.5 26q19 0 35.5 -7t29 -19t19.5 -28.5t7 -35.5t-7 -35.5t-19.5 -29t-29 -19.5t-35.5 -7q-37 0 -63.5 26.5t-26.5 64.5zM271 630q0 38 26.5 64t63.5 26q19 0 35.5 -7t29 -19t19.5 -28.5t7 -35.5t-7 -35.5t-19.5 -29t-29 -19.5t-35.5 -7
q-37 0 -63.5 26.5t-26.5 64.5z" />
    <glyph glyph-name="copyright" unicode="&#xa9;" horiz-adv-x="924" 
d="M472 40q50 0 88 13t66 34t46.5 47.5t30 54.5t17 53.5t6.5 45.5q2 38 -8 87t-38.5 92.5t-78.5 73t-129 29.5t-132.5 -27t-85.5 -68.5t-45 -91t-11 -95.5q1 -29 16 -71.5t47 -81.5t84 -67t127 -28zM462 -90q-75 2 -147 25t-130.5 66.5t-97 108t-45.5 151.5q-9 102 23 188
t91.5 147.5t139.5 94.5t166 29q86 4 166 -29t139.5 -94.5t91.5 -147.5t23 -188q-8 -87 -44.5 -153.5t-93.5 -111t-130 -66.5t-152 -20zM536 350q-12 9 -19 13.5t-27 4.5q-16 0 -31 -14.5t-15 -43.5t16 -40.5t36 -11.5q25 0 39 12.5t26 26.5l67 -85q-14 -17 -28 -31
t-32 -24.5t-40 -16t-52 -5.5t-60.5 9.5t-55.5 30t-41.5 52t-17.5 76.5q-1 49 15.5 84t43 57t59.5 32t66 10t56 -9t37 -20q17 -13 28 -29z" />
    <glyph glyph-name="ordfeminine" unicode="&#xaa;" horiz-adv-x="416" 
d="M65 652q18 16 39 29q18 11 43 20t56 9q56 0 86.5 -22t44.5 -53t16 -66t1 -60q-1 -18 2.5 -28.5t10 -15.5t15 -6t17.5 -1l-3 -78q-35 -9 -66 -11q-26 -2 -53.5 5t-41.5 31q-11 -17 -34.5 -31.5t-58.5 -11.5q-15 1 -32.5 5t-32 14.5t-24 28.5t-9.5 45q0 35 16 57t41 34.5
t54.5 18t56.5 8.5q1 5 -1 13.5t-18 11.5q-15 2 -29 -1.5t-25.5 -9t-19 -11t-10.5 -8.5zM213 490q-12 -2 -26 -6t-14 -14q0 -8 7 -13.5t18 -1.5q4 2 6.5 2t4.5 1q2 0 2 1q-1 -1 -1 3q0 2 3 28z" />
    <glyph glyph-name="guillemotleft" unicode="&#xab;" horiz-adv-x="638" 
d="M352 440l-113 -191l113 -209h-190l-122 206l122 204zM598 435l-113 -191l113 -209h-190l-122 206l122 204z" />
    <glyph glyph-name="logicalnot" unicode="&#xac;" horiz-adv-x="500" 
d="M40 399h420v-269l-170 -10l-4 104l-246 6v169z" />
    <glyph glyph-name="uni00AD" unicode="&#xad;" horiz-adv-x="500" 
d="M40 400h420v-180l-420 10v170z" />
    <glyph glyph-name="registered" unicode="&#xae;" horiz-adv-x="924" 
d="M472 40q50 0 88 13t66 34t46.5 47.5t30 54.5t17 53.5t6.5 45.5q2 38 -8 87t-38.5 92.5t-78.5 73t-129 29.5t-132.5 -27t-85.5 -68.5t-45 -91t-11 -95.5q1 -29 16 -71.5t47 -81.5t84 -67t127 -28zM462 -90q-75 2 -147 25t-130.5 66.5t-97 108t-45.5 151.5q-9 102 23 188
t91.5 147.5t139.5 94.5t166 29q86 4 166 -29t139.5 -94.5t91.5 -147.5t23 -188q-8 -87 -44.5 -153.5t-93.5 -111t-130 -66.5t-152 -20zM482 477q41 2 69 -5.5t45.5 -21.5t25 -34.5t7.5 -44.5q0 -26 -6.5 -42t-14.5 -25q-10 -11 -21 -16v-5l64 -133h-142l-53 120l-14 1
l-1 -121l-125 1l1 323zM441 360l10 -2t11 -1h14q15 0 15 13q0 8 -5 10t-11 2l-35 -2z" />
    <glyph glyph-name="macron" unicode="&#xaf;" horiz-adv-x="343" 
d="M30 707l283 -7v-140l-283 17v130z" />
    <glyph glyph-name="degree" unicode="&#xb0;" horiz-adv-x="380" 
d="M340 569q0 -31 -10 -58t-29 -47t-46.5 -31.5t-62.5 -11.5q-33 0 -61 12t-48 32t-31.5 46.5t-11.5 57.5q0 37 12 65t33 46t48.5 27t58.5 9t58 -11.5t47 -31.5t31.5 -47t11.5 -57zM237 572q0 15 -10 32t-33 17q-25 0 -35.5 -14.5t-8.5 -34.5q2 -22 14 -32.5t30 -10.5
q20 0 31.5 14t11.5 29z" />
    <glyph glyph-name="plusminus" unicode="&#xb1;" horiz-adv-x="504" 
d="M40 170h120l3 99l-119 3v170h123l3 128h170v-128h124v-180l-124 3v-95h120v-180l-420 10v170z" />
    <glyph glyph-name="twosuperior" unicode="&#xb2;" horiz-adv-x="372" 
d="M30 652q11 19 29 34q15 13 39.5 24.5t60.5 13.5q23 2 53 -4t57 -21.5t45 -41.5t17 -64q-1 -35 -19.5 -59.5t-41.5 -38.5q-26 -18 -60 -27h118l-6 -107l-280 5l3 101q37 18 67 36q25 16 46 36t21 42q0 28 -25 28q-12 0 -21.5 -5.5t-16.5 -11.5q-8 -7 -13 -16l-36 38
q-7 7 -13.5 14t-11.5 12l-12 12v0z" />
    <glyph glyph-name="threesuperior" unicode="&#xb3;" horiz-adv-x="393" 
d="M133 488l2 67q15 -2 27 0q10 2 18.5 6t7.5 13q-1 8 -8 11t-16 3q-28 0 -40.5 -9t-12.5 -8l-72 66q18 18 42 32q20 12 50 22.5t70 12.5q39 1 65 -8t42.5 -23t23.5 -31.5t7 -33.5q0 -25 -8.5 -38.5t-19.5 -20.5q-12 -8 -27 -11v-5q19 -2 34 -12q13 -8 24 -25t11 -46
q0 -20 -7.5 -39.5t-25 -35t-45 -25.5t-66.5 -10q-47 -4 -80.5 8.5t-55.5 29.5q-26 19 -43 44l90 59q8 -8 20.5 -17.5t24.5 -9.5q11 0 20 1.5t9 14.5q-1 9 -8.5 12t-15.5 4z" />
    <glyph glyph-name="acute" unicode="&#xb4;" horiz-adv-x="322" 
d="M179 755l113 -115l-190 -130q-20 25 -35 44q-14 17 -24.5 31t-12.5 15z" />
    <glyph glyph-name="mu" unicode="&#xb5;" horiz-adv-x="579" 
d="M36 510h3l220 -10v-243v-20.5t3 -29.5t11.5 -27t25.5 -13q11 -1 18.5 3t12 8.5t7 8l2.5 3.5l-1 313h210l1 -513h-210l1 45q0 -6 -9.5 -17t-23.5 -16.5t-29.5 -0.5t-27.5 29v-230l-220 -20z" />
    <glyph glyph-name="paragraph" unicode="&#xb6;" horiz-adv-x="590" 
d="M0 520q0 52 21 87t55 55.5t77 29t87 8.5h320l10 -200l-130 -10v-720l-220 30l5 532q-39 0 -79 7t-72.5 27t-53 57t-20.5 97z" />
    <glyph glyph-name="periodcentered" unicode="&#xb7;" horiz-adv-x="210" 
d="M5 351q0 20 8 38t21.5 31.5t32 21.5t38.5 8q21 0 39 -8t31.5 -21.5t21.5 -31.5t8 -38q0 -21 -8 -39t-21.5 -32t-31.5 -22t-39 -8q-20 0 -38.5 8t-32 22t-21.5 32t-8 39z" />
    <glyph glyph-name="cedilla" unicode="&#xb8;" horiz-adv-x="322" 
d="M218 21l-19 -54q33 -3 52 -17.5t28.5 -33t11 -37.5t0.5 -31q-4 -44 -36 -72t-78 -31q-40 -3 -67.5 3t-45.5 15q-21 10 -34 24l56 69l12 -8q5 -3 12 -5.5t13 -2.5q15 0 20.5 7.5t5.5 18.5q0 13 -12 20t-26 11q-17 4 -38 6q13 36 23 63q8 23 14.5 42.5t5.5 18.5z" />
    <glyph glyph-name="onesuperior" unicode="&#xb9;" horiz-adv-x="290" 
d="M250 700v-330l-144 -9l4 179q-4 -6 -12 -11l-16 -10q-10 -5 -21 -9l-31 90q19 10 36 24q14 12 28 31t19 47z" />
    <glyph glyph-name="ordmasculine" unicode="&#xba;" horiz-adv-x="398" 
d="M204 710q22 0 50.5 -9.5t53.5 -30.5t42.5 -55t17.5 -83q0 -44 -14 -75t-37.5 -51t-54 -29.5t-62.5 -9.5q-37 0 -68 10t-53.5 31.5t-35.5 55t-13 81.5q0 52 19 84.5t46 50.5t57 24t52 6zM196 582q-15 0 -19.5 -16.5t-4.5 -33.5q0 -25 4.5 -37.5t19.5 -12.5q13 0 19.5 11
t6.5 39q0 30 -7 40t-19 10z" />
    <glyph glyph-name="guillemotright" unicode="&#xbb;" horiz-adv-x="638" 
d="M476 450l122 -204l-122 -206h-190l113 209l-113 191zM230 445l122 -204l-122 -206h-190l113 209l-113 191z" />
    <glyph glyph-name="onequarter" unicode="&#xbc;" horiz-adv-x="805" 
d="M479 697l190 3l-369 -700l-189 -10zM260 700v-330l-144 -9l4 179q-4 -6 -12 -11l-16 -10q-10 -5 -21 -9l-31 90q19 10 36 24q14 12 28 31t19 47zM740 336v-182h41l4 -90h-45v-64l-140 5l-2 60h-150l-2 47l134 225zM580 160h25l2 61z" />
    <glyph glyph-name="onehalf" unicode="&#xbd;" horiz-adv-x="833" 
d="M469 697l190 3l-369 -700l-189 -10zM250 700v-330l-144 -9l4 179q-4 -6 -12 -11l-16 -10q-10 -5 -21 -9l-31 90q19 10 36 24q14 12 28 31t19 47zM491 288q11 19 29 34q15 13 39.5 24.5t60.5 13.5q23 2 53 -4t57 -21.5t45 -41.5t17 -64q-1 -35 -19.5 -59.5t-41.5 -38.5
q-26 -18 -60 -27h118l-6 -107l-280 5l3 101q37 18 67 36q25 16 46 36t21 42q0 28 -25 28q-12 0 -21.5 -5.5t-16.5 -11.5q-8 -7 -13 -16l-36 38q-7 7 -13.5 14t-11.5 12z" />
    <glyph glyph-name="threequarters" unicode="&#xbe;" horiz-adv-x="878" 
d="M552 697l190 3l-369 -700l-189 -10zM813 336v-182h41l4 -90h-45v-64l-140 5l-2 60h-150l-2 47l134 225zM653 160h25l2 61zM133 488l2 67q15 -2 27 0q10 2 18.5 6t7.5 13q-1 8 -8 11t-16 3q-28 0 -40.5 -9t-12.5 -8l-72 66q18 18 42 32q20 12 50 22.5t70 12.5q39 1 65 -8
t42.5 -23t23.5 -31.5t7 -33.5q0 -25 -8.5 -38.5t-19.5 -20.5q-12 -8 -27 -11v-5q19 -2 34 -12q13 -8 24 -25t11 -46q0 -20 -7.5 -39.5t-25 -35t-45 -25.5t-66.5 -10q-47 -4 -80.5 8.5t-55.5 29.5q-26 19 -43 44l90 59q8 -8 20.5 -17.5t24.5 -9.5q11 0 20 1.5t9 14.5
q-1 9 -8.5 12t-15.5 4z" />
    <glyph glyph-name="questiondown" unicode="&#xbf;" horiz-adv-x="635" 
d="M30 -91q0 45 15 77t37 56t48 44t48 41.5t37 48t15 64.5l210 -10q0 -57 -11.5 -95t-28.5 -63t-37.5 -41t-38.5 -30.5t-31 -30t-15 -40.5q0 -30 26 -44.5t56 -14.5q24 0 43.5 10.5t33.5 24.5q16 15 28 35q42 -34 75 -60q14 -11 27 -22t23.5 -19.5t17.5 -13.5l7 -5
q-22 -39 -59 -71q-32 -27 -82.5 -51t-123.5 -29q-49 -3 -105 7t-104 38t-79.5 75.5t-31.5 118.5zM440 379q0 -20 -8 -38t-21.5 -31.5t-32 -21.5t-38.5 -8q-21 0 -39 8t-31.5 21.5t-21.5 31.5t-8 38q0 21 8 39t21.5 32t31.5 22t39 8q20 0 38.5 -8t32 -22t21.5 -32t8 -39z" />
    <glyph glyph-name="Agrave" unicode="&#xc0;" horiz-adv-x="726" 
d="M434 880q-2 -1 -13.5 -15t-24.5 -31q-16 -19 -34 -44l-190 130l113 115zM0 0l292 710h141l293 -710l-241 -10l-42 110h-158l-40 -110zM332 260h61l-31 90z" />
    <glyph glyph-name="Aacute" unicode="&#xc1;" horiz-adv-x="726" 
d="M0 0l292 710h141l293 -710l-241 -10l-42 110h-158l-40 -110zM332 260h61l-31 90zM436 1032l113 -115l-190 -130q-20 25 -35 44q-14 17 -24.5 31t-12.5 15z" />
    <glyph glyph-name="Acircumflex" unicode="&#xc2;" horiz-adv-x="726" 
d="M0 0l292 710h141l293 -710l-241 -10l-42 110h-158l-40 -110zM332 260h61l-31 90zM400 780l-18 34q-7 13 -12 23.5t-5 11.5q-1 -6 -4 -11q-2 -5 -5 -11t-5 -13q-6 -16 -14 -35l-160 5l136 210h100l130 -214h-143z" />
    <glyph glyph-name="Atilde" unicode="&#xc3;" horiz-adv-x="726" 
d="M0 0l292 710h141l293 -710l-241 -10l-42 110h-158l-40 -110zM332 260h61l-31 90zM187 810l5 87q2 45 26.5 64t62.5 19q19 0 35 -8t29.5 -17t25 -17t20.5 -8q12 0 18.5 9.5t12.5 36.5l127 -16l-5 -75q-2 -23 -12 -41t-25 -31.5t-33.5 -20.5t-37.5 -7q-22 0 -35 6t-22.5 13
t-16.5 13t-17 6q-19 0 -25.5 -8.5t-11.5 -29.5z" />
    <glyph glyph-name="Adieresis" unicode="&#xc4;" horiz-adv-x="726" 
d="M0 0l292 710h141l293 -710l-241 -10l-42 110h-158l-40 -110zM332 260h61l-31 90zM152 875q0 38 26.5 64t63.5 26q19 0 35.5 -7t29 -19t19.5 -28.5t7 -35.5t-7 -35.5t-19.5 -29t-29 -19.5t-35.5 -7q-37 0 -63.5 26.5t-26.5 64.5zM393 879q0 38 26.5 64t63.5 26
q19 0 35.5 -7t29 -19t19.5 -28.5t7 -35.5t-7 -35.5t-19.5 -29t-29 -19.5t-35.5 -7q-37 0 -63.5 26.5t-26.5 64.5z" />
    <glyph glyph-name="Aring" unicode="&#xc5;" horiz-adv-x="726" 
d="M0 0l292 710h141l293 -710l-241 -10l-42 110h-158l-40 -110zM332 260h61l-31 90zM493 916q0 -26 -8.5 -49t-24.5 -40.5t-39.5 -27t-53.5 -9.5q-28 0 -52 10t-41 27t-27 40t-10 49q0 32 10.5 56t28.5 39.5t41.5 23t49.5 7.5t49 -10t40 -27t27 -40t10 -49zM405 919
q0 13 -8.5 27.5t-27.5 14.5q-22 0 -31 -12.5t-7 -29.5q2 -19 12 -28t26 -9q17 0 26.5 12t9.5 25z" />
    <glyph glyph-name="AE" unicode="&#xc6;" horiz-adv-x="990" 
d="M940 720l-10 -200l-234 -9l1 -60l203 -5l-4 -186l-210 7v-56l274 -1l-6 -221l-498 12v99h-171l-40 -110l-245 10l292 710zM354 300l96 -10l10 190h-44z" />
    <glyph glyph-name="Ccedilla" unicode="&#xc7;" 
d="M526 490q-15 17 -38 28.5t-72 11.5q-60 0 -100 -50t-40 -141q0 -37 10.5 -66.5t29.5 -50t44.5 -31.5t55.5 -11t54 8.5t43 21.5t34.5 29t28.5 31l147 -133q-23 -30 -50 -57.5t-61 -49.5t-76.5 -37.5t-95.5 -19.5l-13 -37q33 -3 52 -17.5t28.5 -33t11 -37.5t0.5 -31
q-4 -44 -36 -72t-78 -31q-40 -3 -67.5 3t-45.5 15q-21 10 -34 24l56 69l12 -8q5 -3 12 -5.5t13 -2.5q15 0 20.5 7.5t5.5 18.5q0 13 -12 20t-26 11q-17 4 -38 6l14 38q6 16 12 34t11 32q-57 9 -109.5 34t-94 69.5t-67 108.5t-26.5 150q-2 106 29.5 180.5t84.5 121.5t121.5 68
t139.5 21q72 -1 121 -20.5t81 -42.5q36 -27 59 -62z" />
    <glyph glyph-name="Egrave" unicode="&#xc8;" horiz-adv-x="651" 
d="M431 880q-2 -1 -13.5 -15t-24.5 -31q-16 -19 -34 -44l-190 130l113 115zM601 720l-10 -200l-291 -20l1 -60l260 6l-4 -186l-267 -4v-56l331 10l-6 -221l-555 1v710z" />
    <glyph glyph-name="Eacute" unicode="&#xc9;" horiz-adv-x="651" 
d="M601 720l-10 -200l-291 -20l1 -60l260 6l-4 -186l-267 -4v-56l331 10l-6 -221l-555 1v710zM387 1038l113 -115l-190 -130q-20 25 -35 44q-14 17 -24.5 31t-12.5 15z" />
    <glyph glyph-name="Ecircumflex" unicode="&#xca;" horiz-adv-x="651" 
d="M601 720l-10 -200l-291 -20l1 -60l260 6l-4 -186l-267 -4v-56l331 10l-6 -221l-555 1v710zM375 781l-18 34q-7 13 -12 23.5t-5 11.5q-1 -6 -4 -11q-2 -5 -5 -11t-5 -13q-6 -16 -14 -35l-160 5l136 210h100l130 -214h-143z" />
    <glyph glyph-name="Edieresis" unicode="&#xcb;" horiz-adv-x="651" 
d="M601 720l-10 -200l-291 -20l1 -60l260 6l-4 -186l-267 -4v-56l331 10l-6 -221l-555 1v710zM121 877q0 38 26.5 64t63.5 26q19 0 35.5 -7t29 -19t19.5 -28.5t7 -35.5t-7 -35.5t-19.5 -29t-29 -19.5t-35.5 -7q-37 0 -63.5 26.5t-26.5 64.5zM362 881q0 38 26.5 64t63.5 26
q19 0 35.5 -7t29 -19t19.5 -28.5t7 -35.5t-7 -35.5t-19.5 -29t-29 -19.5t-35.5 -7q-37 0 -63.5 26.5t-26.5 64.5z" />
    <glyph glyph-name="Igrave" unicode="&#xcc;" horiz-adv-x="352" 
d="M262 880q-2 -1 -13.5 -15t-24.5 -31q-16 -19 -34 -44l-190 130l113 115zM292 697v-687l-230 -10v714z" />
    <glyph glyph-name="Iacute" unicode="&#xcd;" horiz-adv-x="364" 
d="M290 697v-687l-230 -10v714zM251 1029l113 -115l-190 -130q-20 25 -35 44q-14 17 -24.5 31t-12.5 15z" />
    <glyph glyph-name="Icircumflex" unicode="&#xce;" horiz-adv-x="366" 
d="M303 697v-687l-230 -10v714zM224 788l-18 34q-7 13 -12 23.5t-5 11.5q-1 -6 -4 -11q-2 -5 -5 -11t-5 -13q-6 -16 -14 -35l-160 5l136 210h100l130 -214h-143z" />
    <glyph glyph-name="Idieresis" unicode="&#xcf;" horiz-adv-x="382" 
d="M310 697v-687l-230 -10v714zM-19 880q0 38 26.5 64t63.5 26q19 0 35.5 -7t29 -19t19.5 -28.5t7 -35.5t-7 -35.5t-19.5 -29t-29 -19.5t-35.5 -7q-37 0 -63.5 26.5t-26.5 64.5zM222 884q0 38 26.5 64t63.5 26q19 0 35.5 -7t29 -19t19.5 -28.5t7 -35.5t-7 -35.5t-19.5 -29
t-29 -19.5t-35.5 -7q-37 0 -63.5 26.5t-26.5 64.5z" />
    <glyph glyph-name="Eth" unicode="&#xd0;" horiz-adv-x="771" 
d="M20 452l66 -1l4 268l320 -5q79 -1 141.5 -29.5t104.5 -79.5t61 -122t11 -157q-6 -68 -33.5 -129t-74 -107t-110.5 -73.5t-145 -28.5l-285 2l3 269l-63 1v192zM320 450h90v-192h-90v-58l65 4q17 -1 37.5 11.5t38 34.5t29 52t10.5 63q-2 72 -36.5 111.5t-87.5 38.5h-56v-65
z" />
    <glyph glyph-name="Ntilde" unicode="&#xd1;" 
d="M264 0h-200l-4 703l154 -13l219 -320l10 330l220 10l-20 -710h-160l-209 280zM198 817l5 87q2 45 26.5 64t62.5 19q19 0 35 -8t29.5 -17t25 -17t20.5 -8q12 0 18.5 9.5t12.5 36.5l127 -16l-5 -75q-2 -23 -12 -41t-25 -31.5t-33.5 -20.5t-37.5 -7q-22 0 -35 6t-22.5 13
t-16.5 13t-17 6q-19 0 -25.5 -8.5t-11.5 -29.5z" />
    <glyph glyph-name="Ograve" unicode="&#xd2;" horiz-adv-x="779" 
d="M497 880q-2 -1 -13.5 -15t-24.5 -31q-16 -19 -34 -44l-190 130l113 115zM408 730q49 0 107 -20t107.5 -66t83 -120.5t33.5 -183.5q0 -98 -29 -168t-77 -115t-109 -66t-125 -21t-128 21.5t-115.5 68.5t-83.5 121t-32 179q0 77 18.5 134.5t48.5 98.5t68.5 67.5t79.5 42
t81 21.5t72 6zM389 520q-23 0 -41 -15.5t-31 -41t-20 -57.5t-7 -66q0 -38 8.5 -70.5t24.5 -56.5t38 -37.5t48 -11.5q42 2 66 47.5t24 128.5q0 52 -9 86.5t-24 55.5t-35 29.5t-42 8.5z" />
    <glyph glyph-name="Oacute" unicode="&#xd3;" horiz-adv-x="779" 
d="M408 730q49 0 107 -20t107.5 -66t83 -120.5t33.5 -183.5q0 -98 -29 -168t-77 -115t-109 -66t-125 -21t-128 21.5t-115.5 68.5t-83.5 121t-32 179q0 77 18.5 134.5t48.5 98.5t68.5 67.5t79.5 42t81 21.5t72 6zM389 520q-23 0 -41 -15.5t-31 -41t-20 -57.5t-7 -66
q0 -38 8.5 -70.5t24.5 -56.5t38 -37.5t48 -11.5q42 2 66 47.5t24 128.5q0 52 -9 86.5t-24 55.5t-35 29.5t-42 8.5zM466 1034l113 -115l-190 -130q-20 25 -35 44q-14 17 -24.5 31t-12.5 15z" />
    <glyph glyph-name="Ocircumflex" unicode="&#xd4;" horiz-adv-x="779" 
d="M408 730q49 0 107 -20t107.5 -66t83 -120.5t33.5 -183.5q0 -98 -29 -168t-77 -115t-109 -66t-125 -21t-128 21.5t-115.5 68.5t-83.5 121t-32 179q0 77 18.5 134.5t48.5 98.5t68.5 67.5t79.5 42t81 21.5t72 6zM389 520q-23 0 -41 -15.5t-31 -41t-20 -57.5t-7 -66
q0 -38 8.5 -70.5t24.5 -56.5t38 -37.5t48 -11.5q42 2 66 47.5t24 128.5q0 52 -9 86.5t-24 55.5t-35 29.5t-42 8.5zM443 785l-18 34q-7 13 -12 23.5t-5 11.5q-1 -6 -4 -11q-2 -5 -5 -11t-5 -13q-6 -16 -14 -35l-160 5l136 210h100l130 -214h-143z" />
    <glyph glyph-name="Otilde" unicode="&#xd5;" horiz-adv-x="779" 
d="M408 730q49 0 107 -20t107.5 -66t83 -120.5t33.5 -183.5q0 -98 -29 -168t-77 -115t-109 -66t-125 -21t-128 21.5t-115.5 68.5t-83.5 121t-32 179q0 77 18.5 134.5t48.5 98.5t68.5 67.5t79.5 42t81 21.5t72 6zM389 520q-23 0 -41 -15.5t-31 -41t-20 -57.5t-7 -66
q0 -38 8.5 -70.5t24.5 -56.5t38 -37.5t48 -11.5q42 2 66 47.5t24 128.5q0 52 -9 86.5t-24 55.5t-35 29.5t-42 8.5zM233 816l5 87q2 45 26.5 64t62.5 19q19 0 35 -8t29.5 -17t25 -17t20.5 -8q12 0 18.5 9.5t12.5 36.5l127 -16l-5 -75q-2 -23 -12 -41t-25 -31.5t-33.5 -20.5
t-37.5 -7q-22 0 -35 6t-22.5 13t-16.5 13t-17 6q-19 0 -25.5 -8.5t-11.5 -29.5z" />
    <glyph glyph-name="Odieresis" unicode="&#xd6;" horiz-adv-x="779" 
d="M408 730q49 0 107 -20t107.5 -66t83 -120.5t33.5 -183.5q0 -98 -29 -168t-77 -115t-109 -66t-125 -21t-128 21.5t-115.5 68.5t-83.5 121t-32 179q0 77 18.5 134.5t48.5 98.5t68.5 67.5t79.5 42t81 21.5t72 6zM389 520q-23 0 -41 -15.5t-31 -41t-20 -57.5t-7 -66
q0 -38 8.5 -70.5t24.5 -56.5t38 -37.5t48 -11.5q42 2 66 47.5t24 128.5q0 52 -9 86.5t-24 55.5t-35 29.5t-42 8.5zM189 880q0 38 26.5 64t63.5 26q19 0 35.5 -7t29 -19t19.5 -28.5t7 -35.5t-7 -35.5t-19.5 -29t-29 -19.5t-35.5 -7q-37 0 -63.5 26.5t-26.5 64.5zM430 884
q0 38 26.5 64t63.5 26q19 0 35.5 -7t29 -19t19.5 -28.5t7 -35.5t-7 -35.5t-19.5 -29t-29 -19.5t-35.5 -7q-37 0 -63.5 26.5t-26.5 64.5z" />
    <glyph glyph-name="multiply" unicode="&#xd7;" horiz-adv-x="484" 
d="M454 395l-90 -90l87 -88l-127 -127l-85 90l-82 -82l-127 127l86 83l-82 86l120 120l87 -87l93 88z" />
    <glyph glyph-name="Oslash" unicode="&#xd8;" horiz-adv-x="830" 
d="M764 373q0 -8 0.5 -16.5t0.5 -16.5q0 -98 -29 -168t-77 -115t-109 -66t-125 -21q-41 0 -82 8.5t-79 26.5t-72 45.5t-60 66.5l-92 -37l-30 200l59 20q-3 28 -3 60q0 77 18.5 134.5t48.5 98.5t68.5 67.5t79.5 42t81 21.5t72 6q35 0 74.5 -10t78.5 -32t74 -57t60 -85l90 37
l9 -183zM415 520q-18 0 -33.5 -10t-27.5 -27t-20.5 -40t-12.5 -48l182 69q-15 31 -38.5 43.5t-49.5 12.5zM435 164q32 2 54 30t31 80l-166 -67q15 -21 35.5 -33t45.5 -10z" />
    <glyph glyph-name="Ugrave" unicode="&#xd9;" horiz-adv-x="740" 
d="M460 880q-2 -1 -13.5 -15t-24.5 -31q-16 -19 -34 -44l-190 130l113 115zM290 680l5 -400q0 -28 9 -50q8 -19 25 -34.5t51 -14.5q22 0 36 8t21.5 20.5t10 28t2.5 32.5l-1 420l226 6l5 -426q0 -60 -15 -114.5t-49.5 -95.5t-92 -65.5t-143.5 -24.5t-147 24.5t-99.5 66.5
t-56 98.5t-17.5 120.5v420z" />
    <glyph glyph-name="Uacute" unicode="&#xda;" horiz-adv-x="740" 
d="M290 680l5 -400q0 -28 9 -50q8 -19 25 -34.5t51 -14.5q22 0 36 8t21.5 20.5t10 28t2.5 32.5l-1 420l226 6l5 -426q0 -60 -15 -114.5t-49.5 -95.5t-92 -65.5t-143.5 -24.5t-147 24.5t-99.5 66.5t-56 98.5t-17.5 120.5v420zM445 1038l113 -115l-190 -130q-20 25 -35 44
q-14 17 -24.5 31t-12.5 15z" />
    <glyph glyph-name="Ucircumflex" unicode="&#xdb;" horiz-adv-x="740" 
d="M290 680l5 -400q0 -28 9 -50q8 -19 25 -34.5t51 -14.5q22 0 36 8t21.5 20.5t10 28t2.5 32.5l-1 420l226 6l5 -426q0 -60 -15 -114.5t-49.5 -95.5t-92 -65.5t-143.5 -24.5t-147 24.5t-99.5 66.5t-56 98.5t-17.5 120.5v420zM417 790l-18 34q-7 13 -12 23.5t-5 11.5
q-1 -6 -4 -11q-2 -5 -5 -11t-5 -13q-6 -16 -14 -35l-160 5l136 210h100l130 -214h-143z" />
    <glyph glyph-name="Udieresis" unicode="&#xdc;" horiz-adv-x="740" 
d="M290 680l5 -400q0 -28 9 -50q8 -19 25 -34.5t51 -14.5q22 0 36 8t21.5 20.5t10 28t2.5 32.5l-1 420l226 6l5 -426q0 -60 -15 -114.5t-49.5 -95.5t-92 -65.5t-143.5 -24.5t-147 24.5t-99.5 66.5t-56 98.5t-17.5 120.5v420zM167 882q0 38 26.5 64t63.5 26q19 0 35.5 -7
t29 -19t19.5 -28.5t7 -35.5t-7 -35.5t-19.5 -29t-29 -19.5t-35.5 -7q-37 0 -63.5 26.5t-26.5 64.5zM408 886q0 38 26.5 64t63.5 26q19 0 35.5 -7t29 -19t19.5 -28.5t7 -35.5t-7 -35.5t-19.5 -29t-29 -19.5t-35.5 -7q-37 0 -63.5 26.5t-26.5 64.5z" />
    <glyph glyph-name="Yacute" unicode="&#xdd;" horiz-adv-x="705" 
d="M0 690l249 20l117 -212l89 212l250 -10l-233 -397l-10 -303h-221l1 303zM420 1034l113 -115l-190 -130q-20 25 -35 44q-14 17 -24.5 31t-12.5 15z" />
    <glyph glyph-name="Thorn" unicode="&#xde;" horiz-adv-x="648" 
d="M70 760l230 -17l-1 -71q49 -3 107 -20.5t107 -55.5t81.5 -99t32.5 -151q0 -88 -31 -148t-79.5 -97.5t-108 -55.5t-117.5 -21l-1 -44l-230 -10zM387 346q-1 50 -27 79t-64 36l-3 -241q18 3 35 11t30.5 22.5t21 37t7.5 55.5z" />
    <glyph glyph-name="germandbls" unicode="&#xdf;" horiz-adv-x="646" 
d="M466 380q45 -9 80 -33q30 -21 54.5 -60.5t24.5 -106.5q0 -38 -15 -72t-43.5 -60.5t-71.5 -42t-99 -15.5h-115v204l75 -5q11 -1 20 2q8 2 14 8.5t7 19.5q1 20 -15 30.5t-33 10.5l-68 1v183l25 -1q27 -2 39 13t11 40q0 18 -6 29.5t-15 18t-19.5 9t-19.5 2.5
q-23 0 -36.5 -17.5t-13.5 -62.5q-1 -133 -1 -238v-87.5v-75.5v-53.5t1 -20.5l-216 -15v495q0 37 7.5 78.5t30.5 76.5t65.5 59t112.5 28h75q54 -1 97.5 -15t74 -38t47 -54.5t16.5 -64.5q0 -68 -26 -106.5t-64 -53.5v-10z" />
    <glyph glyph-name="agrave" unicode="&#xe0;" horiz-adv-x="589" 
d="M393 671q-2 -1 -13.5 -15t-24.5 -31q-16 -19 -34 -44l-190 130l113 115zM62 456q28 23 63 40q30 14 72.5 25t93.5 8q55 -4 93 -20.5t62 -42t37 -57t18 -64.5t4.5 -66t-1.5 -61q-2 -31 1 -48t10 -25t18 -9.5t26 -1.5l10 -131q-48 -15 -91 -18q-18 -1 -37.5 0.5t-38 8.5
t-35 19t-28.5 32q-10 -14 -24.5 -28t-33.5 -24.5t-43.5 -16t-53.5 -3.5q-25 1 -54 8.5t-53 25t-40 47t-16 75.5q0 58 27 92t68.5 53t90.5 26.5t94 12.5q1 4 1 12t-3 16t-10 15t-20 10q-25 3 -48 -2.5t-42 -15t-32 -19t-17 -13.5zM304 214q-45 -12 -60.5 -31t-12.5 -35
q3 -14 14 -20t28 -2q13 3 22 5.5t9 3.5q-1 4 -2 9t-1 11v16z" />
    <glyph glyph-name="aacute" unicode="&#xe1;" horiz-adv-x="589" 
d="M62 456q28 23 63 40q30 14 72.5 25t93.5 8q55 -4 93 -20.5t62 -42t37 -57t18 -64.5t4.5 -66t-1.5 -61q-2 -31 1 -48t10 -25t18 -9.5t26 -1.5l10 -131q-48 -15 -91 -18q-18 -1 -37.5 0.5t-38 8.5t-35 19t-28.5 32q-10 -14 -24.5 -28t-33.5 -24.5t-43.5 -16t-53.5 -3.5
q-25 1 -54 8.5t-53 25t-40 47t-16 75.5q0 58 27 92t68.5 53t90.5 26.5t94 12.5q1 4 1 12t-3 16t-10 15t-20 10q-25 3 -48 -2.5t-42 -15t-32 -19t-17 -13.5zM304 214q-45 -12 -60.5 -31t-12.5 -35q3 -14 14 -20t28 -2q13 3 22 5.5t9 3.5q-1 4 -2 9t-1 11v16zM358 822
l113 -115l-190 -130q-20 25 -35 44q-14 17 -24.5 31t-12.5 15z" />
    <glyph glyph-name="acircumflex" unicode="&#xe2;" horiz-adv-x="589" 
d="M62 456q28 23 63 40q30 14 72.5 25t93.5 8q55 -4 93 -20.5t62 -42t37 -57t18 -64.5t4.5 -66t-1.5 -61q-2 -31 1 -48t10 -25t18 -9.5t26 -1.5l10 -131q-48 -15 -91 -18q-18 -1 -37.5 0.5t-38 8.5t-35 19t-28.5 32q-10 -14 -24.5 -28t-33.5 -24.5t-43.5 -16t-53.5 -3.5
q-25 1 -54 8.5t-53 25t-40 47t-16 75.5q0 58 27 92t68.5 53t90.5 26.5t94 12.5q1 4 1 12t-3 16t-10 15t-20 10q-25 3 -48 -2.5t-42 -15t-32 -19t-17 -13.5zM304 214q-45 -12 -60.5 -31t-12.5 -35q3 -14 14 -20t28 -2q13 3 22 5.5t9 3.5q-1 4 -2 9t-1 11v16zM333 582l-18 34
q-7 13 -12 23.5t-5 11.5q-1 -6 -4 -11q-2 -5 -5 -11t-5 -13q-6 -16 -14 -35l-160 5l136 210h100l130 -214h-143z" />
    <glyph glyph-name="atilde" unicode="&#xe3;" horiz-adv-x="589" 
d="M62 456q28 23 63 40q30 14 72.5 25t93.5 8q55 -4 93 -20.5t62 -42t37 -57t18 -64.5t4.5 -66t-1.5 -61q-2 -31 1 -48t10 -25t18 -9.5t26 -1.5l10 -131q-48 -15 -91 -18q-18 -1 -37.5 0.5t-38 8.5t-35 19t-28.5 32q-10 -14 -24.5 -28t-33.5 -24.5t-43.5 -16t-53.5 -3.5
q-25 1 -54 8.5t-53 25t-40 47t-16 75.5q0 58 27 92t68.5 53t90.5 26.5t94 12.5q1 4 1 12t-3 16t-10 15t-20 10q-25 3 -48 -2.5t-42 -15t-32 -19t-17 -13.5zM304 214q-45 -12 -60.5 -31t-12.5 -35q3 -14 14 -20t28 -2q13 3 22 5.5t9 3.5q-1 4 -2 9t-1 11v16zM117 602l5 87
q2 45 26.5 64t62.5 19q19 0 35 -8t29.5 -17t25 -17t20.5 -8q12 0 18.5 9.5t12.5 36.5l127 -16l-5 -75q-2 -23 -12 -41t-25 -31.5t-33.5 -20.5t-37.5 -7q-22 0 -35 6t-22.5 13t-16.5 13t-17 6q-19 0 -25.5 -8.5t-11.5 -29.5z" />
    <glyph glyph-name="adieresis" unicode="&#xe4;" horiz-adv-x="589" 
d="M62 456q28 23 63 40q30 14 72.5 25t93.5 8q55 -4 93 -20.5t62 -42t37 -57t18 -64.5t4.5 -66t-1.5 -61q-2 -31 1 -48t10 -25t18 -9.5t26 -1.5l10 -131q-48 -15 -91 -18q-18 -1 -37.5 0.5t-38 8.5t-35 19t-28.5 32q-10 -14 -24.5 -28t-33.5 -24.5t-43.5 -16t-53.5 -3.5
q-25 1 -54 8.5t-53 25t-40 47t-16 75.5q0 58 27 92t68.5 53t90.5 26.5t94 12.5q1 4 1 12t-3 16t-10 15t-20 10q-25 3 -48 -2.5t-42 -15t-32 -19t-17 -13.5zM304 214q-45 -12 -60.5 -31t-12.5 -35q3 -14 14 -20t28 -2q13 3 22 5.5t9 3.5q-1 4 -2 9t-1 11v16zM75 665
q0 38 26.5 64t63.5 26q19 0 35.5 -7t29 -19t19.5 -28.5t7 -35.5t-7 -35.5t-19.5 -29t-29 -19.5t-35.5 -7q-37 0 -63.5 26.5t-26.5 64.5zM316 669q0 38 26.5 64t63.5 26q19 0 35.5 -7t29 -19t19.5 -28.5t7 -35.5t-7 -35.5t-19.5 -29t-29 -19.5t-35.5 -7q-37 0 -63.5 26.5
t-26.5 64.5z" />
    <glyph glyph-name="aring" unicode="&#xe5;" horiz-adv-x="589" 
d="M62 456q28 23 63 40q30 14 72.5 25t93.5 8q55 -4 93 -20.5t62 -42t37 -57t18 -64.5t4.5 -66t-1.5 -61q-2 -31 1 -48t10 -25t18 -9.5t26 -1.5l10 -131q-48 -15 -91 -18q-18 -1 -37.5 0.5t-38 8.5t-35 19t-28.5 32q-10 -14 -24.5 -28t-33.5 -24.5t-43.5 -16t-53.5 -3.5
q-25 1 -54 8.5t-53 25t-40 47t-16 75.5q0 58 27 92t68.5 53t90.5 26.5t94 12.5q1 4 1 12t-3 16t-10 15t-20 10q-25 3 -48 -2.5t-42 -15t-32 -19t-17 -13.5zM304 214q-45 -12 -60.5 -31t-12.5 -35q3 -14 14 -20t28 -2q13 3 22 5.5t9 3.5q-1 4 -2 9t-1 11v16zM417 710
q0 -26 -8.5 -49t-24.5 -40.5t-39.5 -27t-53.5 -9.5q-28 0 -52 10t-41 27t-27 40t-10 49q0 32 10.5 56t28.5 39.5t41.5 23t49.5 7.5t49 -10t40 -27t27 -40t10 -49zM329 713q0 13 -8.5 27.5t-27.5 14.5q-22 0 -31 -12.5t-7 -29.5q2 -19 12 -28t26 -9q17 0 26.5 12t9.5 25z" />
    <glyph glyph-name="ae" unicode="&#xe6;" horiz-adv-x="796" 
d="M545 520q62 -3 103.5 -24.5t67 -54.5t38 -72.5t17.5 -78t4.5 -70.5t-0.5 -50l-27.5 -1t-68 -2t-87.5 -2t-87 -1q12 -22 30.5 -38t59.5 -16q23 0 42.5 4.5t34.5 10.5q18 6 33 15l8 -131q-19 -11 -45 -21q-22 -8 -53 -15t-70 -9q-34 -2 -63.5 4t-53.5 16t-41 23t-25 27
q-9 -22 -31 -40q-19 -15 -52.5 -27.5t-88.5 -12.5q-26 1 -56 9t-55 26t-41.5 48.5t-16.5 77.5q0 60 23.5 95.5t60.5 55t83.5 27t92.5 12.5v3q1 6 0.5 13t-3.5 13.5t-10 11.5t-20 7q-19 2 -39.5 -3t-38.5 -12.5t-32 -16t-18 -12.5l-71 144q26 22 59 39q29 14 70 25t94 8
q44 -3 75.5 -23t43.5 -43q8 12 25 23t39 20t45.5 14t44.5 4zM555 360q-17 0 -27.5 -7t-16.5 -17t-8.5 -21.5t-3.5 -21.5l106 -3q0 9 -2 21.5t-7.5 23t-15.5 18t-25 7.5zM315 130q-12 20 -15 37.5t-5 32.5q-33 -8 -47.5 -27t-9.5 -38q4 -14 16.5 -20.5t32.5 -1.5q14 4 21 10
t7 7z" />
    <glyph glyph-name="ccedilla" unicode="&#xe7;" horiz-adv-x="523" 
d="M382 302q-9 7 -15.5 12t-13.5 8.5t-17 5.5t-25 2q-24 0 -47 -23t-23 -67q0 -45 25 -62.5t55 -17.5q19 0 33.5 5.5t26 14t21 19t18.5 21.5l103 -131q-18 -23 -37 -42.5t-41.5 -34.5t-50 -25t-62.5 -14l-12 -36q33 -3 52 -17.5t28.5 -33t11 -37.5t0.5 -31q-4 -44 -36 -72
t-78 -31q-40 -3 -67.5 3t-45.5 15q-21 10 -34 24l56 69l12 -8q5 -3 12 -5.5t13 -2.5q15 0 20.5 7.5t5.5 18.5q0 13 -12 20t-26 11q-17 4 -38 6q7 20 14 39l12 34t11 31q-39 8 -76.5 27t-66.5 50t-47.5 74.5t-19.5 101.5q-1 75 24 128.5t65.5 87.5t91.5 49.5t101 15.5
q51 0 86 -14t58 -31q26 -19 43 -44z" />
    <glyph glyph-name="egrave" unicode="&#xe8;" horiz-adv-x="563" 
d="M376 650q-2 -1 -13.5 -15t-24.5 -31q-16 -19 -34 -44l-190 130l113 115zM294 516q64 -1 107.5 -22t71.5 -53.5t42 -71.5t20 -77t6.5 -70t0.5 -50l-32 -1.5t-78.5 -3t-98 -3t-91.5 -1.5q24 -44 84 -44q31 0 58 5t47 12q23 8 42 18v-146q-19 -13 -45 -23q-22 -8 -53 -15
t-70 -7q-59 0 -111 16t-90.5 49t-61 84t-22.5 122q0 74 19.5 128t55.5 88.5t86.5 50.5t112.5 15zM302 359q-17 0 -29 -7t-20 -17t-12 -21.5t-5 -21.5l128 -6q0 12 -4 25t-11.5 23.5t-19.5 17.5t-27 7z" />
    <glyph glyph-name="eacute" unicode="&#xe9;" horiz-adv-x="563" 
d="M294 516q64 -1 107.5 -22t71.5 -53.5t42 -71.5t20 -77t6.5 -70t0.5 -50l-32 -1.5t-78.5 -3t-98 -3t-91.5 -1.5q24 -44 84 -44q31 0 58 5t47 12q23 8 42 18v-146q-19 -13 -45 -23q-22 -8 -53 -15t-70 -7q-59 0 -111 16t-90.5 49t-61 84t-22.5 122q0 74 19.5 128t55.5 88.5
t86.5 50.5t112.5 15zM302 359q-17 0 -29 -7t-20 -17t-12 -21.5t-5 -21.5l128 -6q0 12 -4 25t-11.5 23.5t-19.5 17.5t-27 7zM367 807l113 -115l-190 -130q-20 25 -35 44q-14 17 -24.5 31t-12.5 15z" />
    <glyph glyph-name="ecircumflex" unicode="&#xea;" horiz-adv-x="563" 
d="M294 516q64 -1 107.5 -22t71.5 -53.5t42 -71.5t20 -77t6.5 -70t0.5 -50l-32 -1.5t-78.5 -3t-98 -3t-91.5 -1.5q24 -44 84 -44q31 0 58 5t47 12q23 8 42 18v-146q-19 -13 -45 -23q-22 -8 -53 -15t-70 -7q-59 0 -111 16t-90.5 49t-61 84t-22.5 122q0 74 19.5 128t55.5 88.5
t86.5 50.5t112.5 15zM302 359q-17 0 -29 -7t-20 -17t-12 -21.5t-5 -21.5l128 -6q0 12 -4 25t-11.5 23.5t-19.5 17.5t-27 7zM326 565l-18 34q-7 13 -12 23.5t-5 11.5q-1 -6 -4 -11q-2 -5 -5 -11t-5 -13q-6 -16 -14 -35l-160 5l136 210h100l130 -214h-143z" />
    <glyph glyph-name="edieresis" unicode="&#xeb;" horiz-adv-x="563" 
d="M294 516q64 -1 107.5 -22t71.5 -53.5t42 -71.5t20 -77t6.5 -70t0.5 -50l-32 -1.5t-78.5 -3t-98 -3t-91.5 -1.5q24 -44 84 -44q31 0 58 5t47 12q23 8 42 18v-146q-19 -13 -45 -23q-22 -8 -53 -15t-70 -7q-59 0 -111 16t-90.5 49t-61 84t-22.5 122q0 74 19.5 128t55.5 88.5
t86.5 50.5t112.5 15zM302 359q-17 0 -29 -7t-20 -17t-12 -21.5t-5 -21.5l128 -6q0 12 -4 25t-11.5 23.5t-19.5 17.5t-27 7zM71 648q0 38 26.5 64t63.5 26q19 0 35.5 -7t29 -19t19.5 -28.5t7 -35.5t-7 -35.5t-19.5 -29t-29 -19.5t-35.5 -7q-37 0 -63.5 26.5t-26.5 64.5z
M312 652q0 38 26.5 64t63.5 26q19 0 35.5 -7t29 -19t19.5 -28.5t7 -35.5t-7 -35.5t-19.5 -29t-29 -19.5t-35.5 -7q-37 0 -63.5 26.5t-26.5 64.5z" />
    <glyph glyph-name="igrave" unicode="&#xec;" horiz-adv-x="266" 
d="M212 650q-2 -1 -13.5 -15t-24.5 -31q-16 -19 -34 -44l-190 130l113 115zM36 490l200 -5v-499l-200 10v494z" />
    <glyph glyph-name="iacute" unicode="&#xed;" horiz-adv-x="265" 
d="M30 490l200 -5v-499l-200 10v494zM202 806l113 -115l-190 -130q-20 25 -35 44q-14 17 -24.5 31t-12.5 15z" />
    <glyph glyph-name="icircumflex" unicode="&#xee;" horiz-adv-x="286" 
d="M45 490l200 -5v-499l-200 10v494zM184 552l-18 34q-7 13 -12 23.5t-5 11.5q-1 -6 -4 -11q-2 -5 -5 -11t-5 -13q-6 -16 -14 -35l-160 5l136 210h100l130 -214h-143z" />
    <glyph glyph-name="idieresis" unicode="&#xef;" horiz-adv-x="362" 
d="M78 490l200 -5v-499l-200 10v494zM-29 652q0 38 26.5 64t63.5 26q19 0 35.5 -7t29 -19t19.5 -28.5t7 -35.5t-7 -35.5t-19.5 -29t-29 -19.5t-35.5 -7q-37 0 -63.5 26.5t-26.5 64.5zM212 656q0 38 26.5 64t63.5 26q19 0 35.5 -7t29 -19t19.5 -28.5t7 -35.5t-7 -35.5
t-19.5 -29t-29 -19.5t-35.5 -7q-37 0 -63.5 26.5t-26.5 64.5z" />
    <glyph glyph-name="eth" unicode="&#xf0;" horiz-adv-x="570" 
d="M168 579q-1 -1 17.5 12t46.5 33q-25 28 -43.5 45.5t-18.5 20.5l147 84q16 -11 31.5 -23t30.5 -26q13 9 24.5 16.5t19.5 13.5q10 6 17 12l91 -114l-54 -35q23 -35 39.5 -74t23.5 -84q1 -3 5.5 -46t4.5 -134q0 -75 -24 -131t-62.5 -93.5t-86.5 -56t-97 -18.5q-22 0 -50 3
t-57 12t-56 25.5t-48.5 43.5t-34.5 66t-13 93q0 66 18 110t47 71t65 38.5t71 12.5t57.5 -7t35.5 -18.5t18.5 -19.5t6.5 -11q0 29 -7.5 56.5t-20.5 53.5l-61 -39zM277 150q34 0 48.5 23t14.5 57q0 30 -16.5 51.5t-43.5 21.5t-43.5 -17.5t-16.5 -55.5q0 -34 11.5 -57t45.5 -23
z" />
    <glyph glyph-name="ntilde" unicode="&#xf1;" horiz-adv-x="571" 
d="M540 -10l-220 10v243v20.5t-3 29.5t-11.5 27t-25.5 13q-11 1 -18.5 -3t-12 -8.5t-7 -8l-2.5 -3.5l1 -313h-210l-1 513h210v-84q2 4 8 18t20.5 28.5t39 26t62.5 11.5q49 0 81.5 -20.5t52.5 -55.5t28.5 -82t8.5 -99zM115 600l5 87q2 45 26.5 64t62.5 19q19 0 35 -8
t29.5 -17t25 -17t20.5 -8q12 0 18.5 9.5t12.5 36.5l127 -16l-5 -75q-2 -23 -12 -41t-25 -31.5t-33.5 -20.5t-37.5 -7q-22 0 -35 6t-22.5 13t-16.5 13t-17 6q-19 0 -25.5 -8.5t-11.5 -29.5z" />
    <glyph glyph-name="ograve" unicode="&#xf2;" horiz-adv-x="591" 
d="M398 657q-2 -1 -13.5 -15t-24.5 -31q-16 -19 -34 -44l-190 130l113 115zM304 520q36 0 82 -15t87.5 -49t69.5 -89.5t28 -135.5q0 -72 -23 -123t-61 -83.5t-87.5 -48t-102.5 -15.5q-60 0 -110.5 16.5t-87.5 51.5t-58 90t-21 132q0 57 14.5 99t38 72t54 49t62 30t61.5 15
t54 4zM292 343q-17 -1 -27 -11.5t-15.5 -26.5t-7.5 -35.5t-2 -38.5q0 -21 2.5 -40.5t8.5 -35t17.5 -25t29.5 -9.5q30 0 41.5 32t11.5 78q0 58 -16 86t-43 26z" />
    <glyph glyph-name="oacute" unicode="&#xf3;" horiz-adv-x="591" 
d="M304 520q36 0 82 -15t87.5 -49t69.5 -89.5t28 -135.5q0 -72 -23 -123t-61 -83.5t-87.5 -48t-102.5 -15.5q-60 0 -110.5 16.5t-87.5 51.5t-58 90t-21 132q0 57 14.5 99t38 72t54 49t62 30t61.5 15t54 4zM292 343q-17 -1 -27 -11.5t-15.5 -26.5t-7.5 -35.5t-2 -38.5
q0 -21 2.5 -40.5t8.5 -35t17.5 -25t29.5 -9.5q30 0 41.5 32t11.5 78q0 58 -16 86t-43 26zM377 818l113 -115l-190 -130q-20 25 -35 44q-14 17 -24.5 31t-12.5 15z" />
    <glyph glyph-name="ocircumflex" unicode="&#xf4;" horiz-adv-x="591" 
d="M304 520q36 0 82 -15t87.5 -49t69.5 -89.5t28 -135.5q0 -72 -23 -123t-61 -83.5t-87.5 -48t-102.5 -15.5q-60 0 -110.5 16.5t-87.5 51.5t-58 90t-21 132q0 57 14.5 99t38 72t54 49t62 30t61.5 15t54 4zM292 343q-17 -1 -27 -11.5t-15.5 -26.5t-7.5 -35.5t-2 -38.5
q0 -21 2.5 -40.5t8.5 -35t17.5 -25t29.5 -9.5q30 0 41.5 32t11.5 78q0 58 -16 86t-43 26zM337 567l-18 34q-7 13 -12 23.5t-5 11.5q-1 -6 -4 -11q-2 -5 -5 -11t-5 -13q-6 -16 -14 -35l-160 5l136 210h100l130 -214h-143z" />
    <glyph glyph-name="otilde" unicode="&#xf5;" horiz-adv-x="591" 
d="M304 520q36 0 82 -15t87.5 -49t69.5 -89.5t28 -135.5q0 -72 -23 -123t-61 -83.5t-87.5 -48t-102.5 -15.5q-60 0 -110.5 16.5t-87.5 51.5t-58 90t-21 132q0 57 14.5 99t38 72t54 49t62 30t61.5 15t54 4zM292 343q-17 -1 -27 -11.5t-15.5 -26.5t-7.5 -35.5t-2 -38.5
q0 -21 2.5 -40.5t8.5 -35t17.5 -25t29.5 -9.5q30 0 41.5 32t11.5 78q0 58 -16 86t-43 26zM127 593l5 87q2 45 26.5 64t62.5 19q19 0 35 -8t29.5 -17t25 -17t20.5 -8q12 0 18.5 9.5t12.5 36.5l127 -16l-5 -75q-2 -23 -12 -41t-25 -31.5t-33.5 -20.5t-37.5 -7q-22 0 -35 6
t-22.5 13t-16.5 13t-17 6q-19 0 -25.5 -8.5t-11.5 -29.5z" />
    <glyph glyph-name="odieresis" unicode="&#xf6;" horiz-adv-x="591" 
d="M304 520q36 0 82 -15t87.5 -49t69.5 -89.5t28 -135.5q0 -72 -23 -123t-61 -83.5t-87.5 -48t-102.5 -15.5q-60 0 -110.5 16.5t-87.5 51.5t-58 90t-21 132q0 57 14.5 99t38 72t54 49t62 30t61.5 15t54 4zM292 343q-17 -1 -27 -11.5t-15.5 -26.5t-7.5 -35.5t-2 -38.5
q0 -21 2.5 -40.5t8.5 -35t17.5 -25t29.5 -9.5q30 0 41.5 32t11.5 78q0 58 -16 86t-43 26zM79 660q0 38 26.5 64t63.5 26q19 0 35.5 -7t29 -19t19.5 -28.5t7 -35.5t-7 -35.5t-19.5 -29t-29 -19.5t-35.5 -7q-37 0 -63.5 26.5t-26.5 64.5zM320 664q0 38 26.5 64t63.5 26
q19 0 35.5 -7t29 -19t19.5 -28.5t7 -35.5t-7 -35.5t-19.5 -29t-29 -19.5t-35.5 -7q-37 0 -63.5 26.5t-26.5 64.5z" />
    <glyph glyph-name="divide" unicode="&#xf7;" horiz-adv-x="500" 
d="M150 71q0 20 8 38t21.5 31.5t32 21.5t38.5 8q21 0 39 -8t31.5 -21.5t21.5 -31.5t8 -38q0 -21 -8 -39t-21.5 -32t-31.5 -22t-39 -8q-20 0 -38.5 8t-32 22t-21.5 32t-8 39zM150 561q0 20 8 38t21.5 31.5t32 21.5t38.5 8q21 0 39 -8t31.5 -21.5t21.5 -31.5t8 -38
q0 -21 -8 -39t-21.5 -32t-31.5 -22t-39 -8q-20 0 -38.5 8t-32 22t-21.5 32t-8 39zM40 400h420v-180l-420 10v170z" />
    <glyph glyph-name="oslash" unicode="&#xf8;" horiz-adv-x="630" 
d="M3 60q0 -1 -0.5 20t-1.5 46q-1 29 -1 66l40 14q-2 11 -2 22v23q0 57 14.5 99t38 72t54 49t62 30t61.5 15t54 4q25 0 56.5 -7.5t63 -24t60.5 -42.5t50 -63l66 23l12 -145l-12 -4q-5 -2 -13 -4t-17 -5q0 -5 0.5 -9t0.5 -8q0 -72 -23 -123t-61 -83.5t-87.5 -48t-102.5 -15.5
q-80 0 -143 29t-98 93q-17 -5 -30 -9.5t-22 -7.5q-11 -4 -19 -6zM310 343q-22 -2 -33 -19t-15 -42l92 32q-17 31 -44 29zM316 121q20 0 31.5 15t16.5 40l-92 -29q15 -26 44 -26z" />
    <glyph glyph-name="ugrave" unicode="&#xf9;" horiz-adv-x="570" 
d="M366 657q-2 -1 -13.5 -15t-24.5 -31q-16 -19 -34 -44l-190 130l113 115zM275 -50q-121 0 -183 69t-62 212l1 263l210 -10v-243q0 -15 1 -31.5t5.5 -29.5t13.5 -21.5t24 -8.5t23.5 8.5t13 21.5t6 29.5t1.5 31.5v243l210 10l1 -263q0 -71 -20.5 -124t-56 -88t-84 -52
t-104.5 -17z" />
    <glyph glyph-name="uacute" unicode="&#xfa;" horiz-adv-x="570" 
d="M275 -50q-121 0 -183 69t-62 212l1 263l210 -10v-243q0 -15 1 -31.5t5.5 -29.5t13.5 -21.5t24 -8.5t23.5 8.5t13 21.5t6 29.5t1.5 31.5v243l210 10l1 -263q0 -71 -20.5 -124t-56 -88t-84 -52t-104.5 -17zM369 807l113 -115l-190 -130q-20 25 -35 44q-14 17 -24.5 31
t-12.5 15z" />
    <glyph glyph-name="ucircumflex" unicode="&#xfb;" horiz-adv-x="570" 
d="M275 -50q-121 0 -183 69t-62 212l1 263l210 -10v-243q0 -15 1 -31.5t5.5 -29.5t13.5 -21.5t24 -8.5t23.5 8.5t13 21.5t6 29.5t1.5 31.5v243l210 10l1 -263q0 -71 -20.5 -124t-56 -88t-84 -52t-104.5 -17zM330 561l-18 34q-7 13 -12 23.5t-5 11.5q-1 -6 -4 -11
q-2 -5 -5 -11t-5 -13q-6 -16 -14 -35l-160 5l136 210h100l130 -214h-143z" />
    <glyph glyph-name="udieresis" unicode="&#xfc;" horiz-adv-x="570" 
d="M275 -50q-121 0 -183 69t-62 212l1 263l210 -10v-243q0 -15 1 -31.5t5.5 -29.5t13.5 -21.5t24 -8.5t23.5 8.5t13 21.5t6 29.5t1.5 31.5v243l210 10l1 -263q0 -71 -20.5 -124t-56 -88t-84 -52t-104.5 -17zM74 660q0 38 26.5 64t63.5 26q19 0 35.5 -7t29 -19t19.5 -28.5
t7 -35.5t-7 -35.5t-19.5 -29t-29 -19.5t-35.5 -7q-37 0 -63.5 26.5t-26.5 64.5zM315 664q0 38 26.5 64t63.5 26q19 0 35.5 -7t29 -19t19.5 -28.5t7 -35.5t-7 -35.5t-19.5 -29t-29 -19.5t-35.5 -7q-37 0 -63.5 26.5t-26.5 64.5z" />
    <glyph glyph-name="yacute" unicode="&#xfd;" horiz-adv-x="546" 
d="M225 10q-29 -11 -58.5 -8t-55.5 19t-45 43.5t-27 65.5l-39 350h220l24 -280q0 -17 5 -27t10 -15q6 -6 15 -8l61 340l211 -29q-33 -159 -59 -264t-43 -169q-20 -75 -35 -118q-17 -64 -47.5 -112t-73 -77t-96 -37.5t-115.5 8.5l-57 17l55 167l19 -4q35 -7 63.5 3t43.5 55z
M351 805l113 -115l-190 -130q-20 25 -35 44q-14 17 -24.5 31t-12.5 15z" />
    <glyph glyph-name="thorn" unicode="&#xfe;" horiz-adv-x="502" 
d="M228 700l1 -221q36 -3 79.5 -15t81.5 -38.5t64 -69.5t27 -107q1 -68 -23.5 -112.5t-62.5 -72t-83.5 -40t-87.5 -15.5l4 -189l-198 -11v900zM273 239q0 23 -16.5 39.5t-36.5 20.5v-120q23 3 38 18t15 42z" />
    <glyph glyph-name="ydieresis" unicode="&#xff;" horiz-adv-x="546" 
d="M225 10q-29 -11 -58.5 -8t-55.5 19t-45 43.5t-27 65.5l-39 350h220l24 -280q0 -17 5 -27t10 -15q6 -6 15 -8l61 340l211 -29q-33 -159 -59 -264t-43 -169q-20 -75 -35 -118q-17 -64 -47.5 -112t-73 -77t-96 -37.5t-115.5 8.5l-57 17l55 167l19 -4q35 -7 63.5 3t43.5 55z
M62 649q0 38 26.5 64t63.5 26q19 0 35.5 -7t29 -19t19.5 -28.5t7 -35.5t-7 -35.5t-19.5 -29t-29 -19.5t-35.5 -7q-37 0 -63.5 26.5t-26.5 64.5zM303 653q0 38 26.5 64t63.5 26q19 0 35.5 -7t29 -19t19.5 -28.5t7 -35.5t-7 -35.5t-19.5 -29t-29 -19.5t-35.5 -7
q-37 0 -63.5 26.5t-26.5 64.5z" />
    <glyph glyph-name="Amacron" unicode="&#x100;" horiz-adv-x="726" 
d="M225 939l283 -7v-140l-283 17v130zM0 0l292 710h141l293 -710l-241 -10l-42 110h-158l-40 -110zM332 260h61l-31 90z" />
    <glyph glyph-name="amacron" unicode="&#x101;" horiz-adv-x="589" 
d="M141 720l283 -7v-140l-283 17v130zM62 456q28 23 63 40q30 14 72.5 25t93.5 8q55 -4 93 -20.5t62 -42t37 -57t18 -64.5t4.5 -66t-1.5 -61q-2 -31 1 -48t10 -25t18 -9.5t26 -1.5l10 -131q-48 -15 -91 -18q-18 -1 -37.5 0.5t-38 8.5t-35 19t-28.5 32q-10 -14 -24.5 -28
t-33.5 -24.5t-43.5 -16t-53.5 -3.5q-25 1 -54 8.5t-53 25t-40 47t-16 75.5q0 58 27 92t68.5 53t90.5 26.5t94 12.5q1 4 1 12t-3 16t-10 15t-20 10q-25 3 -48 -2.5t-42 -15t-32 -19t-17 -13.5zM304 214q-45 -12 -60.5 -31t-12.5 -35q3 -14 14 -20t28 -2q13 3 22 5.5t9 3.5
q-1 4 -2 9t-1 11v16z" />
    <glyph glyph-name="Abreve" unicode="&#x102;" horiz-adv-x="726" 
d="M0 0l292 710h141l293 -710l-241 -10l-42 110h-158l-40 -110zM332 260h61l-31 90zM364 923q15 0 27.5 11t12.5 45l140 -13q0 -38 -14 -70.5t-38.5 -56.5t-57.5 -37.5t-70 -13.5q-38 0 -70.5 13t-57 38.5t-38.5 63t-14 86.5l140 -4q0 -33 12.5 -47.5t27.5 -14.5z" />
    <glyph glyph-name="abreve" unicode="&#x103;" horiz-adv-x="589" 
d="M62 456q28 23 63 40q30 14 72.5 25t93.5 8q55 -4 93 -20.5t62 -42t37 -57t18 -64.5t4.5 -66t-1.5 -61q-2 -31 1 -48t10 -25t18 -9.5t26 -1.5l10 -131q-48 -15 -91 -18q-18 -1 -37.5 0.5t-38 8.5t-35 19t-28.5 32q-10 -14 -24.5 -28t-33.5 -24.5t-43.5 -16t-53.5 -3.5
q-25 1 -54 8.5t-53 25t-40 47t-16 75.5q0 58 27 92t68.5 53t90.5 26.5t94 12.5q1 4 1 12t-3 16t-10 15t-20 10q-25 3 -48 -2.5t-42 -15t-32 -19t-17 -13.5zM304 214q-45 -12 -60.5 -31t-12.5 -35q3 -14 14 -20t28 -2q13 3 22 5.5t9 3.5q-1 4 -2 9t-1 11v16zM296 715
q15 0 27.5 11t12.5 45l140 -13q0 -38 -14 -70.5t-38.5 -56.5t-57.5 -37.5t-70 -13.5q-38 0 -70.5 13t-57 38.5t-38.5 63t-14 86.5l140 -4q0 -33 12.5 -47.5t27.5 -14.5z" />
    <glyph glyph-name="Aogonek" unicode="&#x104;" horiz-adv-x="725" 
d="M0 0l292 710h141l292 -713q-15 -11 -31.5 -27.5t-30 -34.5t-22.5 -36t-9 -33q0 -11 6 -17.5t23 -6.5q11 0 20 1t16 3q8 2 14 5l2 -85q-11 -9 -29 -16q-15 -6 -37.5 -10.5t-53.5 -3.5t-53 11.5t-35.5 26t-19.5 34t-5 36.5q1 27 14.5 51t32.5 43.5t38.5 33.5t32.5 22
q-22 -1 -42.5 -1.5t-36.5 -1t-25.5 -1t-8.5 -0.5l-42 110h-158l-40 -110zM332 260h61l-31 90z" />
    <glyph glyph-name="aogonek" unicode="&#x105;" horiz-adv-x="589" 
d="M569 3q-14 -11 -30.5 -27.5t-30 -34.5t-22.5 -36t-9 -33q0 -11 6 -17.5t23 -6.5q11 0 20 1t16 3q8 2 14 5l2 -85q-11 -9 -29 -16q-15 -6 -37.5 -10.5t-53.5 -3.5t-53 11.5t-35.5 26t-19.5 34t-5 36.5q0 23 10.5 44t25.5 38.5t32 31.5t31 24q-25 5 -47 18t-38 39
q-10 -14 -24.5 -28t-33.5 -24.5t-43.5 -16t-53.5 -3.5q-25 1 -54 8.5t-53 25t-40 47t-16 75.5q0 58 27 92t68.5 53t90.5 26.5t94 12.5q1 4 1 12t-3 16t-10 15t-20 10q-25 3 -48 -2.5t-42 -15t-32 -19t-17 -13.5l-68 140q28 23 63 40q30 14 72.5 25t93.5 8q55 -4 93 -20.5
t62 -42t37 -57t18 -64.5t4.5 -66t-1.5 -61q-2 -31 1 -48t10 -25t18 -9.5t26 -1.5zM304 214q-45 -12 -60.5 -31t-12.5 -35q3 -14 14 -20t28 -2q13 3 22 5.5t9 3.5q-1 4 -2 9t-1 11v16z" />
    <glyph glyph-name="Cacute" unicode="&#x106;" 
d="M526 490q-15 17 -38 28.5t-72 11.5q-60 0 -100 -50t-40 -141q0 -37 10.5 -66.5t29.5 -50t44.5 -31.5t55.5 -11t54 8.5t43 21.5t34.5 29t28.5 31l147 -133q-25 -33 -55.5 -63t-69.5 -53t-88.5 -36.5t-113.5 -13.5t-126.5 21.5t-113 66t-82 113.5t-33.5 166
q-2 106 29.5 180.5t84.5 121.5t121.5 68t139.5 21q72 -1 121 -20.5t81 -42.5q36 -27 59 -62zM479 1030l113 -115l-190 -130q-20 25 -35 44q-14 17 -24.5 31t-12.5 15z" />
    <glyph glyph-name="cacute" unicode="&#x107;" horiz-adv-x="523" 
d="M382 302q-9 7 -15.5 12t-13.5 8.5t-17 5.5t-25 2q-24 0 -47 -23t-23 -66q0 -45 25 -62.5t55 -17.5q19 0 33.5 5.5t26 14t21 19t18.5 21.5l103 -131q-21 -27 -43 -49t-49 -37.5t-61.5 -24t-79.5 -8.5t-92.5 14.5t-86 46t-64 80.5t-26.5 118q-1 75 24 128.5t65.5 87.5
t91.5 49.5t101 15.5q51 0 86 -14t58 -31q26 -19 43 -44zM372 807l113 -115l-190 -130q-20 25 -35 44q-14 17 -24.5 31t-12.5 15z" />
    <glyph glyph-name="Ccircumflex" unicode="&#x108;" 
d="M526 490q-15 17 -38 28.5t-72 11.5q-60 0 -100 -50t-40 -141q0 -37 10.5 -66.5t29.5 -50t44.5 -31.5t55.5 -11t54 8.5t43 21.5t34.5 29t28.5 31l147 -133q-25 -33 -55.5 -63t-69.5 -53t-88.5 -36.5t-113.5 -13.5t-126.5 21.5t-113 66t-82 113.5t-33.5 166
q-2 106 29.5 180.5t84.5 121.5t121.5 68t139.5 21q72 -1 121 -20.5t81 -42.5q36 -27 59 -62zM441 785l-18 34q-7 13 -12 23.5t-5 11.5q-1 -6 -4 -11q-2 -5 -5 -11t-5 -13q-6 -16 -14 -35l-160 5l136 210h100l130 -214h-143z" />
    <glyph glyph-name="ccircumflex" unicode="&#x109;" horiz-adv-x="523" 
d="M382 302q-9 7 -15.5 12t-13.5 8.5t-17 5.5t-25 2q-24 0 -47 -23t-23 -66q0 -45 25 -62.5t55 -17.5q19 0 33.5 5.5t26 14t21 19t18.5 21.5l103 -131q-21 -27 -43 -49t-49 -37.5t-61.5 -24t-79.5 -8.5t-92.5 14.5t-86 46t-64 80.5t-26.5 118q-1 75 24 128.5t65.5 87.5
t91.5 49.5t101 15.5q51 0 86 -14t58 -31q26 -19 43 -44zM329 565l-18 34q-7 13 -12 23.5t-5 11.5q-1 -6 -4 -11q-2 -5 -5 -11t-5 -13q-6 -16 -14 -35l-160 5l136 210h100l130 -214h-143z" />
    <glyph glyph-name="Ccaron" unicode="&#x10c;" 
d="M526 490q-15 17 -38 28.5t-72 11.5q-60 0 -100 -50t-40 -141q0 -37 10.5 -66.5t29.5 -50t44.5 -31.5t55.5 -11t54 8.5t43 21.5t34.5 29t28.5 31l147 -133q-25 -33 -55.5 -63t-69.5 -53t-88.5 -36.5t-113.5 -13.5t-126.5 21.5t-113 66t-82 113.5t-33.5 166
q-2 106 29.5 180.5t84.5 121.5t121.5 68t139.5 21q72 -1 121 -20.5t81 -42.5q36 -27 59 -62zM371 1004q9 -19 17 -34q3 -7 6.5 -13t5.5 -11q3 -6 6 -11q0 -1 4.5 10t9.5 25q6 16 14 35l160 -5l-136 -210h-100l-130 214h143z" />
    <glyph glyph-name="ccaron" unicode="&#x10d;" horiz-adv-x="523" 
d="M382 302q-9 7 -15.5 12t-13.5 8.5t-17 5.5t-25 2q-24 0 -47 -23t-23 -66q0 -45 25 -62.5t55 -17.5q19 0 33.5 5.5t26 14t21 19t18.5 21.5l103 -131q-21 -27 -43 -49t-49 -37.5t-61.5 -24t-79.5 -8.5t-92.5 14.5t-86 46t-64 80.5t-26.5 118q-1 75 24 128.5t65.5 87.5
t91.5 49.5t101 15.5q51 0 86 -14t58 -31q26 -19 43 -44zM252 777q9 -19 17 -34q3 -7 6.5 -13t5.5 -11q3 -6 6 -11q0 -1 4.5 10t9.5 25q6 16 14 35l160 -5l-136 -210h-100l-130 214h143z" />
    <glyph glyph-name="Dcaron" unicode="&#x10e;" horiz-adv-x="739" 
d="M381 714q79 -1 140 -29.5t101.5 -79.5t60.5 -122t16 -157q-3 -62 -24 -124t-64.5 -110.5t-111 -77.5t-163.5 -26l-285 2l10 729zM291 200l64 1q32 0 54.5 13t36.5 35.5t20 52.5t5 63q-2 72 -36.5 111.5t-87.5 38.5h-56v-315zM298 996q9 -19 17 -34q3 -7 6.5 -13t5.5 -11
q3 -6 6 -11q0 -1 4.5 10t9.5 25q6 16 14 35l160 -5l-136 -210h-100l-130 214h143z" />
    <glyph glyph-name="dcaron" unicode="&#x10f;" horiz-adv-x="727" 
d="M583 631q3 18 12.5 33.5t23.5 26.5t31.5 16t36.5 2t34.5 -12.5t26 -23.5t15.5 -31.5t3 -35.5q-7 -70 -38 -119.5t-75 -76.5q-8 1 -15 2q-6 1 -11 1t-5 1q7 7 20 24t22.5 35t10.5 33.5t-14 20.5q-37 5 -60 35t-18 69zM357 36q-21 -26 -54.5 -41.5t-79.5 -14.5
q-22 0 -55.5 8t-65.5 33.5t-55.5 73.5t-25.5 129t16 133.5t47.5 83.5t66 43.5t71.5 13.5q24 0 44 -5.5t35.5 -13.5t26 -16.5t15.5 -14.5v262l200 -10v-700l-166 -10zM313 150q18 0 30 3v169q-16 8 -40 8q-27 0 -43.5 -27.5t-16.5 -72.5q0 -34 18 -57t52 -23z" />
    <glyph glyph-name="Dcroat" unicode="&#x110;" horiz-adv-x="771" 
d="M20 452l66 -1l4 268l320 -5q79 -1 141.5 -29.5t104.5 -79.5t61 -122t11 -157q-6 -68 -33.5 -129t-74 -107t-110.5 -73.5t-145 -28.5l-285 2l3 269l-63 1v192zM320 450h90v-192h-90v-58l65 4q17 -1 37.5 11.5t38 34.5t29 52t10.5 63q-2 72 -36.5 111.5t-87.5 38.5h-56v-65
z" />
    <glyph glyph-name="dcroat" unicode="&#x111;" horiz-adv-x="611" 
d="M271 650l74 -2v62l200 -10v-58l66 -2l-10 -150h-56v-490l-166 -10l-20 46q-21 -26 -54.5 -41.5t-79.5 -14.5q-22 0 -55 7.5t-65 32t-56 72t-28 128.5q-4 75 14.5 122.5t48.5 74.5t67.5 37t72.5 11q24 0 44 -5.5t35.5 -13.5t26 -16.5t15.5 -14.5v75h-74v160zM315 150
q18 0 30 3v136q-16 8 -40 8q-54 0 -54 -77q0 -30 15 -50t49 -20z" />
    <glyph glyph-name="Emacron" unicode="&#x112;" horiz-adv-x="651" 
d="M197 937l283 -7v-140l-283 17v130zM601 720l-10 -200l-291 -20l1 -60l260 6l-4 -186l-267 -4v-56l331 10l-6 -221l-555 1v710z" />
    <glyph glyph-name="emacron" unicode="&#x113;" horiz-adv-x="563" 
d="M147 717l283 -7v-140l-283 17v130zM294 516q64 -1 107.5 -22t71.5 -53.5t42 -71.5t20 -77t6.5 -70t0.5 -50l-32 -1.5t-78.5 -3t-98 -3t-91.5 -1.5q24 -44 84 -44q31 0 58 5t47 12q23 8 42 18v-146q-19 -13 -45 -23q-22 -8 -53 -15t-70 -7q-59 0 -111 16t-90.5 49t-61 84
t-22.5 122q0 74 19.5 128t55.5 88.5t86.5 50.5t112.5 15zM302 359q-17 0 -29 -7t-20 -17t-12 -21.5t-5 -21.5l128 -6q0 12 -4 25t-11.5 23.5t-19.5 17.5t-27 7z" />
    <glyph glyph-name="Edotaccent" unicode="&#x116;" horiz-adv-x="651" 
d="M601 720l-10 -200l-291 -20l1 -60l260 6l-4 -186l-267 -4v-56l331 10l-6 -221l-555 1v710zM232 900q0 21 8 40t22.5 33.5t33.5 22.5t40 8q22 0 41 -8t33 -22.5t22.5 -33.5t8.5 -40q0 -22 -8.5 -41t-22.5 -33.5t-33 -22.5t-41 -8q-21 0 -40 8t-33.5 22.5t-22.5 33.5t-8 41
z" />
    <glyph glyph-name="edotaccent" unicode="&#x117;" horiz-adv-x="563" 
d="M294 516q64 -1 107.5 -22t71.5 -53.5t42 -71.5t20 -77t6.5 -70t0.5 -50l-32 -1.5t-78.5 -3t-98 -3t-91.5 -1.5q24 -44 84 -44q31 0 58 5t47 12q23 8 42 18v-146q-19 -13 -45 -23q-22 -8 -53 -15t-70 -7q-59 0 -111 16t-90.5 49t-61 84t-22.5 122q0 74 19.5 128t55.5 88.5
t86.5 50.5t112.5 15zM302 359q-17 0 -29 -7t-20 -17t-12 -21.5t-5 -21.5l128 -6q0 12 -4 25t-11.5 23.5t-19.5 17.5t-27 7zM187 682q0 21 8 40t22.5 33.5t33.5 22.5t40 8q22 0 41 -8t33 -22.5t22.5 -33.5t8.5 -40q0 -22 -8.5 -41t-22.5 -33.5t-33 -22.5t-41 -8q-21 0 -40 8
t-33.5 22.5t-22.5 33.5t-8 41z" />
    <glyph glyph-name="Eogonek" unicode="&#x118;" horiz-adv-x="656" 
d="M606 721l-10 -200l-296 -21l1 -60l265 7l-4 -186l-272 -5v-56l336 11l-6 -221h-197q-14 -12 -29.5 -27.5t-28 -33t-20.5 -34.5t-8 -31q0 -11 6 -17.5t23 -6.5q11 0 20 1t16 3q8 2 14 5l2 -85q-11 -9 -29 -16q-15 -6 -37.5 -10.5t-53.5 -3.5t-53 11.5t-35.5 26t-19.5 34
t-5 36.5q1 27 14 50t31 42t37 33.5t33 22.5h-240v710z" />
    <glyph glyph-name="eogonek" unicode="&#x119;" horiz-adv-x="563" 
d="M294 516q64 -1 107.5 -22t71.5 -53.5t42 -71.5t20 -77t6.5 -70t0.5 -50l-32 -1.5t-78.5 -3t-98 -3t-91.5 -1.5q24 -44 84 -44q31 0 58 5t47 12q23 8 42 18v-146q-12 -8 -28 -15q-14 -6 -33 -12.5t-43 -11.5q-14 -12 -28 -27t-25.5 -31.5t-18.5 -32.5t-7 -29
q0 -11 6 -17.5t23 -6.5q11 0 20 1t16 3q8 2 14 5l2 -85q-11 -9 -29 -16q-15 -6 -37.5 -10.5t-53.5 -3.5t-53 11.5t-35.5 26t-19.5 34t-5 36.5q0 24 11 45.5t26.5 39.5t33.5 32.5t32 23.5q-47 7 -87.5 27t-70 53t-46.5 79t-17 107q0 74 19.5 128t55.5 88.5t86.5 50.5
t112.5 15zM302 359q-17 0 -29 -7t-20 -17t-12 -21.5t-5 -21.5l128 -6q0 12 -4 25t-11.5 23.5t-19.5 17.5t-27 7z" />
    <glyph glyph-name="Ecaron" unicode="&#x11a;" horiz-adv-x="651" 
d="M601 720l-10 -200l-291 -20l1 -60l260 6l-4 -186l-267 -4v-56l331 10l-6 -221l-555 1v710zM303 994q9 -19 17 -34q3 -7 6.5 -13t5.5 -11q3 -6 6 -11q0 -1 4.5 10t9.5 25q6 16 14 35l160 -5l-136 -210h-100l-130 214h143z" />
    <glyph glyph-name="ecaron" unicode="&#x11b;" horiz-adv-x="563" 
d="M294 516q64 -1 107.5 -22t71.5 -53.5t42 -71.5t20 -77t6.5 -70t0.5 -50l-32 -1.5t-78.5 -3t-98 -3t-91.5 -1.5q24 -44 84 -44q31 0 58 5t47 12q23 8 42 18v-146q-19 -13 -45 -23q-22 -8 -53 -15t-70 -7q-59 0 -111 16t-90.5 49t-61 84t-22.5 122q0 74 19.5 128t55.5 88.5
t86.5 50.5t112.5 15zM302 359q-17 0 -29 -7t-20 -17t-12 -21.5t-5 -21.5l128 -6q0 12 -4 25t-11.5 23.5t-19.5 17.5t-27 7zM245 777q9 -19 17 -34q3 -7 6.5 -13t5.5 -11q3 -6 6 -11q0 -1 4.5 10t9.5 25q6 16 14 35l160 -5l-136 -210h-100l-130 214h143z" />
    <glyph glyph-name="Gbreve" unicode="&#x11e;" horiz-adv-x="786" 
d="M436 380l320 -10l1 -17t1.5 -45.5t1.5 -64.5t2 -73l4 -200l-180 10v80q-19 -26 -46 -45q-23 -17 -59 -31t-85 -13q-64 0 -126.5 21.5t-113 66t-82 113.5t-33.5 166q-2 106 29.5 180.5t84.5 121.5t121.5 68t139.5 21q72 -1 121 -20.5t81 -42.5q36 -27 59 -62l-151 -114
q-15 17 -38 28.5t-72 11.5q-60 0 -100 -50t-40 -141q0 -37 10.5 -66.5t29.5 -50t44.5 -31.5t55.5 -11t49.5 7t30.5 15.5t15.5 15l4.5 6.5l-90 6zM425 925q15 0 27.5 11t12.5 45l140 -13q0 -38 -14 -70.5t-38.5 -56.5t-57.5 -37.5t-70 -13.5q-38 0 -70.5 13t-57 38.5
t-38.5 63t-14 86.5l140 -4q0 -33 12.5 -47.5t27.5 -14.5z" />
    <glyph glyph-name="gbreve" unicode="&#x11f;" horiz-adv-x="573" 
d="M231 -70q4 -22 12 -40q7 -15 19 -27.5t32 -12.5q21 0 31 13t13.5 33t3 45t-0.5 49v40q-5 -6 -15.5 -14t-25.5 -16t-34.5 -13t-43.5 -5q-35 1 -71.5 13.5t-66 43.5t-47.5 83.5t-16 133.5t25.5 129t55.5 73.5t65.5 33.5t55.5 8q46 1 79.5 -14.5t54.5 -41.5l20 46l166 -10
l-3 -422q0 -42 -1 -87t-8 -88t-22 -82t-42.5 -68t-70.5 -46t-105 -17q-60 0 -104.5 20t-74.5 51.5t-47 71t-22 78.5zM313 330q-34 0 -52 -23t-18 -57q0 -45 16.5 -72.5t43.5 -27.5q24 0 40 8v169q-12 3 -30 3zM317 698q15 0 27.5 11t12.5 45l140 -13q0 -38 -14 -70.5
t-38.5 -56.5t-57.5 -37.5t-70 -13.5q-38 0 -70.5 13t-57 38.5t-38.5 63t-14 86.5l140 -4q0 -33 12.5 -47.5t27.5 -14.5z" />
    <glyph glyph-name="Gcommaaccent" unicode="&#x122;" horiz-adv-x="786" 
d="M303 -198q0 20 7.5 37.5t21 31t31.5 21t38 7.5q41 0 68.5 -28.5t29.5 -68.5q2 -75 -23.5 -131.5t-67.5 -91.5h-17q-6 0 -11.5 -0.5t-5.5 0.5q7 9 18.5 28.5t18.5 39.5t6 36.5t-17 19.5q-40 1 -68.5 29t-28.5 70zM436 380l320 -10l1 -17t1.5 -45.5t1.5 -64.5t2 -73l4 -200
l-180 10v80q-19 -26 -46 -45q-23 -17 -59 -31t-85 -13q-64 0 -126.5 21.5t-113 66t-82 113.5t-33.5 166q-2 106 29.5 180.5t84.5 121.5t121.5 68t139.5 21q72 -1 121 -20.5t81 -42.5q36 -27 59 -62l-151 -114q-15 17 -38 28.5t-72 11.5q-60 0 -100 -50t-40 -141
q0 -37 10.5 -66.5t29.5 -50t44.5 -31.5t55.5 -11t49.5 7t30.5 15.5t15.5 15l4.5 6.5l-90 6z" />
    <glyph glyph-name="gcommaaccent" unicode="&#x123;" horiz-adv-x="573" 
d="M405 638q-3 -18 -12.5 -33.5t-23.5 -26.5t-31.5 -16t-36.5 -2t-34.5 12.5t-26 23.5t-15.5 31.5t-3 35.5q7 70 38 119.5t75 76.5q8 -1 15 -2q6 -1 10.5 -1.5t5.5 -0.5q-8 -8 -20.5 -24.5t-22 -34.5t-10.5 -33.5t14 -20.5q37 -5 60 -35t18 -69zM231 -70q4 -22 12 -40
q7 -15 19 -27.5t32 -12.5q21 0 31 13t13.5 33t3 45t-0.5 49v40q-5 -6 -15.5 -14t-25.5 -16t-34.5 -13t-43.5 -5q-35 1 -71.5 13.5t-66 43.5t-47.5 83.5t-16 133.5t25.5 129t55.5 73.5t65.5 33.5t55.5 8q46 1 79.5 -14.5t54.5 -41.5l20 46l166 -10l-3 -422q0 -42 -1 -87
t-8 -88t-22 -82t-42.5 -68t-70.5 -46t-105 -17q-60 0 -104.5 20t-74.5 51.5t-47 71t-22 78.5zM313 330q-34 0 -52 -23t-18 -57q0 -45 16.5 -72.5t43.5 -27.5q24 0 40 8v169q-12 3 -30 3z" />
    <glyph glyph-name="Imacron" unicode="&#x12a;" horiz-adv-x="363" 
d="M40 947l283 -7v-140l-283 17v130zM302 697v-687l-230 -10v714z" />
    <glyph glyph-name="imacron" unicode="&#x12b;" horiz-adv-x="263" 
d="M-20 717l283 -7v-140l-283 17v130zM25 490l200 -5v-499l-200 10v494z" />
    <glyph glyph-name="Iogonek" unicode="&#x12e;" horiz-adv-x="369" 
d="M309 697v-687l-35 -2q-15 -11 -31 -27t-29.5 -33.5t-22 -35.5t-8.5 -33q0 -11 6 -17.5t23 -6.5q11 0 20 1t16 3q8 2 14 5l2 -85q-11 -9 -29 -16q-15 -6 -37.5 -10.5t-53.5 -3.5t-53 11.5t-35.5 26t-19.5 34t-5 36.5q1 25 13 48t29 41.5t35.5 33t32.5 22.5l-62 -2v714z
" />
    <glyph glyph-name="iogonek" unicode="&#x12f;" horiz-adv-x="262" 
d="M222 -10q-15 -13 -31 -30t-29 -34.5t-21 -35t-8 -31.5q0 -11 6 -17.5t23 -6.5q11 0 20 1t16 3q8 2 14 5l2 -85q-11 -9 -29 -16q-15 -6 -37.5 -10.5t-53.5 -3.5t-53 11.5t-35.5 26t-19.5 34t-5 36.5q1 27 14.5 51t32.5 43.5t38.5 33.5t32.5 22l-77 9v494l200 -5v-495z
M19 687q0 22 8.5 41t23 33.5t33.5 23t41 8.5t41.5 -8.5t34 -23t23 -33.5t8.5 -41t-8.5 -41.5t-23 -34t-34 -23t-41.5 -8.5t-41 8.5t-33.5 23t-23 34t-8.5 41.5z" />
    <glyph glyph-name="Idotaccent" unicode="&#x130;" horiz-adv-x="350" 
d="M290 697v-687l-230 -10v714zM77 895q0 21 8 40t22.5 33.5t33.5 22.5t40 8q22 0 41 -8t33 -22.5t22.5 -33.5t8.5 -40q0 -22 -8.5 -41t-22.5 -33.5t-33 -22.5t-41 -8q-21 0 -40 8t-33.5 22.5t-22.5 33.5t-8 41z" />
    <glyph glyph-name="dotlessi" unicode="&#x131;" horiz-adv-x="260" 
d="M30 490l200 -5v-499l-200 10v494z" />
    <glyph glyph-name="Kcommaaccent" unicode="&#x136;" horiz-adv-x="720" 
d="M282 -199q0 20 7.5 37.5t21 31t31.5 21t38 7.5q41 0 68.5 -28.5t29.5 -68.5q2 -75 -23.5 -131.5t-67.5 -91.5h-17q-6 0 -11.5 -0.5t-5.5 0.5q7 9 18.5 28.5t18.5 39.5t6 36.5t-17 19.5q-40 1 -68.5 29t-28.5 70zM293 697v-687l-230 -10l-3 730zM460 703l237 -1l-179 -352
l202 -350l-260 20l-167 330z" />
    <glyph glyph-name="kcommaaccent" unicode="&#x137;" horiz-adv-x="580" 
d="M196 -180q3 18 12.5 33.5t23.5 26.5t31.5 16t36.5 2t34.5 -12.5t26 -23.5t15.5 -31.5t3 -35.5q-7 -70 -38 -119.5t-75 -76.5q-8 1 -15 2q-6 1 -11 1t-5 1q7 7 20 24t22.5 35t10.5 33.5t-14 20.5q-37 5 -60 35t-18 69zM30 700l210 10l-10 -722l-200 10v702zM346 481
l209 -1l-114 -240l139 -250l-230 10l-110 240z" />
    <glyph glyph-name="Lacute" unicode="&#x139;" horiz-adv-x="616" 
d="M299 690l14 -480l281 10l2 -214l-518 -14l-18 728zM267 1034l113 -115l-190 -130q-20 25 -35 44q-14 17 -24.5 31t-12.5 15z" />
    <glyph glyph-name="lacute" unicode="&#x13a;" horiz-adv-x="357" 
d="M0 709l290 -19v-700l-199 10v527l-91 12v170zM244 1029l113 -115l-190 -130q-20 25 -35 44q-14 17 -24.5 31t-12.5 15z" />
    <glyph glyph-name="Lcommaaccent" unicode="&#x13b;" horiz-adv-x="616" 
d="M241 -199q0 20 7.5 37.5t21 31t31.5 21t38 7.5q41 0 68.5 -28.5t29.5 -68.5q2 -75 -23.5 -131.5t-67.5 -91.5h-17q-6 0 -11.5 -0.5t-5.5 0.5q7 9 18.5 28.5t18.5 39.5t6 36.5t-17 19.5q-40 1 -68.5 29t-28.5 70zM299 690l14 -480l281 10l2 -214l-518 -14l-18 728z" />
    <glyph glyph-name="lcommaaccent" unicode="&#x13c;" horiz-adv-x="320" 
d="M87 -199q0 20 7.5 37.5t21 31t31.5 21t38 7.5q41 0 68.5 -28.5t29.5 -68.5q2 -75 -23.5 -131.5t-67.5 -91.5h-17q-6 0 -11.5 -0.5t-5.5 0.5q7 9 18.5 28.5t18.5 39.5t6 36.5t-17 19.5q-40 1 -68.5 29t-28.5 70zM0 709l290 -19v-700l-199 10v527l-91 12v170z" />
    <glyph glyph-name="Lcaron" unicode="&#x13d;" horiz-adv-x="616" 
d="M334 616q0 20 7.5 37.5t21 31t31.5 21t38 7.5q41 0 68.5 -28.5t29.5 -68.5q2 -75 -23.5 -131.5t-67.5 -91.5h-17q-6 0 -11.5 -0.5t-5.5 0.5q7 9 18.5 28.5t18.5 39.5t6 36.5t-17 19.5q-40 1 -68.5 29t-28.5 70zM299 690l14 -480l281 10l2 -214l-518 -14l-18 728z" />
    <glyph glyph-name="lcaron" unicode="&#x13e;" horiz-adv-x="465" 
d="M321 639q3 18 12.5 33.5t23.5 26.5t31.5 16t36.5 2t34.5 -12.5t26 -23.5t15.5 -31.5t3 -35.5q-7 -70 -38 -119.5t-75 -76.5q-8 1 -15 2q-6 1 -11 1t-5 1q7 7 20 24t22.5 35t10.5 33.5t-14 20.5q-37 5 -60 35t-18 69zM0 709l290 -19v-700l-199 10v527l-91 12v170z" />
    <glyph glyph-name="Lslash" unicode="&#x141;" horiz-adv-x="639" 
d="M322 690l4 -129l67 28l17 -206q-10 -5 -22 -9q-11 -4 -25 -9.5t-31 -11.5l4 -143l281 10l2 -214l-518 -14l-7 271q-33 -13 -54 -20.5t-19 -5.5v196l69 29l-7 258z" />
    <glyph glyph-name="lslash" unicode="&#x142;" horiz-adv-x="391" 
d="M290 279v-289l-199 10v210l-80 -27l-6 183l86 30v131l-91 12v170l290 -19v-225l81 29l-2 -187z" />
    <glyph glyph-name="Nacute" unicode="&#x143;" 
d="M264 0h-200l-4 703l154 -13l219 -320l10 330l220 10l-20 -710h-160l-209 280zM447 1036l113 -115l-190 -130q-20 25 -35 44q-14 17 -24.5 31t-12.5 15z" />
    <glyph glyph-name="nacute" unicode="&#x144;" horiz-adv-x="571" 
d="M540 -10l-220 10v243v20.5t-3 29.5t-11.5 27t-25.5 13q-11 1 -18.5 -3t-12 -8.5t-7 -8l-2.5 -3.5l1 -313h-210l-1 513h210v-84q2 4 8 18t20.5 28.5t39 26t62.5 11.5q49 0 81.5 -20.5t52.5 -55.5t28.5 -82t8.5 -99zM381 806l113 -115l-190 -130q-20 25 -35 44
q-14 17 -24.5 31t-12.5 15z" />
    <glyph glyph-name="Ncommaaccent" unicode="&#x145;" 
d="M280 -199q0 20 7.5 37.5t21 31t31.5 21t38 7.5q41 0 68.5 -28.5t29.5 -68.5q2 -75 -23.5 -131.5t-67.5 -91.5h-17q-6 0 -11.5 -0.5t-5.5 0.5q7 9 18.5 28.5t18.5 39.5t6 36.5t-17 19.5q-40 1 -68.5 29t-28.5 70zM264 0h-200l-4 703l154 -13l219 -320l10 330l220 10
l-20 -710h-160l-209 280z" />
    <glyph glyph-name="ncommaaccent" unicode="&#x146;" horiz-adv-x="571" 
d="M193 -177q3 18 12.5 33.5t23.5 26.5t31.5 16t36.5 2t34.5 -12.5t26 -23.5t15.5 -31.5t3 -35.5q-7 -70 -38 -119.5t-75 -76.5q-8 1 -15 2q-6 1 -11 1t-5 1q7 7 20 24t22.5 35t10.5 33.5t-14 20.5q-37 5 -60 35t-18 69zM540 -10l-220 10v243v20.5t-3 29.5t-11.5 27
t-25.5 13q-11 1 -18.5 -3t-12 -8.5t-7 -8l-2.5 -3.5l1 -313h-210l-1 513h210v-84q2 4 8 18t20.5 28.5t39 26t62.5 11.5q49 0 81.5 -20.5t52.5 -55.5t28.5 -82t8.5 -99z" />
    <glyph glyph-name="Ncaron" unicode="&#x147;" 
d="M264 0h-200l-4 703l154 -13l219 -320l10 330l220 10l-20 -710h-160l-209 280zM337 996q9 -19 17 -34q3 -7 6.5 -13t5.5 -11q3 -6 6 -11q0 -1 4.5 10t9.5 25q6 16 14 35l160 -5l-136 -210h-100l-130 214h143z" />
    <glyph glyph-name="ncaron" unicode="&#x148;" horiz-adv-x="571" 
d="M540 -10l-220 10v243v20.5t-3 29.5t-11.5 27t-25.5 13q-11 1 -18.5 -3t-12 -8.5t-7 -8l-2.5 -3.5l1 -313h-210l-1 513h210v-84q2 4 8 18t20.5 28.5t39 26t62.5 11.5q49 0 81.5 -20.5t52.5 -55.5t28.5 -82t8.5 -99zM256 785q9 -19 17 -34q3 -7 6.5 -13t5.5 -11q3 -6 6 -11
q0 -1 4.5 10t9.5 25q6 16 14 35l160 -5l-136 -210h-100l-130 214h143z" />
    <glyph glyph-name="Omacron" unicode="&#x14c;" horiz-adv-x="779" 
d="M262 941l283 -7v-140l-283 17v130zM408 730q49 0 107 -20t107.5 -66t83 -120.5t33.5 -183.5q0 -98 -29 -168t-77 -115t-109 -66t-125 -21t-128 21.5t-115.5 68.5t-83.5 121t-32 179q0 77 18.5 134.5t48.5 98.5t68.5 67.5t79.5 42t81 21.5t72 6zM389 520q-23 0 -41 -15.5
t-31 -41t-20 -57.5t-7 -66q0 -38 8.5 -70.5t24.5 -56.5t38 -37.5t48 -11.5q42 2 66 47.5t24 128.5q0 52 -9 86.5t-24 55.5t-35 29.5t-42 8.5z" />
    <glyph glyph-name="omacron" unicode="&#x14d;" horiz-adv-x="591" 
d="M171 730l283 -7v-140l-283 17v130zM304 520q36 0 82 -15t87.5 -49t69.5 -89.5t28 -135.5q0 -72 -23 -123t-61 -83.5t-87.5 -48t-102.5 -15.5q-60 0 -110.5 16.5t-87.5 51.5t-58 90t-21 132q0 57 14.5 99t38 72t54 49t62 30t61.5 15t54 4zM292 343q-17 -1 -27 -11.5
t-15.5 -26.5t-7.5 -35.5t-2 -38.5q0 -21 2.5 -40.5t8.5 -35t17.5 -25t29.5 -9.5q30 0 41.5 32t11.5 78q0 58 -16 86t-43 26z" />
    <glyph glyph-name="Ohungarumlaut" unicode="&#x150;" horiz-adv-x="779" 
d="M408 730q49 0 107 -20t107.5 -66t83 -120.5t33.5 -183.5q0 -98 -29 -168t-77 -115t-109 -66t-125 -21t-128 21.5t-115.5 68.5t-83.5 121t-32 179q0 77 18.5 134.5t48.5 98.5t68.5 67.5t79.5 42t81 21.5t72 6zM389 520q-23 0 -41 -15.5t-31 -41t-20 -57.5t-7 -66
q0 -38 8.5 -70.5t24.5 -56.5t38 -37.5t48 -11.5q42 2 66 47.5t24 128.5q0 52 -9 86.5t-24 55.5t-35 29.5t-42 8.5zM311 992h150l-94 -200q-32 -1 -57 -1h-39.5t-19.5 1zM493 991l143 -9l-87 -191q-32 -1 -57 -1h-39.5t-19.5 1z" />
    <glyph glyph-name="ohungarumlaut" unicode="&#x151;" horiz-adv-x="591" 
d="M304 520q36 0 82 -15t87.5 -49t69.5 -89.5t28 -135.5q0 -72 -23 -123t-61 -83.5t-87.5 -48t-102.5 -15.5q-60 0 -110.5 16.5t-87.5 51.5t-58 90t-21 132q0 57 14.5 99t38 72t54 49t62 30t61.5 15t54 4zM292 343q-17 -1 -27 -11.5t-15.5 -26.5t-7.5 -35.5t-2 -38.5
q0 -21 2.5 -40.5t8.5 -35t17.5 -25t29.5 -9.5q30 0 41.5 32t11.5 78q0 58 -16 86t-43 26zM204 770h150l-94 -200q-32 -1 -57 -1h-39.5t-19.5 1zM386 769l143 -9l-87 -191q-32 -1 -57 -1h-39.5t-19.5 1z" />
    <glyph glyph-name="OE" unicode="&#x152;" horiz-adv-x="1000" 
d="M450 720q11 0 14 -0.5t12.5 -1t33 -1.5t75.5 -2t139.5 -2.5t225.5 -2.5l-10 -200l-249 -17l1 -60l218 3l-4 -186l-225 -1v-56l289 7l-6 -221l-524 -9q-86 -2 -159.5 18t-127 65.5t-83.5 118.5t-30 178q0 77 18 134.5t48.5 98.5t71 67.5t86 42t93.5 21.5t93 6zM451 520
q0 -1 -12 -2t-30 -7t-38.5 -17.5t-38.5 -32.5t-30 -53t-12 -78q0 -49 13.5 -83.5t35 -56.5t48.5 -32t53 -8l4 190z" />
    <glyph glyph-name="oe" unicode="&#x153;" horiz-adv-x="846" 
d="M590 520q60 0 100.5 -20.5t67 -52.5t40 -71t20 -77t7 -70.5t0.5 -50.5l-27.5 -1.5t-68 -3t-87.5 -3t-87 -1.5q12 -22 37 -35.5t48 -13.5q26 0 48 4.5t38 10.5q18 6 34 15l-4 -136q-17 -12 -39 -22q-19 -8 -46 -15t-61 -7q-49 0 -82 12.5t-53.5 27.5t-30 27.5l-9.5 12.5
q-13 -22 -34 -40q-18 -15 -47.5 -28t-73.5 -12q-47 0 -93 15t-83.5 48.5t-60.5 87t-23 130.5q0 85 26.5 137.5t65.5 82t83 39.5t80 10q39 0 68 -12.5t47 -27t26.5 -26.5t7.5 -11l7.5 12t26.5 26.5t51 26.5t81 12zM271 351q-13 0 -21 -10.5t-12 -27t-5 -36t-1 -38.5
q0 -21 2 -40.5t7.5 -35t14 -25t21.5 -9.5t20 8.5t10.5 23.5t4 35t0.5 43q0 58 -10.5 85t-30.5 27zM600 356q-16 0 -26 -10t-15 -21t-7 -21l-2 -10l93 -4q0 12 -1.5 24t-6.5 21.5t-13.5 15t-21.5 5.5z" />
    <glyph glyph-name="Racute" unicode="&#x154;" horiz-adv-x="701" 
d="M332 713q90 4 151 -12.5t98.5 -48t54 -76t16.5 -96.5q0 -57 -14 -91.5t-31 -54.5q-20 -23 -45 -34v-10l139 -290h-259l-117 260l-30 2l-1 -262l-234 -3l2 705zM293 456q11 -2 23 -3q11 -1 24.5 -1.5t28.5 -0.5t24.5 6.5t9.5 21.5q0 17 -11.5 22t-24.5 4l-75 -5zM394 1034
l113 -115l-190 -130q-20 25 -35 44q-14 17 -24.5 31t-12.5 15z" />
    <glyph glyph-name="racute" unicode="&#x155;" horiz-adv-x="499" 
d="M30 510h210v-150q8 31 21 58q11 23 28 45.5t40 32.5q32 14 62.5 15t54.5 -2q28 -4 53 -13l-20 -200h-19q-10 5 -26 13.5t-46 7.5q-48 0 -77.5 -21.5t-45 -47t-20.5 -46.5t-5 -20v-192h-210v520zM344 803l113 -115l-190 -130q-20 25 -35 44q-14 17 -24.5 31t-12.5 15z" />
    <glyph glyph-name="Rcommaaccent" unicode="&#x156;" horiz-adv-x="701" 
d="M278 -180q3 18 12.5 33.5t23.5 26.5t31.5 16t36.5 2t34.5 -12.5t26 -23.5t15.5 -31.5t3 -35.5q-7 -70 -38 -119.5t-75 -76.5q-8 1 -15 2q-6 1 -11 1t-5 1q7 7 20 24t22.5 35t10.5 33.5t-14 20.5q-37 5 -60 35t-18 69zM332 713q90 4 151 -12.5t98.5 -48t54 -76t16.5 -96.5
q0 -57 -14 -91.5t-31 -54.5q-20 -23 -45 -34v-10l139 -290h-259l-117 260l-30 2l-1 -262l-234 -3l2 705zM293 456q11 -2 23 -3q11 -1 24.5 -1.5t28.5 -0.5t24.5 6.5t9.5 21.5q0 17 -11.5 22t-24.5 4l-75 -5z" />
    <glyph glyph-name="rcommaaccent" unicode="&#x157;" horiz-adv-x="499" 
d="M39 -180q3 18 12.5 33.5t23.5 26.5t31.5 16t36.5 2t34.5 -12.5t26 -23.5t15.5 -31.5t3 -35.5q-7 -70 -38 -119.5t-75 -76.5q-8 1 -15 2q-6 1 -11 1t-5 1q7 7 20 24t22.5 35t10.5 33.5t-14 20.5q-37 5 -60 35t-18 69zM30 510h210v-150q8 31 21 58q11 23 28 45.5t40 32.5
q32 14 62.5 15t54.5 -2q28 -4 53 -13l-20 -200h-19q-10 5 -26 13.5t-46 7.5q-48 0 -77.5 -21.5t-45 -47t-20.5 -46.5t-5 -20v-192h-210v520z" />
    <glyph glyph-name="Rcaron" unicode="&#x158;" horiz-adv-x="701" 
d="M332 713q90 4 151 -12.5t98.5 -48t54 -76t16.5 -96.5q0 -57 -14 -91.5t-31 -54.5q-20 -23 -45 -34v-10l139 -290h-259l-117 260l-30 2l-1 -262l-234 -3l2 705zM293 456q11 -2 23 -3q11 -1 24.5 -1.5t28.5 -0.5t24.5 6.5t9.5 21.5q0 17 -11.5 22t-24.5 4l-75 -5zM302 989
q9 -19 17 -34q3 -7 6.5 -13t5.5 -11q3 -6 6 -11q0 -1 4.5 10t9.5 25q6 16 14 35l160 -5l-136 -210h-100l-130 214h143z" />
    <glyph glyph-name="rcaron" unicode="&#x159;" horiz-adv-x="499" 
d="M30 510h210v-150q8 31 21 58q11 23 28 45.5t40 32.5q32 14 62.5 15t54.5 -2q28 -4 53 -13l-20 -200h-19q-10 5 -26 13.5t-46 7.5q-48 0 -77.5 -21.5t-45 -47t-20.5 -46.5t-5 -20v-192h-210v520zM231 783q9 -19 17 -34q3 -7 6.5 -13t5.5 -11q3 -6 6 -11q0 -1 4.5 10
t9.5 25q6 16 14 35l160 -5l-136 -210h-100l-130 214h143z" />
    <glyph glyph-name="Sacute" unicode="&#x15a;" horiz-adv-x="688" 
d="M500 460l-8 12.5t-24 27.5t-38.5 27.5t-51.5 12.5q-38 0 -54.5 -15t-15.5 -35q1 -22 27 -34t65 -22.5t84 -24t83.5 -38.5t64.5 -65.5t26 -105.5q0 -38 -19 -78.5t-58.5 -74t-99.5 -55.5t-142 -22q-52 0 -92.5 9.5t-72 25t-54.5 35t-39 40.5q-38 48 -51 111l208 79
q12 -26 27 -45q13 -17 31.5 -31t41.5 -14q32 0 46 13t13 31q-1 23 -26.5 35.5t-63 23t-81 23.5t-80.5 36t-62 60.5t-25 97.5q0 67 26 111.5t67.5 71t92 37t99.5 10.5q77 0 132 -23.5t92 -51.5q42 -33 72 -75zM426 1036l113 -115l-190 -130q-20 25 -35 44q-14 17 -24.5 31
t-12.5 15z" />
    <glyph glyph-name="sacute" unicode="&#x15b;" horiz-adv-x="561" 
d="M425 316l-7.5 8.5t-19 19.5t-25.5 20.5t-27 9.5q-17 1 -26 -6t-10 -18q-1 -16 16 -26.5t43.5 -20t57.5 -22t57 -32.5t42 -51t14 -78q-2 -39 -20 -70t-49.5 -53.5t-75 -34.5t-95.5 -12q-45 0 -81 8t-64 21.5t-49 30.5t-36 35q-35 41 -50 95l190 50q2 -13 7 -24
q4 -9 11.5 -17t18.5 -9q29 -3 31 20q1 17 -15 25.5t-41 15.5t-54.5 15.5t-55 25t-42.5 44.5t-17 73q0 51 21 85.5t56.5 55.5t81 30.5t94.5 9.5q57 0 101 -18.5t73 -41.5q34 -26 60 -60zM369 826l113 -115l-190 -130q-20 25 -35 44q-14 17 -24.5 31t-12.5 15z" />
    <glyph glyph-name="Scedilla" unicode="&#x15e;" horiz-adv-x="688" 
d="M500 460l-8 12.5t-24 27.5t-38.5 27.5t-51.5 12.5q-38 0 -54.5 -15t-15.5 -35q1 -22 27 -34t65 -22.5t84 -24t83.5 -38.5t64.5 -65.5t26 -105.5q0 -34 -15.5 -70.5t-47 -68t-80 -55.5t-114.5 -32l-14 -42q33 -3 52 -17.5t28.5 -33t11 -37.5t0.5 -31q-4 -44 -36 -72
t-78 -31q-40 -3 -67.5 3t-45.5 15q-21 10 -34 24l56 69l12 -8q5 -3 12 -5.5t13 -2.5q15 0 20.5 7.5t5.5 18.5q0 13 -12 20t-26 11q-17 4 -38 6l14 38q6 16 12 34t11 32q-45 4 -80 15.5t-62 27.5t-47 35t-34 39q-33 46 -45 102l208 79q12 -26 27 -45q13 -17 31.5 -31
t41.5 -14q32 0 46 13t13 31q-1 23 -26.5 35.5t-63 23t-81 23.5t-80.5 36t-62 60.5t-25 97.5q0 67 26 111.5t67.5 71t92 37t99.5 10.5q77 0 132 -23.5t92 -51.5q42 -33 72 -75z" />
    <glyph glyph-name="scedilla" unicode="&#x15f;" horiz-adv-x="561" 
d="M425 316l-7.5 8.5t-19 19.5t-25.5 20.5t-27 9.5q-17 1 -26 -6t-10 -18q-1 -16 16 -26.5t43.5 -20t57.5 -22t57 -32.5t42 -51t14 -78q-4 -69 -56.5 -113.5t-139.5 -53.5l-13 -37q33 -3 52 -17.5t28.5 -33t11 -37.5t0.5 -31q-4 -44 -36 -72t-78 -31q-40 -3 -67.5 3
t-45.5 15q-21 10 -34 24l56 69l12 -8q5 -3 12 -5.5t13 -2.5q15 0 20.5 7.5t5.5 18.5q0 13 -12 20t-26 11q-17 4 -38 6q6 20 13 38q5 16 11.5 33.5t11.5 31.5q-35 5 -63.5 16t-50.5 25t-38.5 30t-28.5 32q-28 38 -40 82l190 50q2 -13 7 -24q4 -9 11.5 -17t18.5 -9
q29 -3 31 20q1 17 -15 25.5t-41 15.5t-54.5 15.5t-55 25t-42.5 44.5t-17 73q0 51 21 85.5t56.5 55.5t81 30.5t94.5 9.5q57 0 101 -18.5t73 -41.5q34 -26 60 -60z" />
    <glyph glyph-name="Scaron" unicode="&#x160;" horiz-adv-x="688" 
d="M500 460l-8 12.5t-24 27.5t-38.5 27.5t-51.5 12.5q-38 0 -54.5 -15t-15.5 -35q1 -22 27 -34t65 -22.5t84 -24t83.5 -38.5t64.5 -65.5t26 -105.5q0 -38 -19 -78.5t-58.5 -74t-99.5 -55.5t-142 -22q-52 0 -92.5 9.5t-72 25t-54.5 35t-39 40.5q-38 48 -51 111l208 79
q12 -26 27 -45q13 -17 31.5 -31t41.5 -14q32 0 46 13t13 31q-1 23 -26.5 35.5t-63 23t-81 23.5t-80.5 36t-62 60.5t-25 97.5q0 67 26 111.5t67.5 71t92 37t99.5 10.5q77 0 132 -23.5t92 -51.5q42 -33 72 -75zM319 999q9 -19 17 -34q3 -7 6.5 -13t5.5 -11q3 -6 6 -11
q0 -1 4.5 10t9.5 25q6 16 14 35l160 -5l-136 -210h-100l-130 214h143z" />
    <glyph glyph-name="scaron" unicode="&#x161;" horiz-adv-x="561" 
d="M425 316l-7.5 8.5t-19 19.5t-25.5 20.5t-27 9.5q-17 1 -26 -6t-10 -18q-1 -16 16 -26.5t43.5 -20t57.5 -22t57 -32.5t42 -51t14 -78q-2 -39 -20 -70t-49.5 -53.5t-75 -34.5t-95.5 -12q-45 0 -81 8t-64 21.5t-49 30.5t-36 35q-35 41 -50 95l190 50q2 -13 7 -24
q4 -9 11.5 -17t18.5 -9q29 -3 31 20q1 17 -15 25.5t-41 15.5t-54.5 15.5t-55 25t-42.5 44.5t-17 73q0 51 21 85.5t56.5 55.5t81 30.5t94.5 9.5q57 0 101 -18.5t73 -41.5q34 -26 60 -60zM265 802q9 -19 17 -34q3 -7 6.5 -13t5.5 -11q3 -6 6 -11q0 -1 4.5 10t9.5 25
q6 16 14 35l160 -5l-136 -210h-100l-130 214h143z" />
    <glyph glyph-name="Tcommaaccent" unicode="&#x162;" horiz-adv-x="655" 
d="M225 -180q3 18 12.5 33.5t23.5 26.5t31.5 16t36.5 2t34.5 -12.5t26 -23.5t15.5 -31.5t3 -35.5q-7 -70 -38 -119.5t-75 -76.5q-8 1 -15 2q-6 1 -11 1t-5 1q7 7 20 24t22.5 35t10.5 33.5t-14 20.5q-37 5 -60 35t-18 69zM635 700v-194l-200 4l6 -510l-239 11l7 499l-189 -12
l5 212z" />
    <glyph glyph-name="tcommaaccent" unicode="&#x163;" horiz-adv-x="465" 
d="M149 -180q3 18 12.5 33.5t23.5 26.5t31.5 16t36.5 2t34.5 -12.5t26 -23.5t15.5 -31.5t3 -35.5q-7 -70 -38 -119.5t-75 -76.5q-8 1 -15 2q-6 1 -11 1t-5 1q7 7 20 24t22.5 35t10.5 33.5t-14 20.5q-37 5 -60 35t-18 69zM20 482h55v88l201 30l-1 -118l105 -2l10 -180l-115 2
v-94q1 -14 5 -25q4 -10 12 -17.5t23 -7.5q19 0 35.5 4.5t28.5 10.5q14 6 26 15l40 -180q-19 -11 -43 -20q-21 -8 -50 -14t-67 -6q-60 0 -100.5 19t-64.5 51t-34.5 73.5t-10.5 86.5v104h-55v180z" />
    <glyph glyph-name="Tcaron" unicode="&#x164;" horiz-adv-x="655" 
d="M635 700v-194l-200 4l6 -510l-239 11l7 499l-189 -12l5 212zM297 990q9 -19 17 -34q3 -7 6.5 -13t5.5 -11q3 -6 6 -11q0 -1 4.5 10t9.5 25q6 16 14 35l160 -5l-136 -210h-100l-130 214h143z" />
    <glyph glyph-name="tcaron" unicode="&#x165;" horiz-adv-x="510" 
d="M356 631q3 18 12.5 33.5t23.5 26.5t31.5 16t36.5 2t34.5 -12.5t26 -23.5t15.5 -31.5t3 -35.5q-7 -70 -38 -119.5t-75 -76.5q-8 1 -15 2q-6 1 -11 1t-5 1q7 7 20 24t22.5 35t10.5 33.5t-14 20.5q-37 5 -60 35t-18 69zM20 482h55v88l201 30l-1 -118l105 -2l10 -180l-115 2
v-94q1 -14 5 -25q4 -10 12 -17.5t23 -7.5q19 0 35.5 4.5t28.5 10.5q14 6 26 15l40 -180q-19 -11 -43 -20q-21 -8 -50 -14t-67 -6q-60 0 -100.5 19t-64.5 51t-34.5 73.5t-10.5 86.5v104h-55v180z" />
    <glyph glyph-name="Umacron" unicode="&#x16a;" horiz-adv-x="740" 
d="M235 933l283 -7v-140l-283 17v130zM290 680l5 -400q0 -28 9 -50q8 -19 25 -34.5t51 -14.5q22 0 36 8t21.5 20.5t10 28t2.5 32.5l-1 420l226 6l5 -426q0 -60 -15 -114.5t-49.5 -95.5t-92 -65.5t-143.5 -24.5t-147 24.5t-99.5 66.5t-56 98.5t-17.5 120.5v420z" />
    <glyph glyph-name="umacron" unicode="&#x16b;" horiz-adv-x="570" 
d="M155 727l283 -7v-140l-283 17v130zM275 -50q-121 0 -183 69t-62 212l1 263l210 -10v-243q0 -15 1 -31.5t5.5 -29.5t13.5 -21.5t24 -8.5t23.5 8.5t13 21.5t6 29.5t1.5 31.5v243l210 10l1 -263q0 -71 -20.5 -124t-56 -88t-84 -52t-104.5 -17z" />
    <glyph glyph-name="Uring" unicode="&#x16e;" horiz-adv-x="740" 
d="M290 680l5 -400q0 -28 9 -50q8 -19 25 -34.5t51 -14.5q22 0 36 8t21.5 20.5t10 28t2.5 32.5l-1 420l226 6l5 -426q0 -60 -15 -114.5t-49.5 -95.5t-92 -65.5t-143.5 -24.5t-147 24.5t-99.5 66.5t-56 98.5t-17.5 120.5v420zM500 910q0 -26 -8.5 -49t-24.5 -40.5t-39.5 -27
t-53.5 -9.5q-28 0 -52 10t-41 27t-27 40t-10 49q0 32 10.5 56t28.5 39.5t41.5 23t49.5 7.5t49 -10t40 -27t27 -40t10 -49zM412 913q0 13 -8.5 27.5t-27.5 14.5q-22 0 -31 -12.5t-7 -29.5q2 -19 12 -28t26 -9q17 0 26.5 12t9.5 25z" />
    <glyph glyph-name="uring" unicode="&#x16f;" horiz-adv-x="570" 
d="M275 -50q-121 0 -183 69t-62 212l1 263l210 -10v-243q0 -15 1 -31.5t5.5 -29.5t13.5 -21.5t24 -8.5t23.5 8.5t13 21.5t6 29.5t1.5 31.5v243l210 10l1 -263q0 -71 -20.5 -124t-56 -88t-84 -52t-104.5 -17zM414 687q0 -26 -8.5 -49t-24.5 -40.5t-39.5 -27t-53.5 -9.5
q-28 0 -52 10t-41 27t-27 40t-10 49q0 32 10.5 56t28.5 39.5t41.5 23t49.5 7.5t49 -10t40 -27t27 -40t10 -49zM326 690q0 13 -8.5 27.5t-27.5 14.5q-22 0 -31 -12.5t-7 -29.5q2 -19 12 -28t26 -9q17 0 26.5 12t9.5 25z" />
    <glyph glyph-name="Uhungarumlaut" unicode="&#x170;" horiz-adv-x="740" 
d="M290 680l5 -400q0 -28 9 -50q8 -19 25 -34.5t51 -14.5q22 0 36 8t21.5 20.5t10 28t2.5 32.5l-1 420l226 6l5 -426q0 -60 -15 -114.5t-49.5 -95.5t-92 -65.5t-143.5 -24.5t-147 24.5t-99.5 66.5t-56 98.5t-17.5 120.5v420zM286 998h150l-94 -200q-32 -1 -57 -1h-39.5
t-19.5 1zM468 997l143 -9l-87 -191q-32 -1 -57 -1h-39.5t-19.5 1z" />
    <glyph glyph-name="uhungarumlaut" unicode="&#x171;" horiz-adv-x="570" 
d="M275 -50q-121 0 -183 69t-62 212l1 263l210 -10v-243q0 -15 1 -31.5t5.5 -29.5t13.5 -21.5t24 -8.5t23.5 8.5t13 21.5t6 29.5t1.5 31.5v243l210 10l1 -263q0 -71 -20.5 -124t-56 -88t-84 -52t-104.5 -17zM194 775h150l-94 -200q-32 -1 -57 -1h-39.5t-19.5 1zM376 774
l143 -9l-87 -191q-32 -1 -57 -1h-39.5t-19.5 1z" />
    <glyph glyph-name="Uogonek" unicode="&#x172;" horiz-adv-x="740" 
d="M290 680l5 -400q0 -28 9 -50q8 -19 25 -34.5t51 -14.5q22 0 36 8t21.5 20.5t10 28t2.5 32.5l-1 420l226 6l5 -426q0 -52 -11 -99.5t-35.5 -86.5t-65 -66.5t-100.5 -39.5q-14 -12 -29 -27.5t-27.5 -32.5t-20 -33.5t-7.5 -30.5q0 -11 6 -17.5t23 -6.5q11 0 20 1t16 3
q8 2 14 5l2 -85q-11 -9 -29 -16q-15 -6 -37.5 -10.5t-53.5 -3.5t-53 11.5t-35.5 26t-19.5 34t-5 36.5q0 24 11 45.5t26.5 39.5t33 32t31.5 23q-74 7 -126 33.5t-85 67.5t-48 94t-15 113v420z" />
    <glyph glyph-name="uogonek" unicode="&#x173;" horiz-adv-x="570" 
d="M393 -27q-13 -11 -29 -27.5t-29.5 -34.5t-22 -36t-8.5 -33q0 -11 6 -17.5t23 -6.5q11 0 20 1t16 3q8 2 14 5l2 -85q-11 -9 -29 -16q-15 -6 -37.5 -10.5t-53.5 -3.5t-53 11.5t-35.5 26t-19.5 34t-5 36.5q0 21 9 40.5t22 36.5t28.5 30.5t29.5 24.5q-104 9 -157.5 77.5
t-53.5 201.5l1 263l210 -10v-243q0 -15 1 -31.5t5.5 -29.5t13.5 -21.5t24 -8.5t23.5 8.5t13 21.5t6 29.5t1.5 31.5v243l210 10l1 -263q0 -103 -40.5 -166.5t-106.5 -91.5z" />
    <glyph glyph-name="Ydieresis" unicode="&#x178;" horiz-adv-x="705" 
d="M0 690l249 20l117 -212l89 212l250 -10l-233 -397l-10 -303h-221l1 303zM150 886q0 38 26.5 64t63.5 26q19 0 35.5 -7t29 -19t19.5 -28.5t7 -35.5t-7 -35.5t-19.5 -29t-29 -19.5t-35.5 -7q-37 0 -63.5 26.5t-26.5 64.5zM391 890q0 38 26.5 64t63.5 26q19 0 35.5 -7
t29 -19t19.5 -28.5t7 -35.5t-7 -35.5t-19.5 -29t-29 -19.5t-35.5 -7q-37 0 -63.5 26.5t-26.5 64.5z" />
    <glyph glyph-name="Zacute" unicode="&#x179;" horiz-adv-x="662" 
d="M612 704l-5 -160l-257 -334l282 10l-10 -220h-562v170l232 313l-222 -13l-20 220zM420 1038l113 -115l-190 -130q-20 25 -35 44q-14 17 -24.5 31t-12.5 15z" />
    <glyph glyph-name="zacute" unicode="&#x17a;" horiz-adv-x="542" 
d="M30 470q12 25 33 45q18 17 48.5 31t75.5 14q35 0 58 -7.5t38.5 -18.5t26 -24t20 -24t20.5 -18.5t29 -7.5q22 0 38.5 6.5t28.5 16t19.5 19.5t11.5 18h22l2 -190l-182 -140l183 -20l10 -190h-460v160l267 220q-11 -13 -23 -22q-11 -8 -24 -14t-28 -4q-17 1 -27.5 9
t-20.5 17t-22 16.5t-31 7.5q-26 0 -43.5 -11t-28.5 -24q-12 -16 -19 -35h-20zM360 833l113 -115l-190 -130q-20 25 -35 44q-14 17 -24.5 31t-12.5 15z" />
    <glyph glyph-name="Zdotaccent" unicode="&#x17b;" horiz-adv-x="662" 
d="M612 704l-5 -160l-257 -334l282 10l-10 -220h-562v170l232 313l-222 -13l-20 220zM233 900q0 21 8 40t22.5 33.5t33.5 22.5t40 8q22 0 41 -8t33 -22.5t22.5 -33.5t8.5 -40q0 -22 -8.5 -41t-22.5 -33.5t-33 -22.5t-41 -8q-21 0 -40 8t-33.5 22.5t-22.5 33.5t-8 41z" />
    <glyph glyph-name="zdotaccent" unicode="&#x17c;" horiz-adv-x="542" 
d="M30 470q12 25 33 45q18 17 48.5 31t75.5 14q35 0 58 -7.5t38.5 -18.5t26 -24t20 -24t20.5 -18.5t29 -7.5q22 0 38.5 6.5t28.5 16t19.5 19.5t11.5 18h22l2 -190l-182 -140l183 -20l10 -190h-460v160l267 220q-11 -13 -23 -22q-11 -8 -24 -14t-28 -4q-17 1 -27.5 9
t-20.5 17t-22 16.5t-31 7.5q-26 0 -43.5 -11t-28.5 -24q-12 -16 -19 -35h-20zM203 705q0 21 8 40t22.5 33.5t33.5 22.5t40 8q22 0 41 -8t33 -22.5t22.5 -33.5t8.5 -40q0 -22 -8.5 -41t-22.5 -33.5t-33 -22.5t-41 -8q-21 0 -40 8t-33.5 22.5t-22.5 33.5t-8 41z" />
    <glyph glyph-name="Zcaron" unicode="&#x17d;" horiz-adv-x="662" 
d="M612 704l-5 -160l-257 -334l282 10l-10 -220h-562v170l232 313l-222 -13l-20 220zM304 1000q9 -19 17 -34q3 -7 6.5 -13t5.5 -11q3 -6 6 -11q0 -1 4.5 10t9.5 25q6 16 14 35l160 -5l-136 -210h-100l-130 214h143z" />
    <glyph glyph-name="zcaron" unicode="&#x17e;" horiz-adv-x="542" 
d="M30 470q12 25 33 45q18 17 48.5 31t75.5 14q35 0 58 -7.5t38.5 -18.5t26 -24t20 -24t20.5 -18.5t29 -7.5q22 0 38.5 6.5t28.5 16t19.5 19.5t11.5 18h22l2 -190l-182 -140l183 -20l10 -190h-460v160l267 220q-11 -13 -23 -22q-11 -8 -24 -14t-28 -4q-17 1 -27.5 9
t-20.5 17t-22 16.5t-31 7.5q-26 0 -43.5 -11t-28.5 -24q-12 -16 -19 -35h-20zM248 816q9 -19 17 -34q3 -7 6.5 -13t5.5 -11q3 -6 6 -11q0 -1 4.5 10t9.5 25q6 16 14 35l160 -5l-136 -210h-100l-130 214h143z" />
    <glyph glyph-name="florin" unicode="&#x192;" horiz-adv-x="430" 
d="M26 459h64v31q0 45 10.5 86.5t34.5 73.5t64.5 51t100.5 19q38 0 67 -6t50 -14q24 -9 43 -20l-40 -180q-12 8 -26 15q-12 5 -28.5 10t-35.5 5q-15 0 -23 -8t-12 -17q-4 -11 -5 -25v-21h126l-10 -180h-116v-259q0 -45 -10.5 -86.5t-34.5 -73.5t-64.5 -51t-100.5 -19
q-38 0 -68 6t-50 14q-25 9 -42 20l40 180q12 -9 26 -15q12 -6 28.5 -10.5t35.5 -4.5q15 0 23 7.5t12 17.5q4 11 5 25l-4 249h-60v180z" />
    <glyph glyph-name="Scommaaccent" unicode="&#x218;" horiz-adv-x="688" 
d="M265 -178q3 18 12.5 33.5t23.5 26.5t31.5 16t36.5 2t34.5 -12.5t26 -23.5t15.5 -31.5t3 -35.5q-7 -70 -38 -119.5t-75 -76.5q-8 1 -15 2q-6 1 -11 1t-5 1q7 7 20 24t22.5 35t10.5 33.5t-14 20.5q-37 5 -60 35t-18 69zM500 460l-8 12.5t-24 27.5t-38.5 27.5t-51.5 12.5
q-38 0 -54.5 -15t-15.5 -35q1 -22 27 -34t65 -22.5t84 -24t83.5 -38.5t64.5 -65.5t26 -105.5q0 -38 -19 -78.5t-58.5 -74t-99.5 -55.5t-142 -22q-52 0 -92.5 9.5t-72 25t-54.5 35t-39 40.5q-38 48 -51 111l208 79q12 -26 27 -45q13 -17 31.5 -31t41.5 -14q32 0 46 13t13 31
q-1 23 -26.5 35.5t-63 23t-81 23.5t-80.5 36t-62 60.5t-25 97.5q0 67 26 111.5t67.5 71t92 37t99.5 10.5q77 0 132 -23.5t92 -51.5q42 -33 72 -75z" />
    <glyph glyph-name="scommaaccent" unicode="&#x219;" horiz-adv-x="561" 
d="M206 -180q3 18 12.5 33.5t23.5 26.5t31.5 16t36.5 2t34.5 -12.5t26 -23.5t15.5 -31.5t3 -35.5q-7 -70 -38 -119.5t-75 -76.5q-8 1 -15 2q-6 1 -11 1t-5 1q7 7 20 24t22.5 35t10.5 33.5t-14 20.5q-37 5 -60 35t-18 69zM425 316l-7.5 8.5t-19 19.5t-25.5 20.5t-27 9.5
q-17 1 -26 -6t-10 -18q-1 -16 16 -26.5t43.5 -20t57.5 -22t57 -32.5t42 -51t14 -78q-2 -39 -20 -70t-49.5 -53.5t-75 -34.5t-95.5 -12q-45 0 -81 8t-64 21.5t-49 30.5t-36 35q-35 41 -50 95l190 50q2 -13 7 -24q4 -9 11.5 -17t18.5 -9q29 -3 31 20q1 17 -15 25.5t-41 15.5
t-54.5 15.5t-55 25t-42.5 44.5t-17 73q0 51 21 85.5t56.5 55.5t81 30.5t94.5 9.5q57 0 101 -18.5t73 -41.5q34 -26 60 -60z" />
    <glyph glyph-name="uni021A" unicode="&#x21a;" horiz-adv-x="655" 
d="M225 -180q3 18 12.5 33.5t23.5 26.5t31.5 16t36.5 2t34.5 -12.5t26 -23.5t15.5 -31.5t3 -35.5q-7 -70 -38 -119.5t-75 -76.5q-8 1 -15 2q-6 1 -11 1t-5 1q7 7 20 24t22.5 35t10.5 33.5t-14 20.5q-37 5 -60 35t-18 69zM635 700v-194l-200 4l6 -510l-239 11l7 499l-189 -12
l5 212z" />
    <glyph glyph-name="uni021B" unicode="&#x21b;" horiz-adv-x="465" 
d="M149 -180q3 18 12.5 33.5t23.5 26.5t31.5 16t36.5 2t34.5 -12.5t26 -23.5t15.5 -31.5t3 -35.5q-7 -70 -38 -119.5t-75 -76.5q-8 1 -15 2q-6 1 -11 1t-5 1q7 7 20 24t22.5 35t10.5 33.5t-14 20.5q-37 5 -60 35t-18 69zM20 482h55v88l201 30l-1 -118l105 -2l10 -180l-115 2
v-94q1 -14 5 -25q4 -10 12 -17.5t23 -7.5q19 0 35.5 4.5t28.5 10.5q14 6 26 15l40 -180q-19 -11 -43 -20q-21 -8 -50 -14t-67 -6q-60 0 -100.5 19t-64.5 51t-34.5 73.5t-10.5 86.5v104h-55v180z" />
    <glyph glyph-name="afii57929" unicode="&#x2bc;" horiz-adv-x="245" 
d="M31 639q3 18 12.5 33.5t23.5 26.5t31.5 16t36.5 2t34.5 -12.5t26 -23.5t15.5 -31.5t3 -35.5q-7 -70 -38 -119.5t-75 -76.5q-8 1 -15 2q-6 1 -11 1t-5 1q7 7 20 24t22.5 35t10.5 33.5t-14 20.5q-37 5 -60 35t-18 69z" />
    <glyph glyph-name="circumflex" unicode="&#x2c6;" horiz-adv-x="426" 
d="M253 496l-18 34q-7 13 -12 23.5t-5 11.5q-1 -6 -4 -11q-2 -5 -5 -11t-5 -13q-6 -16 -14 -35l-160 5l136 210h100l130 -214h-143z" />
    <glyph glyph-name="caron" unicode="&#x2c7;" horiz-adv-x="426" 
d="M173 709q9 -19 17 -34q3 -7 6.5 -13t5.5 -11q3 -6 6 -11q0 -1 4.5 10t9.5 25q6 16 14 35l160 -5l-136 -210h-100l-130 214h143z" />
    <glyph glyph-name="breve" unicode="&#x2d8;" horiz-adv-x="420" 
d="M210 654q15 0 27.5 11t12.5 45l140 -13q0 -38 -14 -70.5t-38.5 -56.5t-57.5 -37.5t-70 -13.5q-38 0 -70.5 13t-57 38.5t-38.5 63t-14 86.5l140 -4q0 -33 12.5 -47.5t27.5 -14.5z" />
    <glyph glyph-name="dotaccent" unicode="&#x2d9;" horiz-adv-x="269" 
d="M30 602q0 21 8 40t22.5 33.5t33.5 22.5t40 8q22 0 41 -8t33 -22.5t22.5 -33.5t8.5 -40q0 -22 -8.5 -41t-22.5 -33.5t-33 -22.5t-41 -8q-21 0 -40 8t-33.5 22.5t-22.5 33.5t-8 41z" />
    <glyph glyph-name="ring" unicode="&#x2da;" horiz-adv-x="316" 
d="M286 590q0 -26 -8.5 -49t-24.5 -40.5t-39.5 -27t-53.5 -9.5q-28 0 -52 10t-41 27t-27 40t-10 49q0 32 10.5 56t28.5 39.5t41.5 23t49.5 7.5t49 -10t40 -27t27 -40t10 -49zM198 593q0 13 -8.5 27.5t-27.5 14.5q-22 0 -31 -12.5t-7 -29.5q2 -19 12 -28t26 -9q17 0 26.5 12
t9.5 25z" />
    <glyph glyph-name="ogonek" unicode="&#x2db;" horiz-adv-x="306" 
d="M276 -7q-15 -11 -31.5 -27.5t-30 -34.5t-22.5 -36t-9 -33q0 -11 6 -17.5t23 -6.5q11 0 20 1t16 3q8 2 14 5l2 -85q-11 -9 -29 -16q-15 -6 -37.5 -10.5t-53.5 -3.5t-53 11.5t-35.5 26t-19.5 34t-5 36.5q1 27 14.5 51t32.5 43.5t38.5 33.5t32.5 22l127 3v0z" />
    <glyph glyph-name="tilde" unicode="&#x2dc;" horiz-adv-x="422" 
d="M30 540l5 87q2 45 26.5 64t62.5 19q19 0 35 -8t29.5 -17t25 -17t20.5 -8q12 0 18.5 9.5t12.5 36.5l127 -16l-5 -75q-2 -23 -12 -41t-25 -31.5t-33.5 -20.5t-37.5 -7q-22 0 -35 6t-22.5 13t-16.5 13t-17 6q-19 0 -25.5 -8.5t-11.5 -29.5z" />
    <glyph glyph-name="hungarumlaut" unicode="&#x2dd;" horiz-adv-x="445" 
d="M90 740h150l-94 -200q-32 -1 -57 -1h-39.5t-19.5 1zM272 739l143 -9l-87 -191q-32 -1 -57 -1h-39.5t-19.5 1z" />
    <glyph glyph-name="afii10023" unicode="&#x401;" horiz-adv-x="656" 
d="M606 721l-10 -200l-296 -21l1 -60l265 7l-4 -186l-272 -5v-56l336 11l-6 -221h-560v710zM123 877q0 38 26.5 64t63.5 26q19 0 35.5 -7t29 -19t19.5 -28.5t7 -35.5t-7 -35.5t-19.5 -29t-29 -19.5t-35.5 -7q-37 0 -63.5 26.5t-26.5 64.5zM364 881q0 38 26.5 64t63.5 26
q19 0 35.5 -7t29 -19t19.5 -28.5t7 -35.5t-7 -35.5t-19.5 -29t-29 -19.5t-35.5 -7q-37 0 -63.5 26.5t-26.5 64.5z" />
    <glyph glyph-name="afii10051" unicode="&#x402;" horiz-adv-x="745" 
d="M700 38q0 -60 -13 -109.5t-43 -85.5t-79 -55.5t-120 -19.5q-27 0 -53 6.5t-48 16t-40 19.5t-29 18l70 160q12 -7 24 -12q11 -5 23 -9t23 -4q30 -1 44.5 14.5t14.5 60.5l7 99q1 31 -7 50.5t-21.5 30.5t-32 15.5t-39.5 4.5l3 -238l-239 11l7 499l-152 -12l5 212l553 -6
v-194h-180l1 -81q25 2 59.5 2t70.5 -7t71 -23t63 -45.5t45 -74t17 -108.5z" />
    <glyph glyph-name="afii10052" unicode="&#x403;" horiz-adv-x="578" 
d="M60 -20l2 727l508 -7l8 -221l-281 10l-1 -491zM380 1036l113 -115l-190 -130q-20 25 -35 44q-14 17 -24.5 31t-12.5 15z" />
    <glyph glyph-name="afii10053" unicode="&#x404;" 
d="M443 250h-146q18 -34 49 -52t70 -18q30 0 54 8.5t43 21.5t34.5 29t28.5 31l147 -133q-25 -33 -55.5 -63t-69.5 -53t-88.5 -36.5t-113.5 -13.5t-126.5 21.5t-113 66t-82 113.5t-33.5 166q-2 106 29.5 180.5t84.5 121.5t121.5 68t139.5 21q72 -1 121 -20.5t81 -42.5
q36 -27 59 -62l-151 -114q-15 17 -38 28.5t-72 11.5q-41 0 -73 -23t-49 -67h149v-190z" />
    <glyph glyph-name="afii10054" unicode="&#x405;" horiz-adv-x="688" 
d="M500 460l-8 12.5t-24 27.5t-38.5 27.5t-51.5 12.5q-38 0 -54.5 -15t-15.5 -35q1 -22 27 -34t65 -22.5t84 -24t83.5 -38.5t64.5 -65.5t26 -105.5q0 -38 -19 -78.5t-58.5 -74t-99.5 -55.5t-142 -22q-52 0 -92.5 9.5t-72 25t-54.5 35t-39 40.5q-38 48 -51 111l208 79
q12 -26 27 -45q13 -17 31.5 -31t41.5 -14q32 0 46 13t13 31q-1 23 -26.5 35.5t-63 23t-81 23.5t-80.5 36t-62 60.5t-25 97.5q0 67 26 111.5t67.5 71t92 37t99.5 10.5q77 0 132 -23.5t92 -51.5q42 -33 72 -75z" />
    <glyph glyph-name="afii10055" unicode="&#x406;" horiz-adv-x="350" 
d="M290 697v-687l-230 -10v714z" />
    <glyph glyph-name="afii10056" unicode="&#x407;" horiz-adv-x="362" 
d="M303 697v-687l-230 -10v714zM-30 877q0 38 26.5 64t63.5 26q19 0 35.5 -7t29 -19t19.5 -28.5t7 -35.5t-7 -35.5t-19.5 -29t-29 -19.5t-35.5 -7q-37 0 -63.5 26.5t-26.5 64.5zM211 881q0 38 26.5 64t63.5 26q19 0 35.5 -7t29 -19t19.5 -28.5t7 -35.5t-7 -35.5t-19.5 -29
t-29 -19.5t-35.5 -7q-37 0 -63.5 26.5t-26.5 64.5z" />
    <glyph glyph-name="afii10057" unicode="&#x408;" horiz-adv-x="367" 
d="M307 729l-3 -739q0 -64 -17 -117t-53 -91.5t-91 -60t-130 -21.5q-68 0 -115.5 21t-78.5 47q-36 30 -59 69l144 126q10 -14 21.5 -28.5t24.5 -26.5t28 -20t33 -8q40 0 56.5 25t16.5 85l-8 719z" />
    <glyph glyph-name="afii10058" unicode="&#x409;" horiz-adv-x="998" 
d="M406 10l-4 500h-42l-50 -330q-15 -71 -49.5 -109.5t-77.5 -56t-88.5 -19.5t-81.5 0l-13 165q26 -2 53 11.5t41 58.5q3 10 7.5 34.5t9.5 57.5t10.5 72.5t11.5 78.5q12 92 27 204l476 23l1 -205l121 -5q52 0 93 -19t69.5 -52t43 -76.5t14.5 -92.5q0 -53 -17.5 -100.5
t-55 -82.5t-96.5 -54.5t-141 -15.5zM635 200l66 -3q28 0 42.5 15t14.5 38q0 7 -2.5 17.5t-9.5 19.5t-19.5 14t-33.5 3l-58 -3v-101z" />
    <glyph glyph-name="afii10059" unicode="&#x40a;" horiz-adv-x="1008" 
d="M404 20l-7 243l-86 -10l-1 -253l-250 -20l10 730l230 -10l3 -247h102l2 247l237 -3l1 -231l110 4q64 0 108 -22t71 -57.5t39.5 -79.5t13.5 -87q1 -53 -16.5 -97t-55.5 -75t-97 -46t-141 -9zM642 197h68q28 0 41.5 10t13.5 33q0 15 -15.5 27.5t-47.5 10.5l-59 -6z" />
    <glyph glyph-name="afii10060" unicode="&#x40b;" horiz-adv-x="707" 
d="M674 0l-16.5 -1t-41.5 -2t-54 -2.5t-54 -2.5t-41.5 -1.5l-16.5 -0.5l3 173q-2 58 -20.5 79t-59.5 22l3 -264l-239 11l7 499l-144 -12l5 212l545 -6v-194h-180l1 -55q27 2 60 2t67 -7.5t66.5 -23.5t57.5 -45t40 -73.5t15 -108.5z" />
    <glyph glyph-name="afii10061" unicode="&#x40c;" horiz-adv-x="720" 
d="M293 697v-687l-230 -10l-3 730zM460 703l237 -1l-179 -352l202 -350l-260 20l-167 330zM445 1034l113 -115l-190 -130q-20 25 -35 44q-14 17 -24.5 31t-12.5 15z" />
    <glyph glyph-name="afii10062" unicode="&#x40e;" horiz-adv-x="692" 
d="M442 710h250q-42 -143 -78 -262q-15 -51 -31 -101t-30 -92t-24.5 -72.5t-16.5 -42.5q-15 -30 -35.5 -59t-53.5 -51.5t-81.5 -36t-119.5 -13.5h-94l-6 190h110q19 0 34 7t26.5 19t20.5 27.5t16 31.5q15 37 23 85q-20 -20 -45 -34t-55 -15q-53 -1 -86.5 19.5t-53.5 69.5
q-3 7 -13 33.5t-23 62t-27 74.5t-25 72l-18 54t-5 21l251 18l40 -165q8 -23 20.5 -41.5t39.5 -18.5q25 0 33.5 14t11.5 26zM360 925q15 0 27.5 11t12.5 45l140 -13q0 -38 -14 -70.5t-38.5 -56.5t-57.5 -37.5t-70 -13.5q-38 0 -70.5 13t-57 38.5t-38.5 63t-14 86.5l140 -4
q0 -33 12.5 -47.5t27.5 -14.5z" />
    <glyph glyph-name="afii10145" unicode="&#x40f;" horiz-adv-x="720" 
d="M239 4l-179 6v700l230 10l5 -517l115 -3v520h250l-10 -730l-180 6l3 -126h-233z" />
    <glyph glyph-name="afii10017" unicode="&#x410;" horiz-adv-x="726" 
d="M0 0l292 710h141l293 -710l-241 -10l-42 110h-158l-40 -110zM332 260h61l-31 90z" />
    <glyph glyph-name="afii10018" unicode="&#x411;" horiz-adv-x="682" 
d="M62 0l-2 693h522v-200l-288 5v-43l138 -2q56 0 99 -18t72 -49.5t44 -74t15 -91.5q0 -53 -14.5 -96.5t-50.5 -74.5t-95.5 -47t-149.5 -12zM292 197l100 -3q19 -1 34.5 7.5t15.5 31.5q0 15 -10 27.5t-47 12.5l-93 -3v-73z" />
    <glyph glyph-name="afii10019" unicode="&#x412;" horiz-adv-x="670" 
d="M420 700q98 -8 144 -51.5t46 -118.5q0 -53 -20.5 -83t-44.5 -45q-29 -18 -65 -22v-10q53 -6 95 -28q18 -9 35 -23t30.5 -33.5t21.5 -45.5t8 -60q0 -38 -13.5 -70.5t-40.5 -58t-68.5 -41.5t-97.5 -20l-390 -5v727zM290 544v-61h38q14 0 25 3q9 2 17 7t8 16q0 10 -5.5 16.5
t-13.5 10t-17.5 5t-18.5 1.5zM290 250v-56l80 -5q11 -1 20 2q8 2 14 8.5t7 19.5q1 20 -15 25t-33 5z" />
    <glyph glyph-name="afii10020" unicode="&#x413;" horiz-adv-x="578" 
d="M60 -20l2 727l508 -7l8 -221l-281 10l-1 -491z" />
    <glyph glyph-name="afii10021" unicode="&#x414;" horiz-adv-x="778" 
d="M0 80v105l43 1q16 -1 28.5 9t21.5 24.5t15 28.5t8 22q3 10 6.5 33.5t7.5 55t8.5 68.5t8.5 74q9 87 19 191l512 18l-2 -513l102 -1l-10 -316l-208 6l-4 112l-352 -8l4 -100l-208 -9v199zM368 510q-8 -41 -13 -89t-13 -93.5t-23 -83.5t-43 -59l174 3l-2 322h-80z" />
    <glyph glyph-name="afii10022" unicode="&#x415;" horiz-adv-x="651" 
d="M601 720l-10 -200l-291 -20l1 -60l260 6l-4 -186l-267 -4v-56l331 10l-6 -221l-555 1v710z" />
    <glyph glyph-name="afii10024" unicode="&#x416;" horiz-adv-x="1000" 
d="M616 695v-687l-230 -10v714zM740 700l237 -1l-136 -351l159 -351h-250l-134 351zM250 -1h-250l159 351l-136 351l237 1l124 -352z" />
    <glyph glyph-name="afii10025" unicode="&#x417;" horiz-adv-x="670" 
d="M263 253v173q31 1 56 6q21 5 38.5 15t17.5 30q0 27 -16 33t-35 6q-29 0 -50.5 -9t-35.5 -19.5t-20.5 -19l-6.5 -8.5l-151 138q28 39 73 71q38 26 98 48.5t144 22.5q65 0 112.5 -17.5t79 -46t47 -64.5t15.5 -74q0 -54 -20.5 -84.5t-45.5 -45.5q-29 -18 -66 -23v-10
q48 -6 86 -28q16 -9 31.5 -23.5t28 -34.5t20 -46.5t7.5 -60.5q0 -38 -21 -78t-63 -71.5t-105 -50.5t-147 -15q-51 0 -93 10t-75 26.5t-58.5 38t-43.5 43.5q-43 52 -64 118l211 80q8 -15 20 -32.5t27 -33t34 -25.5t42 -10q7 0 19.5 0.5t24.5 4.5t20.5 12t8.5 22
q-1 21 -16.5 26t-32.5 5z" />
    <glyph glyph-name="afii10026" unicode="&#x418;" horiz-adv-x="720" 
d="M426 277l-186 -277h-160l-20 710l220 -10l10 -330l196 317l174 13l-4 -703h-220z" />
    <glyph glyph-name="afii10027" unicode="&#x419;" horiz-adv-x="720" 
d="M375 926q15 0 27.5 11t12.5 45l140 -13q0 -38 -14 -70.5t-38.5 -56.5t-57.5 -37.5t-70 -13.5q-38 0 -70.5 13t-57 38.5t-38.5 63t-14 86.5l140 -4q0 -33 12.5 -47.5t27.5 -14.5zM426 277l-186 -277h-160l-20 710l220 -10l10 -330l196 317l174 13l-4 -703h-220z" />
    <glyph glyph-name="afii10028" unicode="&#x41a;" horiz-adv-x="720" 
d="M293 697v-687l-230 -10l-3 730zM460 703l237 -1l-179 -352l202 -350l-260 20l-167 330z" />
    <glyph glyph-name="afii10029" unicode="&#x41b;" horiz-adv-x="731" 
d="M671 700v-700l-230 -10v520h-80l-51 -353q-15 -71 -49.5 -109.5t-77.5 -56t-88.5 -19.5t-81.5 0l-13 165q26 -2 53 11.5t41 58.5q3 10 7.5 36t9.5 62t10.5 78.5t10.5 85.5q12 101 27 223z" />
    <glyph glyph-name="afii10030" unicode="&#x41c;" horiz-adv-x="880" 
d="M60 -15v720l180 11l210 -256l170 240l200 6l-10 -711l-240 5v340l-140 -170l-140 150v-320z" />
    <glyph glyph-name="afii10031" unicode="&#x41d;" horiz-adv-x="727" 
d="M300 700l3 -260h132l2 260h230v-700l-230 -10l-10 260l-116 -10l-1 -240l-250 -20l10 730z" />
    <glyph glyph-name="afii10032" unicode="&#x41e;" horiz-adv-x="779" 
d="M408 730q49 0 107 -20t107.5 -66t83 -120.5t33.5 -183.5q0 -98 -29 -168t-77 -115t-109 -66t-125 -21t-128 21.5t-115.5 68.5t-83.5 121t-32 179q0 77 18.5 134.5t48.5 98.5t68.5 67.5t79.5 42t81 21.5t72 6zM389 520q-23 0 -41 -15.5t-31 -41t-20 -57.5t-7 -66
q0 -38 8.5 -70.5t24.5 -56.5t38 -37.5t48 -11.5q42 2 66 47.5t24 128.5q0 52 -9 86.5t-24 55.5t-35 29.5t-42 8.5z" />
    <glyph glyph-name="afii10033" unicode="&#x41f;" horiz-adv-x="720" 
d="M660 700v-700l-230 -10l-5 517l-115 3v-520h-250l10 730z" />
    <glyph glyph-name="afii10034" unicode="&#x420;" horiz-adv-x="672" 
d="M353 700q90 4 148 -12t91.5 -47t46.5 -75t13 -96q0 -45 -13.5 -85t-42.5 -70t-74.5 -47.5t-109.5 -17.5l-113 3l-1 -253l-238 -14l6 704zM297 447q15 -2 31 -3q14 -1 30 -1.5t31 -0.5q20 0 31.5 7.5t11.5 22.5q0 23 -15 27t-28 4l-93 -3z" />
    <glyph glyph-name="afii10035" unicode="&#x421;" 
d="M526 490q-15 17 -38 28.5t-72 11.5q-60 0 -100 -50t-40 -141q0 -37 10.5 -66.5t29.5 -50t44.5 -31.5t55.5 -11t54 8.5t43 21.5t34.5 29t28.5 31l147 -133q-25 -33 -55.5 -63t-69.5 -53t-88.5 -36.5t-113.5 -13.5t-126.5 21.5t-113 66t-82 113.5t-33.5 166
q-2 106 29.5 180.5t84.5 121.5t121.5 68t139.5 21q72 -1 121 -20.5t81 -42.5q36 -27 59 -62z" />
    <glyph glyph-name="afii10036" unicode="&#x422;" horiz-adv-x="655" 
d="M635 700v-194l-200 4l6 -510l-239 11l7 499l-189 -12l5 212z" />
    <glyph glyph-name="afii10037" unicode="&#x423;" horiz-adv-x="692" 
d="M442 710h250q-42 -143 -78 -262q-15 -51 -31 -101t-30 -92t-24.5 -72.5t-16.5 -42.5q-15 -30 -35.5 -59t-53.5 -51.5t-81.5 -36t-119.5 -13.5h-94l-6 190h110q19 0 34 7t26.5 19t20.5 27.5t16 31.5q15 37 23 85q-20 -20 -45 -34t-55 -15q-53 -1 -86.5 19.5t-53.5 69.5
q-3 7 -13 33.5t-23 62t-27 74.5t-25 72l-18 54t-5 21l251 18l40 -165q8 -23 20.5 -41.5t39.5 -18.5q25 0 33.5 14t11.5 26z" />
    <glyph glyph-name="afii10038" unicode="&#x424;" horiz-adv-x="939" 
d="M591 740l-1 -71q49 -3 107 -20.5t107 -55.5t81.5 -99t32.5 -151q0 -88 -31 -148t-79.5 -97.5t-108 -55.5t-117.5 -21l-1 -81l-230 -10l1 90q-61 3 -120.5 20t-106.5 53t-76 94t-29 143q0 105 35.5 171t88 103t111 51t105.5 15l1 87zM678 343q-1 50 -27 79t-64 36l-3 -241
q18 3 35 11t30.5 22.5t21 37t7.5 55.5zM271 330q1 -56 23 -82.5t60 -32.5l3 244q-39 -5 -63 -37.5t-23 -91.5z" />
    <glyph glyph-name="afii10039" unicode="&#x425;" horiz-adv-x="716" 
d="M258 697l95 -147l96 152l231 -12l-202 -333l238 -367l-265 -10l-104 161l-98 -171l-239 40l209 330l-219 340z" />
    <glyph glyph-name="afii10040" unicode="&#x426;" horiz-adv-x="750" 
d="M740 198l10 -328l-216 19l-4 109l-460 -8l-10 720l250 10v-530l105 3l5 517l230 -10v-500z" />
    <glyph glyph-name="afii10041" unicode="&#x427;" horiz-adv-x="691" 
d="M241 711l3 -170q1 -29 14 -43.5t30 -20.5q18 -7 43 -7q15 0 27.5 3t22.5 7q11 4 20 10v227l230 -17v-687l-230 -10v317q-15 -11 -35 -20q-17 -8 -42 -13.5t-56 -3.5q-63 2 -109.5 21.5t-77.5 53.5t-46 80t-14 102v181z" />
    <glyph glyph-name="afii10042" unicode="&#x428;" horiz-adv-x="960" 
d="M590 694l5 -502l70 1l5 501l230 10v-714h-830l-10 704l250 -20v-484h65l-5 514z" />
    <glyph glyph-name="afii10043" unicode="&#x429;" horiz-adv-x="1000" 
d="M590 700l5 -508l70 1l5 477l230 20v-490l90 -2l10 -298l-216 -11l-4 110l-710 -9l-10 710l250 -20v-490h65l-5 520z" />
    <glyph glyph-name="afii10044" unicode="&#x42a;" horiz-adv-x="817" 
d="M440 502l137 -2q52 0 93 -19t69.5 -52t43 -76.5t14.5 -92.5q0 -53 -17.5 -100t-55 -82t-96.5 -54.5t-141 -16.5l-280 10l-3 513l-20 2l-2 -122l-182 10l17 320l419 -33zM437 207h83q28 0 42.5 15t14.5 38q0 7 -2.5 17t-9.5 18t-19.5 12.5t-33.5 2.5l-74 -6z" />
    <glyph glyph-name="afii10045" unicode="&#x42b;" horiz-adv-x="972" 
d="M62 17l-2 693l234 -3l1 -205l147 -2q52 0 93 -19t69.5 -52t43 -76.5t14.5 -92.5q0 -53 -17.5 -100t-55 -82t-96.5 -54.5t-141 -16.5zM292 207h93q28 0 42.5 15t14.5 38q0 7 -2.5 17.5t-9.5 19.5t-19.5 14t-33.5 3l-84 -6zM912 720v-720l-220 -10v747z" />
    <glyph glyph-name="afii10046" unicode="&#x42c;" horiz-adv-x="682" 
d="M62 17l-2 693l234 -3l1 -205l147 -2q52 0 93 -19t69.5 -52t43 -76.5t14.5 -92.5q0 -53 -17.5 -100t-55 -82t-96.5 -54.5t-141 -16.5zM292 207h93q28 0 42.5 15t14.5 38q0 7 -2.5 17.5t-9.5 19.5t-19.5 14t-33.5 3l-84 -6z" />
    <glyph glyph-name="afii10047" unicode="&#x42d;" 
d="M280 440h149q-17 44 -49 67t-73 23q-49 0 -72 -11.5t-38 -28.5l-151 114q22 35 59 62q31 23 80.5 42.5t121.5 20.5q71 0 139.5 -21t121.5 -68t84.5 -121.5t29.5 -180.5q-2 -97 -33.5 -166t-82 -113.5t-113 -66t-126.5 -21.5t-113.5 13.5t-88.5 36.5t-69.5 53t-55.5 63
l147 133q13 -15 28.5 -31t34.5 -29t43 -21.5t54 -8.5q39 0 70 18t49 52h-146v190z" />
    <glyph glyph-name="afii10048" unicode="&#x42e;" horiz-adv-x="1046" 
d="M685 730q49 0 105.5 -20t104.5 -66t79.5 -120.5t31.5 -183.5q0 -98 -27.5 -168t-73.5 -115t-105.5 -66t-123.5 -21q-55 0 -109 16t-100.5 49.5t-81 86.5t-49.5 128h-46v-240l-230 -10v714l230 -17v-247h43q15 87 56 141.5t92 85t105.5 42t98.5 11.5zM676 520
q-27 0 -46 -15.5t-31 -41t-17.5 -57.5t-5.5 -66q0 -38 6 -71t18 -58t31 -39t45 -12q42 2 66 49.5t24 130.5q0 52 -5.5 86.5t-17 55.5t-28.5 29.5t-39 8.5z" />
    <glyph glyph-name="afii10049" unicode="&#x42f;" horiz-adv-x="721" 
d="M659 702l2 -705l-234 3l-1 262l-30 -2l-117 -260h-259l130 280v10q-28 11 -50 35q-19 20 -35 57t-16 97q0 52 16 96.5t53.5 76t99 48t151.5 12.5zM429 500l-95 4q-13 1 -24.5 -4t-11.5 -22q0 -15 9.5 -21.5t24.5 -6.5t32 0.5t31 2.5q17 1 33 3z" />
    <glyph glyph-name="afii10065" unicode="&#x430;" horiz-adv-x="589" 
d="M62 456q28 23 63 40q30 14 72.5 25t93.5 8q55 -4 93 -20.5t62 -42t37 -57t18 -64.5t4.5 -66t-1.5 -61q-2 -31 1 -48t10 -25t18 -9.5t26 -1.5l10 -131q-48 -15 -91 -18q-18 -1 -37.5 0.5t-38 8.5t-35 19t-28.5 32q-10 -14 -24.5 -28t-33.5 -24.5t-43.5 -16t-53.5 -3.5
q-25 1 -54 8.5t-53 25t-40 47t-16 75.5q0 58 27 92t68.5 53t90.5 26.5t94 12.5q1 4 1 12t-3 16t-10 15t-20 10q-25 3 -48 -2.5t-42 -15t-32 -19t-17 -13.5zM304 214q-45 -12 -60.5 -31t-12.5 -35q3 -14 14 -20t28 -2q13 3 22 5.5t9 3.5q-1 4 -2 9t-1 11v16z" />
    <glyph glyph-name="afii10066" unicode="&#x431;" horiz-adv-x="580" 
d="M30 460q0 45 10 88t32.5 77t58.5 54.5t89 20.5h70q25 0 39 7.5t21 17.5q8 11 10 25l150 -50q-5 -30 -11.5 -59t-21.5 -51.5t-42.5 -36t-74.5 -13.5h-40q-30 0 -46.5 -11t-24 -28.5t-8.5 -40t-1 -45.5q7 17 22 29q13 11 36 19.5t60 7.5q35 -1 71 -15t65 -43.5t47 -76
t18 -112.5q0 -54 -13 -93t-34.5 -66t-48.5 -43.5t-56 -25.5t-57 -12t-50 -3q-49 0 -97 18.5t-86.5 56t-62.5 93.5t-24 131v180zM303 150q34 0 45.5 23t11.5 57q0 74 -60 73q-19 0 -29 -11.5t-14.5 -25t-5 -24.5l-0.5 -11q0 -17 2 -31.5t7.5 -25.5t15.5 -17.5t27 -6.5z" />
    <glyph glyph-name="afii10067" unicode="&#x432;" horiz-adv-x="552" 
d="M354 492q69 -5 102 -36t33 -85q0 -38 -12.5 -58.5t-27.5 -31.5q-18 -12 -40 -15v-7q34 -4 61 -20q23 -14 42.5 -41t19.5 -75q0 -27 -10 -52.5t-29.5 -45.5t-49 -32t-68.5 -12l-345 8v517zM226 376v-37h28q7 -1 12 1t8.5 5t3.5 11q0 13 -8 15.5t-20 3.5zM221 170l2 -36
l56 -2q8 -1 14 1q5 2 9.5 5.5t4.5 11.5q0 13 -10.5 16.5t-23.5 3.5h-52z" />
    <glyph glyph-name="afii10068" unicode="&#x433;" horiz-adv-x="448" 
d="M30 5v487l418 -2l-20 -190l-193 -5l-7 -300z" />
    <glyph glyph-name="afii10069" unicode="&#x434;" horiz-adv-x="641" 
d="M0 116l31 1q12 -1 21 6t16 17.5t11 21t6 16.5q2 7 4.5 24t5.5 39.5t6.5 49t6.5 53.5q7 62 15 136l445 9l-2 -362l75 -1l-8 -257l-194 1l-3 95l-232 -5l3 -73l-207 -6v235zM324 341q-6 -30 -9.5 -63.5t-9.5 -64t-17 -56.5t-31 -41l102 1l-2 223z" />
    <glyph glyph-name="afii10070" unicode="&#x435;" horiz-adv-x="563" 
d="M294 516q64 -1 107.5 -22t71.5 -53.5t42 -71.5t20 -77t6.5 -70t0.5 -50l-32 -1.5t-78.5 -3t-98 -3t-91.5 -1.5q24 -44 84 -44q31 0 58 5t47 12q23 8 42 18v-146q-19 -13 -45 -23q-22 -8 -53 -15t-70 -7q-59 0 -111 16t-90.5 49t-61 84t-22.5 122q0 74 19.5 128t55.5 88.5
t86.5 50.5t112.5 15zM302 359q-17 0 -29 -7t-20 -17t-12 -21.5t-5 -21.5l128 -6q0 12 -4 25t-11.5 23.5t-19.5 17.5t-27 7z" />
    <glyph glyph-name="afii10072" unicode="&#x436;" horiz-adv-x="854" 
d="M330 480l210 20l-10 -512l-200 10v482zM621 490l209 -5l-89 -245l113 -251l-230 10l-84 241zM230 0l-230 -10l129 240l-98 249l209 1l90 -250z" />
    <glyph glyph-name="afii10073" unicode="&#x437;" horiz-adv-x="511" 
d="M165 194l-4 113q21 -1 39 2q14 2 26.5 8t12.5 18q0 13 -10.5 16.5t-23.5 3.5q-20 0 -33.5 -7t-21.5 -15.5t-11.5 -15.5l-3.5 -7l-114 110q20 31 52 56q27 21 68.5 38.5t99.5 17.5q64 0 108 -16t71.5 -40.5t40 -53.5t12.5 -55q0 -37 -13.5 -58t-30.5 -32q-19 -13 -44 -17
v-7q29 -3 53 -17q20 -12 36.5 -36t16.5 -66q0 -34 -15 -64.5t-45 -54t-75 -37.5t-105 -14q-71 -1 -119 21t-77 48q-34 31 -55 69l141 102q11 -21 30 -40.5t47 -19.5q13 0 24.5 4.5t12.5 18.5t-7 20t-17 6z" />
    <glyph glyph-name="afii10074" unicode="&#x438;" horiz-adv-x="545" 
d="M290 158l-88 -158h-159l-13 500l210 -17l10 -162l108 164l157 2l-3 -485l-214 -20z" />
    <glyph glyph-name="afii10075" unicode="&#x439;" horiz-adv-x="543" 
d="M288 162l-86 -162h-159l-13 500l210 -17l10 -162l106 164l157 2l-3 -485l-214 -20zM286 676q13 0 23.5 9t10.5 37l119 -11q0 -32 -12 -59.5t-32.5 -48t-48.5 -32t-60 -11.5t-60 11t-48.5 33t-32.5 53.5t-12 73.5l119 -3q0 -27 10.5 -39.5t23.5 -12.5z" />
    <glyph glyph-name="afii10076" unicode="&#x43a;" horiz-adv-x="580" 
d="M30 480l210 20l-10 -512l-200 10v482zM346 481l209 -1l-114 -240l139 -250l-230 10l-110 240z" />
    <glyph glyph-name="afii10077" unicode="&#x43b;" horiz-adv-x="570" 
d="M534 480l6 -485l-218 -5l-1 310h-43l-40 -204q-11 -49 -38.5 -75.5t-61.5 -38.5t-69 -13.5t-60 -0.5l-9 184q17 -2 35 2.5t26 30.5q2 7 5 23.5t7 39t8.5 49.5t8.5 54q10 63 20 139z" />
    <glyph glyph-name="afii10078" unicode="&#x43c;" horiz-adv-x="653" 
d="M30 -12v502l167 4l143 -164l122 153l161 -3l-7 -496l-209 11l-2 188l-77 -118l-80 106l2 -174z" />
    <glyph glyph-name="afii10079" unicode="&#x43d;" horiz-adv-x="558" 
d="M250 480l-2 -160h60l6 160h214v-487l-214 -7l-6 159l-54 -3l3 -149l-227 -13l7 508z" />
    <glyph glyph-name="afii10080" unicode="&#x43e;" horiz-adv-x="591" 
d="M304 520q36 0 82 -15t87.5 -49t69.5 -89.5t28 -135.5q0 -72 -23 -123t-61 -83.5t-87.5 -48t-102.5 -15.5q-60 0 -110.5 16.5t-87.5 51.5t-58 90t-21 132q0 57 14.5 99t38 72t54 49t62 30t61.5 15t54 4zM292 343q-17 -1 -27 -11.5t-15.5 -26.5t-7.5 -35.5t-2 -38.5
q0 -21 2.5 -40.5t8.5 -35t17.5 -25t29.5 -9.5q30 0 41.5 32t11.5 78q0 58 -16 86t-43 26z" />
    <glyph glyph-name="afii10081" unicode="&#x43f;" horiz-adv-x="561" 
d="M531 480v-487l-214 -7l-6 319l-57 -3l3 -309l-227 -13l7 508z" />
    <glyph glyph-name="afii10082" unicode="&#x440;" horiz-adv-x="574" 
d="M217 434q21 26 54.5 41.5t79.5 14.5q22 0 55.5 -8t65.5 -33.5t55.5 -73.5t25.5 -129t-16 -133.5t-47.5 -83.5t-66 -43.5t-71.5 -13.5q-48 -1 -79.5 8t-41.5 20l-1 -328l-200 10v808l185 -10zM261 320q-18 0 -30 -3v-169q16 -8 40 -8q27 0 43.5 27.5t16.5 72.5
q0 34 -18 57t-52 23z" />
    <glyph glyph-name="afii10083" unicode="&#x441;" horiz-adv-x="533" 
d="M392 302q-9 7 -15.5 12t-13.5 8.5t-17 5.5t-25 2q-24 0 -47 -23t-23 -66q0 -45 25 -62.5t55 -17.5q19 0 33.5 5.5t26 14t21 19t18.5 21.5l103 -131q-21 -27 -43 -49t-49 -37.5t-61.5 -24t-79.5 -8.5t-92.5 14.5t-86 46t-64 80.5t-26.5 118q-1 75 24 128.5t65.5 87.5
t91.5 49.5t101 15.5q51 0 86 -14t58 -31q26 -19 43 -44z" />
    <glyph glyph-name="afii10084" unicode="&#x442;" horiz-adv-x="540" 
d="M520 490l-10 -190h-125v-310l-239 11l9 296l-135 -5l5 198h495z" />
    <glyph glyph-name="afii10085" unicode="&#x443;" horiz-adv-x="546" 
d="M225 10q-29 -11 -58.5 -8t-55.5 19t-45 43.5t-27 65.5l-39 350h220l24 -280q0 -17 5 -27t10 -15q6 -6 15 -8l61 340l211 -29q-33 -159 -59 -264t-43 -169q-20 -75 -35 -118q-17 -64 -47.5 -112t-73 -77t-96 -37.5t-115.5 8.5l-57 17l55 167l19 -4q35 -7 63.5 3t43.5 55z
" />
    <glyph glyph-name="afii10086" unicode="&#x444;" horiz-adv-x="752" 
d="M478 691l1 -221q36 -3 79.5 -15t81.5 -38.5t64 -69.5t27 -107q1 -68 -23.5 -112.5t-62.5 -72t-83.5 -40t-87.5 -15.5l4 -189l-198 -11l-4 195q-44 2 -89.5 14.5t-82.5 38.5t-60.5 68t-23.5 104q0 51 13 89t35 65.5t49.5 45t56.5 28t57 14.5t51 5l-2 233zM523 230
q0 23 -16.5 39.5t-36.5 20.5v-120q23 3 38 18t15 42zM227 220q0 -20 7 -32t15.5 -18t16 -8t9.5 -2l1 130q-14 -5 -25 -14q-9 -8 -17 -21.5t-7 -34.5z" />
    <glyph glyph-name="afii10087" unicode="&#x445;" horiz-adv-x="586" 
d="M420 246l156 -246l-237 -10l-51 79l-43 -69h-245l165 236l-151 234l235 20l55 -90l65 100l217 -20z" />
    <glyph glyph-name="afii10088" unicode="&#x446;" horiz-adv-x="602" 
d="M602 132l-8 -244l-194 1l-3 95l-360 -4l-7 508l227 -13l-3 -309l53 -5l6 319l214 -7v-340z" />
    <glyph glyph-name="afii10089" unicode="&#x447;" horiz-adv-x="554" 
d="M217 490v-127q0 -20 8 -29t18 -14q11 -5 26 -5q10 0 19 2t15 4q7 3 13 7v152l204 -10l4 -472l-204 -8l-4 160q-11 -8 -24 -13q-11 -5 -27.5 -9t-37.5 -3q-42 1 -79.5 12t-66 33t-45 56.5t-16.5 83.5l6 170z" />
    <glyph glyph-name="afii10090" unicode="&#x448;" horiz-adv-x="790" 
d="M37 -20l-7 508l220 -8l-7 -330l64 -2l4 332h190l-4 -339l53 -1l10 340h200v-487z" />
    <glyph glyph-name="afii10091" unicode="&#x449;" horiz-adv-x="832" 
d="M755 150l77 -1l-8 -244l-194 1l-3 77l-597 10v487h200l10 -340l53 1l-4 339h190l4 -332l64 2l-7 330l220 8z" />
    <glyph glyph-name="afii10092" unicode="&#x44a;" horiz-adv-x="687" 
d="M389 490v-141l58 4q110 2 165 -50t55 -142q0 -44 -15 -80t-46 -60.5t-78 -37t-111 -8.5l-226 14l-7 325l-17 2l-2 -122l-165 6l17 320zM389 148l32 -3q20 -2 30 9t11 23q0 5 -1.5 12t-6.5 13t-14 9.5t-23 2.5l-28 -4v-62z" />
    <glyph glyph-name="afii10093" unicode="&#x44b;" horiz-adv-x="780" 
d="M40 -6l-10 506l210 -10v-141l58 4q110 2 165 -50t55 -142q0 -44 -15 -80t-46 -60.5t-78 -37t-111 -8.5zM240 148l32 -3q20 -2 30 9t11 23q0 5 -1.5 12t-6.5 13t-14 9.5t-23 2.5l-28 -4v-62zM550 500l200 10v-520h-200v510z" />
    <glyph glyph-name="afii10094" unicode="&#x44c;" horiz-adv-x="550" 
d="M40 -6l-10 506l210 -10v-141l70 4q110 2 165 -50t55 -142q0 -44 -15 -80t-46 -60.5t-78 -37t-111 -8.5zM240 148l44 -3q20 -2 30 9t11 23q0 5 -1.5 12t-6.5 13t-14 9.5t-23 2.5l-40 -4v-62z" />
    <glyph glyph-name="afii10095" unicode="&#x44d;" horiz-adv-x="533" 
d="M183 310l100 -5q-1 15 -20 27.5t-46 13.5q-15 0 -30 -5.5t-27 -12.5t-19 -13t-7 -7l-101 114q16 25 42 44q23 17 58.5 31t86.5 14q50 0 101 -15.5t91.5 -49.5t65.5 -87.5t24 -128.5q-2 -69 -27 -118t-63.5 -80.5t-86 -46t-92.5 -14.5t-79.5 8.5t-61.5 24t-49 37.5t-43 48
l98 121q18 -21 42.5 -41.5t62.5 -22.5q37 -2 53.5 9.5t16.5 19.5h-95z" />
    <glyph glyph-name="afii10096" unicode="&#x44e;" horiz-adv-x="810" 
d="M532 527q36 0 81 -15t84 -48.5t66 -88.5t27 -135q0 -72 -21.5 -123.5t-58 -84.5t-84.5 -48.5t-101 -15.5q-99 0 -165.5 45t-89.5 147h-40v-164h-200v490l200 10v-176h34q11 65 42 105.5t70.5 63t81.5 30.5t74 8zM526 340q-11 0 -19.5 -8.5t-14.5 -22.5t-9 -32t-3 -37
q0 -21 2 -40.5t8 -35t15.5 -25t24.5 -9.5q12 0 20 8.5t12.5 23.5t6 35t1.5 43q0 58 -12 79t-32 21z" />
    <glyph glyph-name="afii10097" unicode="&#x44f;" horiz-adv-x="573" 
d="M543 510v-510l-215 -1l-5 171l-21 -1l-78 -170h-224l98 185v6q-22 11 -39 31q-14 17 -26.5 45.5t-12.5 70.5q0 37 12.5 68.5t40.5 55t72.5 36.5t107.5 13h290zM330 352l-68 3q-9 0 -16.5 -3t-7.5 -15q0 -21 23 -21q11 0 22.5 0.5t21.5 1.5q11 1 23 3z" />
    <glyph glyph-name="afii10071" unicode="&#x451;" horiz-adv-x="563" 
d="M294 516q64 -1 107.5 -22t71.5 -53.5t42 -71.5t20 -77t6.5 -70t0.5 -50l-32 -1.5t-78.5 -3t-98 -3t-91.5 -1.5q24 -44 84 -44q31 0 58 5t47 12q23 8 42 18v-146q-19 -13 -45 -23q-22 -8 -53 -15t-70 -7q-59 0 -111 16t-90.5 49t-61 84t-22.5 122q0 74 19.5 128t55.5 88.5
t86.5 50.5t112.5 15zM302 359q-17 0 -29 -7t-20 -17t-12 -21.5t-5 -21.5l128 -6q0 12 -4 25t-11.5 23.5t-19.5 17.5t-27 7zM66 647q0 38 26.5 64t63.5 26q19 0 35.5 -7t29 -19t19.5 -28.5t7 -35.5t-7 -35.5t-19.5 -29t-29 -19.5t-35.5 -7q-37 0 -63.5 26.5t-26.5 64.5z
M307 651q0 38 26.5 64t63.5 26q19 0 35.5 -7t29 -19t19.5 -28.5t7 -35.5t-7 -35.5t-19.5 -29t-29 -19.5t-35.5 -7q-37 0 -63.5 26.5t-26.5 64.5z" />
    <glyph glyph-name="afii10099" unicode="&#x452;" horiz-adv-x="638" 
d="M387 159q0 6 -0.5 21t-6 30t-17 27t-32.5 12q-11 0 -18 -3.5t-11 -8t-6 -8l-2 -3.5l1 -219l-210 -10l-1 453h-54l-10 190h64v70l210 -10v-60h126l10 -190h-136v-108q2 4 9 18.5t22 29.5t40.5 27t63.5 12q45 0 78.5 -21t56 -56.5t33.5 -83t11 -99.5l-1 -169
q0 -45 -10.5 -86.5t-34.5 -73.5t-64.5 -51t-100.5 -19q-38 0 -68 6t-50 14q-25 9 -42 20l40 180q8 -6 18 -10q8 -4 19.5 -7t25.5 -3q46 0 47 40v149z" />
    <glyph glyph-name="afii10100" unicode="&#x453;" horiz-adv-x="448" 
d="M30 5v487l418 -2l-20 -190l-193 -5l-7 -300zM293 807l113 -115l-190 -130q-20 25 -35 44q-14 17 -24.5 31t-12.5 15z" />
    <glyph glyph-name="afii10101" unicode="&#x454;" horiz-adv-x="523" 
d="M345 175h-95q0 -4 4 -9.5t12.5 -10t21.5 -7.5t32 -2q38 2 62.5 22.5t42.5 41.5l98 -121q-21 -26 -43 -48t-49 -37.5t-61.5 -24t-79.5 -8.5t-92.5 14.5t-86 46t-64 80.5t-26.5 118q-1 75 24 128.5t65.5 87.5t91.5 49.5t101 15.5q51 0 86 -14t58 -31q26 -19 43 -44
l-101 -114q0 1 -7 7t-19 13t-27 12.5t-30 5.5q-27 -1 -46 -13.5t-20 -27.5l100 5z" />
    <glyph glyph-name="afii10102" unicode="&#x455;" horiz-adv-x="561" 
d="M425 316l-7.5 8.5t-19 19.5t-25.5 20.5t-27 9.5q-17 1 -26 -6t-10 -18q-1 -16 16 -26.5t43.5 -20t57.5 -22t57 -32.5t42 -51t14 -78q-2 -39 -20 -70t-49.5 -53.5t-75 -34.5t-95.5 -12q-45 0 -81 8t-64 21.5t-49 30.5t-36 35q-35 41 -50 95l190 50q2 -13 7 -24
q4 -9 11.5 -17t18.5 -9q29 -3 31 20q1 17 -15 25.5t-41 15.5t-54.5 15.5t-55 25t-42.5 44.5t-17 73q0 51 21 85.5t56.5 55.5t81 30.5t94.5 9.5q57 0 101 -18.5t73 -41.5q34 -26 60 -60z" />
    <glyph glyph-name="afii10103" unicode="&#x456;" horiz-adv-x="273" 
d="M33 490l200 -5v-499l-200 10v494zM30 687q0 22 8.5 41t23 33.5t33.5 23t41 8.5t41.5 -8.5t34 -23t23 -33.5t8.5 -41t-8.5 -41.5t-23 -34t-34 -23t-41.5 -8.5t-41 8.5t-33.5 23t-23 34t-8.5 41.5z" />
    <glyph glyph-name="afii10104" unicode="&#x457;" horiz-adv-x="362" 
d="M79 485l200 -5v-499l-200 10v494zM-30 626q0 38 26.5 64t63.5 26q19 0 35.5 -7t29 -19t19.5 -28.5t7 -35.5t-7 -35.5t-19.5 -29t-29 -19.5t-35.5 -7q-37 0 -63.5 26.5t-26.5 64.5zM211 630q0 38 26.5 64t63.5 26q19 0 35.5 -7t29 -19t19.5 -28.5t7 -35.5t-7 -35.5
t-19.5 -29t-29 -19.5t-35.5 -7q-37 0 -63.5 26.5t-26.5 64.5z" />
    <glyph glyph-name="afii10105" unicode="&#x458;" horiz-adv-x="290" 
d="M47 687q0 22 8.5 41t23 33.5t33.5 23t41 8.5t41.5 -8.5t34 -23t23 -33.5t8.5 -41t-8.5 -41.5t-23 -34t-34 -23t-41.5 -8.5t-41 8.5t-33.5 23t-23 34t-8.5 41.5zM250 -100q0 -45 -10.5 -86.5t-34.5 -73.5t-64.5 -51t-100.5 -19q-38 0 -68 6t-50 14q-25 9 -42 20l40 180
q12 -9 26 -15q12 -6 28.5 -10.5t35.5 -4.5q15 0 23 7.5t12 17.5q4 11 5 25v580l200 -5v-585z" />
    <glyph glyph-name="afii10106" unicode="&#x459;" horiz-adv-x="808" 
d="M307 -12l-3 312h-26l-40 -189q-11 -49 -38.5 -75t-61.5 -38t-69 -13.5t-60 -0.5l-9 184q17 -2 35 2.5t26 30.5q2 7 5 23t7 37.5t8.5 46.5t8.5 51q10 60 20 131l407 -10l2 -151l49 4q110 2 165 -50t55 -142q0 -88 -61 -132t-189 -36zM520 190l1 -63l21 -2q20 -2 30 9
t11 23q0 5 -1.5 12t-6.5 13t-14 9.5t-23 2.5z" />
    <glyph glyph-name="afii10107" unicode="&#x45a;" horiz-adv-x="816" 
d="M250 480l-2 -160h56l4 170l216 -10v-141l52 4q110 2 165 -50t55 -142q0 -44 -15 -80t-46 -60.5t-78 -37t-111 -8.5l-236 21l-6 159l-50 -3l3 -149l-227 -13l7 508zM524 138l26 -3q20 -2 29.5 5.5t10.5 19.5q0 5 -1.5 11.5t-6 11.5t-13.5 7.5t-23 1.5l-22 -4v-50z" />
    <glyph glyph-name="afii10108" unicode="&#x45b;" horiz-adv-x="638" 
d="M20 640h64v70l210 -10v-60h126l10 -190h-136v-108q2 4 9 18.5t22 29.5t40.5 27t63.5 12q45 0 78.5 -21t56 -56.5t33.5 -83t11 -99.5l-1 -169l-220 10v149q0 6 -0.5 21t-6 30t-17 27t-32.5 12q-11 0 -18 -3.5t-11 -8t-6 -8l-2 -3.5l1 -219l-210 -10l-1 453h-54z" />
    <glyph glyph-name="afii10109" unicode="&#x45c;" horiz-adv-x="640" 
d="M60 480l210 20l-10 -512l-200 10v482zM376 481l209 -1l-114 -240l139 -250l-230 10l-110 240zM397 800l113 -115l-190 -130q-20 25 -35 44q-14 17 -24.5 31t-12.5 15z" />
    <glyph glyph-name="afii10110" unicode="&#x45e;" horiz-adv-x="546" 
d="M225 10q-29 -11 -58.5 -8t-55.5 19t-45 43.5t-27 65.5l-39 350h220l24 -280q0 -17 5 -27t10 -15q6 -6 15 -8l61 340l211 -29q-33 -159 -59 -264t-43 -169q-20 -75 -35 -118q-17 -64 -47.5 -112t-73 -77t-96 -37.5t-115.5 8.5l-57 17l55 167l19 -4q35 -7 63.5 3t43.5 55z
M264 694q15 0 27.5 11t12.5 45l140 -13q0 -38 -14 -70.5t-38.5 -56.5t-57.5 -37.5t-70 -13.5q-38 0 -70.5 13t-57 38.5t-38.5 63t-14 86.5l140 -4q0 -33 12.5 -47.5t27.5 -14.5z" />
    <glyph glyph-name="afii10193" unicode="&#x45f;" horiz-adv-x="570" 
d="M176 -14l-146 2v487l214 7l6 -319l66 3l-3 309l227 13l-7 -508l-150 3v-113h-207v116z" />
    <glyph glyph-name="afii10050" unicode="&#x490;" horiz-adv-x="578" 
d="M60 -20l2 727l308 -4v107h200v-110l8 -221l-281 10l-1 -491z" />
    <glyph glyph-name="afii10098" unicode="&#x491;" horiz-adv-x="458" 
d="M30 5v487l214 -1l4 109h210l-11 -110h1l-20 -190l-193 -5l-7 -300z" />
    <glyph glyph-name="uni1E9E" unicode="&#x1e9e;" horiz-adv-x="720" 
d="M40 -15v466q1 45 18 86t47 73.5t73 53.5t97 26l371 8l-6 -168l-100 -150v-10q45 -6 80 -28q15 -9 29.5 -23t25.5 -33.5t18 -45.5t7 -60q0 -38 -13.5 -70.5t-40.5 -58t-68.5 -41.5t-97.5 -20h-155v204l75 -5q11 -1 20 2q8 2 14 8.5t7 19.5q1 20 -15 25t-33 5l-68 1v138
l85 128l-73 -2q-9 0 -20.5 -3t-22 -11t-17.5 -23t-7 -39q-1 -123 -1 -219v-80.5v-70.5v-49.5t1 -18.5z" />
    <glyph glyph-name="endash" unicode="&#x2013;" horiz-adv-x="690" 
d="M40 377l610 10v-180h-610v170z" />
    <glyph glyph-name="emdash" unicode="&#x2014;" horiz-adv-x="830" 
d="M40 377l750 -7v-180l-750 17v170z" />
    <glyph glyph-name="quoteleft" unicode="&#x2018;" horiz-adv-x="257" 
d="M227 499q0 -20 -7.5 -37.5t-21 -31t-31.5 -21t-38 -7.5q-41 0 -68.5 28.5t-29.5 68.5q-2 75 23.5 131.5t67.5 91.5h17h17q-8 -9 -19 -28.5t-18 -39.5t-6.5 -36.5t17.5 -19.5q40 -1 68.5 -29t28.5 -70z" />
    <glyph glyph-name="quoteright" unicode="&#x2019;" horiz-adv-x="257" 
d="M30 622q0 20 7.5 37.5t21 31t31.5 21t38 7.5q41 0 68.5 -28.5t29.5 -68.5q2 -75 -23.5 -131.5t-67.5 -91.5h-17q-6 0 -11.5 -0.5t-5.5 0.5q7 9 18.5 28.5t18.5 39.5t6 36.5t-17 19.5q-40 1 -68.5 29t-28.5 70z" />
    <glyph glyph-name="quotesinglbase" unicode="&#x201a;" horiz-adv-x="277" 
d="M40 82q0 20 7.5 37.5t21 31t31.5 21t38 7.5q41 0 68.5 -28.5t29.5 -68.5q2 -75 -23.5 -131.5t-67.5 -91.5h-17q-6 0 -11.5 -0.5t-5.5 0.5q7 9 18.5 28.5t18.5 39.5t6 36.5t-17 19.5q-40 1 -68.5 29t-28.5 70z" />
    <glyph glyph-name="quotedblleft" unicode="&#x201c;" horiz-adv-x="479" 
d="M449 499q0 -20 -7.5 -37.5t-21 -31t-31.5 -21t-38 -7.5q-41 0 -68.5 28.5t-29.5 68.5q-2 75 23.5 131.5t67.5 91.5h17h17q-8 -9 -19 -28.5t-18 -39.5t-6.5 -36.5t17.5 -19.5q40 -1 68.5 -29t28.5 -70zM227 497q0 -20 -7.5 -37.5t-21 -31t-31.5 -21t-38 -7.5
q-41 0 -68.5 28.5t-29.5 68.5q-2 75 23.5 131.5t67.5 91.5h17h17q-8 -9 -19 -28.5t-18 -39.5t-6.5 -36.5t17.5 -19.5q40 -1 68.5 -29t28.5 -70z" />
    <glyph glyph-name="quotedblright" unicode="&#x201d;" horiz-adv-x="479" 
d="M30 624q0 20 7.5 37.5t21 31t31.5 21t38 7.5q41 0 68.5 -28.5t29.5 -68.5q2 -75 -23.5 -131.5t-67.5 -91.5h-17q-6 0 -11.5 -0.5t-5.5 0.5q7 9 18.5 28.5t18.5 39.5t6 36.5t-17 19.5q-40 1 -68.5 29t-28.5 70zM252 626q0 20 7.5 37.5t21 31t31.5 21t38 7.5
q41 0 68.5 -28.5t29.5 -68.5q2 -75 -23.5 -131.5t-67.5 -91.5h-17q-6 0 -11.5 -0.5t-5.5 0.5q7 9 18.5 28.5t18.5 39.5t6 36.5t-17 19.5q-40 1 -68.5 29t-28.5 70z" />
    <glyph glyph-name="quotedblbase" unicode="&#x201e;" horiz-adv-x="499" 
d="M40 81q0 20 7.5 37.5t21 31t31.5 21t38 7.5q41 0 68.5 -28.5t29.5 -68.5q2 -75 -23.5 -131.5t-67.5 -91.5h-17q-6 0 -11.5 -0.5t-5.5 0.5q7 9 18.5 28.5t18.5 39.5t6 36.5t-17 19.5q-40 1 -68.5 29t-28.5 70zM262 83q0 20 7.5 37.5t21 31t31.5 21t38 7.5q41 0 68.5 -28.5
t29.5 -68.5q2 -75 -23.5 -131.5t-67.5 -91.5h-17q-6 0 -11.5 -0.5t-5.5 0.5q7 9 18.5 28.5t18.5 39.5t6 36.5t-17 19.5q-40 1 -68.5 29t-28.5 70z" />
    <glyph glyph-name="dagger" unicode="&#x2020;" horiz-adv-x="530" 
d="M20 560l120 -10v170l220 10v-180h150l-10 -180h-140v-410l-220 -10v420h-120v190z" />
    <glyph glyph-name="daggerdbl" unicode="&#x2021;" horiz-adv-x="570" 
d="M40 290h120v119h-120v190l120 -10v111l220 10v-121h150l-10 -180h-140v-119h130l10 -180h-140v-117l-220 -10v127h-120v180z" />
    <glyph glyph-name="bullet" unicode="&#x2022;" horiz-adv-x="431" 
d="M80 311q0 27 11 51.5t29.5 43t43 29t52.5 10.5t52.5 -10.5t43 -29t29 -43t10.5 -51.5q0 -28 -10.5 -53t-29 -43.5t-43 -29.5t-52.5 -11t-52.5 11t-43 29.5t-29.5 43.5t-11 53z" />
    <glyph glyph-name="ellipsis" unicode="&#x2026;" horiz-adv-x="917" 
d="M40 85q0 23 9 43.5t24.5 35.5t36 24t43.5 9t43.5 -9t36 -24t24.5 -35.5t9 -43.5t-9 -44t-24.5 -36.5t-36 -24.5t-43.5 -9t-43.5 9t-36 24.5t-24.5 36.5t-9 44zM344 84q0 23 9 43.5t24.5 35.5t36 24t43.5 9t43.5 -9t36 -24t24.5 -35.5t9 -43.5t-9 -44t-24.5 -36.5
t-36 -24.5t-43.5 -9t-43.5 9t-36 24.5t-24.5 36.5t-9 44zM651 84q0 23 9 43.5t24.5 35.5t36 24t43.5 9t43.5 -9t36 -24t24.5 -35.5t9 -43.5t-9 -44t-24.5 -36.5t-36 -24.5t-43.5 -9t-43.5 9t-36 24.5t-24.5 36.5t-9 44z" />
    <glyph glyph-name="perthousand" unicode="&#x2030;" horiz-adv-x="1214" 
d="M498 707l230 -7l-380 -710h-243zM174 738q22 0 50.5 -9.5t53.5 -30.5t42.5 -55t17.5 -83q0 -44 -14 -75t-37.5 -51t-54 -29.5t-62.5 -9.5q-37 0 -68 10t-53.5 31.5t-35.5 55t-13 81.5q0 52 19 84.5t46 50.5t57 24t52 6zM166 610q-15 0 -19.5 -16.5t-4.5 -33.5
q0 -25 4.5 -37.5t19.5 -12.5q13 0 19.5 11t6.5 39q0 30 -7 40t-19 10zM684 315q22 0 50.5 -9.5t53.5 -30.5t42.5 -55t17.5 -83q0 -44 -14 -75t-37.5 -51t-54 -29.5t-62.5 -9.5q-37 0 -68 10t-53.5 31.5t-35.5 55t-13 81.5q0 52 19 84.5t46 50.5t57 24t52 6zM676 187
q-15 0 -19.5 -16.5t-4.5 -33.5q0 -25 4.5 -37.5t19.5 -12.5q13 0 19.5 11t6.5 39q0 30 -7 40t-19 10zM1050 312q22 0 50.5 -9.5t53.5 -30.5t42.5 -55t17.5 -83q0 -44 -14 -75t-37.5 -51t-54 -29.5t-62.5 -9.5q-37 0 -68 10t-53.5 31.5t-35.5 55t-13 81.5q0 52 19 84.5
t46 50.5t57 24t52 6zM1042 184q-15 0 -19.5 -16.5t-4.5 -33.5q0 -25 4.5 -37.5t19.5 -12.5q13 0 19.5 11t6.5 39q0 30 -7 40t-19 10z" />
    <glyph glyph-name="guilsinglleft" unicode="&#x2039;" horiz-adv-x="458" 
d="M416 374l-127 -145l129 -127l-124 -125l-254 269l254 257z" />
    <glyph glyph-name="guilsinglright" unicode="&#x203a;" horiz-adv-x="458" 
d="M164 503l254 -257l-254 -269l-124 125l129 127l-127 145z" />
    <glyph glyph-name="fraction" unicode="&#x2044;" horiz-adv-x="558" 
d="M368 700l190 3l-369 -700l-189 -10z" />
    <glyph glyph-name="foursuperior" unicode="&#x2074;" horiz-adv-x="419" 
d="M334 682v-182h41l4 -90h-45v-64l-140 5l-2 60h-150l-2 47l134 225zM174 506h25l2 61z" />
    <glyph glyph-name="Euro" unicode="&#x20ac;" horiz-adv-x="737" 
d="M0 480h72q19 66 55.5 113.5t84.5 77.5t104 44t114 14q72 -1 121 -20.5t81 -42.5q36 -27 59 -62l-151 -114q-15 17 -38 28.5t-72 11.5q-61 0 -100 -50h170v-115h-209q-1 -7 -1 -13v-13v-6l200 2l5 -115h-163q38 -40 98 -40q30 0 54 8.5t43 21.5t34.5 29t28.5 31l147 -133
q-25 -33 -55.5 -63t-69.5 -53t-88.5 -36.5t-113.5 -13.5q-53 0 -106 14.5t-98.5 45t-81 77.5t-53.5 112h-71v110h55v8v27h-45z" />
    <glyph glyph-name="uni20B4" unicode="&#x20b4;" horiz-adv-x="735" 
d="M704 344v-100h-372q-8 -10 -8 -20q-1 -18 13 -31t46 -13q23 0 37 6t22 14q9 9 13 20l206 -80q-32 -48 -77 -85q-19 -16 -43 -31.5t-52.5 -27.5t-62 -19t-71.5 -7q-82 0 -138 22t-90 55.5t-49 74t-15 78.5q0 26 4 45h-37v100l548 -1h126zM31 371v100l374 -1q8 10 8 20
q1 20 -15.5 35t-54.5 15q-29 0 -48.5 -8t-31.5 -17.5t-17 -17l-5 -7.5l-140 120q22 34 61 60q32 23 85 41.5t130 18.5q49 0 99.5 -10.5t92 -37t67.5 -71t26 -111.5q0 -8 -0.5 -15.5t-1.5 -14.5h45v-100h-94z" />
    <glyph glyph-name="uni20BD" unicode="&#x20bd;" horiz-adv-x="684" 
d="M30 220l61 1v29h-66v200l70 -4v244l270 10q90 4 148 -12t91.5 -47t46.5 -75t13 -96q0 -45 -13.5 -85t-42.5 -70t-74.5 -47.5t-109.5 -17.5l-96 3v-26l123 3l-1 -160h-123v-70l-238 -14v84h-69zM326 445q10 -2 22 -3q11 -1 24.5 -1.5t28.5 -0.5q20 0 31.5 8.5t11.5 23.5
q0 23 -15 27t-28 4l-76 -3z" />
    <glyph glyph-name="afii61352" unicode="&#x2116;" horiz-adv-x="1072" 
d="M264 0h-200l-4 703l154 -13l240 -320l10 330l220 10l-20 -710h-160l-230 280zM900 708q22 0 50.5 -9.5t53.5 -30.5t42.5 -55t17.5 -83q0 -44 -14 -75t-37.5 -51t-54 -29.5t-62.5 -9.5q-37 0 -68 10t-53.5 31.5t-35.5 55t-13 81.5q0 52 19 84.5t46 50.5t57 24t52 6z
M892 580q-15 0 -19.5 -16.5t-4.5 -33.5q0 -25 4.5 -37.5t19.5 -12.5q13 0 19.5 11t6.5 39q0 30 -7 40t-19 10zM733 335l321 5l18 -147h-339v142z" />
    <glyph glyph-name="trademark" unicode="&#x2122;" horiz-adv-x="810" 
d="M356 699l-5 -134h-89v-179l-163 6l5 169l-84 -3l3 139zM369 385v314h111l88 -102l96 96l106 -4l-5 -309l-136 8l2 102l-66 -73l-51 65l-2 -92z" />
    <glyph glyph-name="minus" unicode="&#x2212;" horiz-adv-x="480" 
d="M30 400h420v-180l-420 10v170z" />
    <glyph glyph-name="commaaccent" unicode="&#xf6c3;" horiz-adv-x="281" 
d="M30 -179q0 22 8.5 42t23.5 35t35 23.5t43 8.5t42.5 -8.5t34.5 -23.5t23.5 -35t9.5 -42q3 -84 -25.5 -147.5t-76.5 -103.5h-19q-7 0 -13 -0.5t-6 0.5q8 10 20.5 32t21 45t7.5 41.5t-20 21.5q-23 0 -42.5 9t-34.5 24t-23.5 35t-8.5 43z" />
    <glyph glyph-name="cyrBreve" unicode="&#xf6d1;" horiz-adv-x="420" 
d="M210 909q15 0 27.5 11t12.5 45l140 -13q0 -38 -14 -70.5t-38.5 -56.5t-57.5 -37.5t-70 -13.5q-38 0 -70.5 13t-57 38.5t-38.5 63t-14 86.5l140 -4q0 -33 12.5 -47.5t27.5 -14.5z" />
    <glyph glyph-name="cyrbreve" unicode="&#xf6d4;" horiz-adv-x="366" 
d="M183 650q13 0 23.5 9t10.5 37l119 -11q0 -32 -12 -59.5t-32.5 -48t-48.5 -32t-60 -11.5t-60 11t-48.5 33t-32.5 53.5t-12 73.5l119 -3q0 -27 10.5 -39.5t23.5 -12.5z" />
    <glyph glyph-name="Germandbls" horiz-adv-x="720" 
d="M40 -15v466q1 45 18 86t47 73.5t73 53.5t97 26l371 8l-6 -168l-100 -150v-10q45 -6 80 -28q15 -9 29.5 -23t25.5 -33.5t18 -45.5t7 -60q0 -38 -13.5 -70.5t-40.5 -58t-68.5 -41.5t-97.5 -20h-155v204l75 -5q11 -1 20 2q8 2 14 8.5t7 19.5q1 20 -15 25t-33 5l-68 1v138
l85 128l-73 -2q-9 0 -20.5 -3t-22 -11t-17.5 -23t-7 -39q-1 -123 -1 -219v-80.5v-70.5v-49.5t1 -18.5z" />
    <glyph glyph-name="foundryicon" horiz-adv-x="878" 
d="M348 -99l-36 18l-33 -18l-33 18h-19v421q-12 -13 -31 -22.5t-44 -9.5q-24 0 -41.5 9t-30 23t-20 31.5t-10.5 35.5h183l59 523h31l53 -466l6 -57h278q34 0 65 -13.5t53.5 -36t36 -53.5t13.5 -65q0 -35 -13.5 -65.5t-36 -53.5t-53.5 -36.5t-65 -13.5h-127v-151h-15l-31 -18
l-37 18l-33 -18l-35 18zM667 151q-27 0 -44.5 14t-17.5 36h33q0 -7 4 -10.5t9.5 -5t10 -2t5.5 -0.5q12 0 21 5.5t18 11.5t18.5 11.5t21.5 5.5q14 0 24.5 -4.5t18.5 -9.5q7 17 7 36q0 28 -11 53.5t-29.5 44t-43 29.5t-52.5 11h-403v-429l22 -13l33 18l36 -18l34 18l35 -18
l33 18l37 -18l16 10v155h157q38 0 68.5 20.5t49.5 51.5q-2 5 -7 7.5t-10 4t-9.5 1.5h-5.5q-10 0 -18.5 -5.5t-17 -11.5t-19 -11.5t-24.5 -5.5zM465 185q-28 0 -48.5 21t-20.5 50v13h140v-13q0 -29 -20.5 -50t-50.5 -21zM264 407h13l67 68l-6 43l-68 -67zM92 377
q8 -13 20.5 -26t39.5 -13q19 0 35 8.5t32 30.5h-127zM275 500l59 58l-5 44l-50 -50zM482 311h-34v48h34v-48zM285 605l38 38l-4 41l-27 -26zM388 282l-33 36l21 21l35 -35zM545 282l-22 22l34 35l22 -21zM432 239q10 -22 33 -22q13 0 22.5 6t14.5 16h-70zM297 710l17 17
l-7 62zM349 436l-30 -29h33z" />
    </font>
</defs>
</svg>
