<svg xmlns="http://www.w3.org/2000/svg" width="146" height="30" viewBox="0 0 146 30">
  <g id="Group_1073" data-name="Group 1073" transform="translate(-1475 -500)">
    <g id="icons8-visa" transform="translate(1472 491)">
      <path id="Path_280" data-name="Path 280" d="M45,35a4,4,0,0,1-4,4H7a4,4,0,0,1-4-4V13A4,4,0,0,1,7,9H41a4,4,0,0,1,4,4Z" fill="#1565c0"/>
      <path id="Path_281" data-name="Path 281" d="M15.186,19,12.56,26.832s-.667-3.313-.733-3.729c-1.495-3.411-3.7-3.221-3.7-3.221L10.726,30v0h3.161l4.371-11Zm2.5,11H20.56L22.3,19H19.389ZM38.008,19H34.987l-4.71,11h2.852l.588-1.571h3.6L37.619,30h2.613Zm-3.495,7.328,1.563-4.157.818,4.157Zm-8.144-4.122c0-.606.5-1.057,1.926-1.057a4.53,4.53,0,0,1,1.991.674l.466-2.309A8.765,8.765,0,0,0,28.061,19c-3.019,0-4.576,1.444-4.576,3.272,0,3.306,3.979,2.853,3.979,4.551,0,.291-.231.964-1.888.964a6.147,6.147,0,0,1-2.759-.609l-.5,2.216A6.746,6.746,0,0,0,25.439,30c2.059,0,4.915-1.54,4.915-3.752C30.354,23.586,26.369,23.394,26.369,22.206Z" fill="#fff"/>
      <path id="Path_282" data-name="Path 282" d="M12.212,24.945,11.246,20.2a1.774,1.774,0,0,0-1.573-1.029H5.233S10.894,20.84,12.212,24.945Z" fill="#ffc107"/>
    </g>
    <g id="Group_1072" data-name="Group 1072" transform="translate(-10)">
      <g id="Rectangle_579" data-name="Rectangle 579" transform="translate(1537 500)" fill="#fff" stroke="#b3b3b3" stroke-width="1">
        <rect width="42" height="30" rx="4" stroke="none"/>
        <rect x="0.5" y="0.5" width="41" height="29" rx="3.5" fill="none"/>
      </g>
      <g id="icons8-mastercard-logo" transform="translate(1543 496.001)">
        <path id="Path_283" data-name="Path 283" d="M26.554,10a8.554,8.554,0,1,0,8.554,8.554A8.554,8.554,0,0,0,26.554,10Z" transform="translate(-6.224)" fill="#ff9800"/>
        <path id="Path_284" data-name="Path 284" d="M10.554,10a8.554,8.554,0,1,0,8.554,8.554A8.554,8.554,0,0,0,10.554,10Z" fill="#d50000"/>
        <path id="Path_285" data-name="Path 285" d="M18,19.534a8.539,8.539,0,0,0,3.666,7.014,8.543,8.543,0,0,0,0-14.028A8.539,8.539,0,0,0,18,19.534Z" transform="translate(-6.224 -0.98)" fill="#ff3d00"/>
      </g>
    </g>
    <g id="icons8-american-express" transform="translate(1576 491)">
      <path id="Path_278" data-name="Path 278" d="M45,35a4,4,0,0,1-4,4H7a4,4,0,0,1-4-4V13A4,4,0,0,1,7,9H41a4,4,0,0,1,4,4Z" fill="#1976d2"/>
      <path id="Path_279" data-name="Path 279" d="M22.255,20l-2.113,4.683L18.039,20H15.344v6.726l-3-6.726H10.067L7,26.981H8.815l.671-1.558h3.432l.682,1.558h3.465V21.8l2.3,5.185h1.563l2.351-5.095v5.095H25V20Zm-12.12,3.915,1.026-2.44,1.066,2.44Zm27.748-.5L41,20.018H38.783l-1.994,2.164L34.86,20H28v6.982h6.635l2.092-2.311L38.767,27h2.21Zm-4.155,2.1H29.717V24.135h3.838V22.812H29.717V21.5l4.234.012,1.693,1.9Z" fill="#fff"/>
    </g>
  </g>
</svg>
