<?xml version="1.0" encoding="UTF-8"?>
<svg width="72px" height="72px" viewBox="0 0 72 72" version="1.1" xmlns="http://www.w3.org/2000/svg" xmlns:xlink="http://www.w3.org/1999/xlink">
    <!-- Generator: Sketch 59 (86127) - https://sketch.com -->
    <title>nzf-logo</title>
    <desc>Created with Sketch.</desc>
    <g id="Page-1" stroke="none" stroke-width="1" fill="none" fill-rule="evenodd">
        <g id="nzf-logo" fill-rule="nonzero">
            <path d="M71.298,36.134 C71.298,16.565 55.434,0.701 35.865,0.701 C16.295,0.701 0.433,16.565 0.433,36.134 C0.433,55.703 16.295,71.567 35.865,71.567 C55.434,71.567 71.298,55.703 71.298,36.134" id="Fill-1" fill="#C9333A"></path>
            <path d="M50.478,44.101 C50.127,43.92 49.643,43.811 49.288,43.773 C47.508,43.58 46.64,45.306 46.356,46.163 L46.323,46.259 C45.428,48.909 43.124,49.848 40.236,50.082 C38.023,50.261 33.291,49.183 28.771,47.676 L37.254,36.951 L40.871,36.951 C41.36,36.95 42.62,37.008 42.62,35.358 C42.62,33.974 41.817,33.77 40.871,33.764 L39.885,33.764 L49.604,21.743 L49.981,21.247 C50.374,20.768 50.491,20.194 50.491,19.669 C50.491,18.08 49.225,16.799 47.65,16.754 L47.43,16.754 L21.154,16.764 C20.957,16.774 20.846,16.908 20.8,17.096 C20.331,19.054 21.401,22.183 22.653,22.516 C22.784,22.588 22.93,22.63 23.083,22.63 L41.689,22.63 L32.643,33.764 L28.848,33.764 C27.582,33.766 27.065,34.406 27.067,35.405 C27.067,35.898 27.306,36.952 28.512,36.952 L30.074,36.951 L20.285,48.83 C19.309,49.977 19.514,52.145 20.87,52.988 C23.408,54.567 25.014,52.233 25.014,52.233 C33.868,54.897 38.563,55.857 42.865,55.145 C46.679,54.513 50.061,52.718 51.705,48.287 L51.738,48.135 C51.907,47.527 52.652,45.227 50.478,44.101" id="Fill-2" fill="#FFFFFE"></path>
        </g>
    </g>
</svg>